<?xml version="1.0" encoding="UTF-8"?>
<svg version="1.1" xmlns="http://www.w3.org/2000/svg" width="512" height="512">
<path d="M0 0 C2.0625 0.6875 2.0625 0.6875 5 2 C5.60305969 2.25943893 6.20611938 2.51887787 6.82745361 2.78617859 C9.03593289 3.99044867 10.43435084 5.01668751 12 7 C12.71323925 11.17370839 12.16453202 15.20385879 11.734375 19.39453125 C11.55810166 22.01050446 11.39136765 24.62544442 11.23754883 27.24267578 C11.19452165 27.93193114 11.15149446 28.6211865 11.10716343 29.33132839 C9.36836723 58.03432841 13.02308592 81.98103748 23.8125 108.625 C24.10947533 109.3593288 24.40645065 110.09365761 24.71242523 110.8502388 C27.4611312 117.61811588 30.27187303 124.35919161 33.1451416 131.07511902 C37.94967682 142.31861438 42.38110749 153.66785643 46.62890625 165.1328125 C46.93602098 165.96112705 47.24313572 166.7894416 47.55955696 167.6428566 C49.07975982 171.74707014 50.59502927 175.85308047 52.10751343 179.96014404 C54.63961272 186.83086413 57.20579069 193.68875866 59.77993584 200.54381943 C60.52443082 202.52870805 61.26574206 204.51476128 62.00660706 206.50100708 C63.32101487 210.00734835 64.65473486 213.50539445 66 217 C66.43169495 218.13924927 66.86338989 219.27849854 67.3081665 220.45227051 C67.73128113 221.52795288 68.15439575 222.60363525 68.59033203 223.71191406 C68.95885284 224.66100647 69.32737366 225.61009888 69.70706177 226.58795166 C71.15021776 229.2802396 72.35648494 230.49523658 75 232 C78.02496594 231.876532 80.10606532 231.69368705 82.53318787 229.81025696 C84.47078728 227.41898085 85.33346088 225.04703716 86.40649414 222.16088867 C86.86384445 220.9430368 87.32119476 219.72518494 87.79240417 218.47042847 C88.29014512 217.11966637 88.78772376 215.76884447 89.28515625 214.41796875 C89.81470825 212.99836309 90.3449842 211.57902729 90.87593079 210.15994263 C92.31438277 206.30903299 93.74260727 202.45440109 95.16905975 198.59903336 C96.66420787 194.56339743 98.16880713 190.53128838 99.67236328 186.4987793 C102.50322878 178.90187433 105.32556782 171.30183302 108.14412689 163.70035458 C110.33933961 157.7801558 112.53704052 151.86088754 114.73681641 145.94238281 C115.04133445 145.12305991 115.34585249 144.30373701 115.65959835 143.45958614 C116.26937725 141.81899928 116.87916892 140.17841716 117.48897362 138.53783989 C121.22431 128.4884347 124.95858155 118.43864487 128.68383789 108.38549805 C129.46664628 106.27382996 130.24950312 104.16217984 131.03236961 102.05053329 C131.74183891 100.1360492 132.45044551 98.22124548 133.15901184 96.306427 C133.59299789 95.13578705 134.02698395 93.96514709 134.47412109 92.7590332 C134.88846909 91.62564514 135.30281708 90.49225708 135.72972107 89.32452393 C136.57168488 87.12096945 137.47197246 84.938768 138.43055725 82.78338623 C141.87087763 74.86105875 142.592172 68.22115886 142.22299767 59.61653519 C142.13424444 57.4794846 142.08403649 55.3443822 142.04341125 53.2059021 C141.92257708 47.13947156 141.74256218 41.07573986 141.52026367 35.01220703 C141.38590637 31.27562827 141.30104064 27.54049767 141.24592018 23.80195236 C141.21506159 22.38931329 141.16526426 20.97694694 141.09552574 19.5656929 C140.56381301 8.72717069 140.56381301 8.72717069 144.10586548 4.46746826 C146.74773156 2.45072281 148.82107002 0.98503501 152 0 C156.01112409 1.12615323 159.27529868 3.3287368 162.8125 5.5 C176.63767997 13.62779328 191.9990479 19.08201852 207.125 24.25 C228.15187494 31.43657897 246.67586003 39.47449301 257.9375 59.6875 C258.45328613 60.60595703 258.96907227 61.52441406 259.50048828 62.47070312 C281.77863462 103.06736269 286.98049436 151.6891739 287.25 197.25 C287.25926514 198.19480225 287.26853027 199.13960449 287.27807617 200.11303711 C287.23715041 209.03725954 286.29663761 218.5050847 281 226 C278.34941765 228.20786346 275.9829543 229.54806517 272.7109375 230.61328125 C271.86611816 230.88865723 271.02129883 231.1640332 270.15087891 231.44775391 C269.23483887 231.73312012 268.31879883 232.01848633 267.375 232.3125 C266.40353027 232.61591309 265.43206055 232.91932617 264.43115234 233.23193359 C235.99427373 241.89724854 206.68539388 246.1663465 177.1875 249.1875 C176.05813019 249.30572113 176.05813019 249.30572113 174.90594482 249.42633057 C144.25632054 252.58941134 113.61887758 253.33352728 82.83007812 253.26074219 C77.97361222 253.24934872 73.11736563 253.25613841 68.26090717 253.26761913 C37.67214502 253.32895798 7.25366891 252.37617561 -23.1875 249.1875 C-24.41457672 249.06152939 -24.41457672 249.06152939 -25.66644287 248.93301392 C-56.0345307 245.79335356 -86.39449505 241.16462136 -115.5625 231.875 C-116.2642334 231.65787354 -116.9659668 231.44074707 -117.68896484 231.21704102 C-123.28788221 229.30540462 -126.57401575 226.27101196 -129.6875 221.3125 C-132.71458645 213.6727104 -133.3348369 205.89946139 -133.25 197.75 C-133.24323242 196.77039307 -133.23646484 195.79078613 -133.22949219 194.78149414 C-132.65072962 151.5459111 -128.34586307 104.35498127 -107 65.81152344 C-105.97375087 63.95244908 -104.98606499 62.07596184 -104 60.1953125 C-97.73391275 48.46687507 -90.48279139 41.57721793 -79 35 C-77.74896484 34.26330078 -77.74896484 34.26330078 -76.47265625 33.51171875 C-69.85476823 29.90637887 -63.02912315 27.61542552 -55.875 25.3125 C-25.93976501 16.4874506 -25.93976501 16.4874506 0 0 Z " fill="#030104" transform="translate(179,259)"/>
<path d="M0 0 C1.22178955 0.36206543 1.22178955 0.36206543 2.46826172 0.73144531 C25.21297223 7.54842735 45.6675592 16.45402248 63 33 C63.62519531 33.55042969 64.25039063 34.10085937 64.89453125 34.66796875 C78.15428758 46.79031935 82.65351001 63.21223279 84.22265625 80.4453125 C84.62786102 90.55781426 82.45220288 101.38561985 79.9921875 111.1640625 C79.53199219 113.00097656 79.53199219 113.00097656 79.0625 114.875 C78.76472656 115.94492188 78.46695313 117.01484375 78.16015625 118.1171875 C77.69137817 121.14525542 77.69137817 121.14525542 79.87109375 123.6328125 C80.57363281 124.41398438 81.27617187 125.19515625 82 126 C86.15978545 138.87036305 82.97442211 156.62005016 76.9375 168.4375 C76.47162476 169.25093872 76.47162476 169.25093872 75.99633789 170.08081055 C74.95528566 172.0861307 74.24158568 174.03863135 73.546875 176.1875 C73.28898193 176.98019287 73.03108887 177.77288574 72.76538086 178.58959961 C72.06076961 180.80861934 71.36616599 183.03042699 70.67578125 185.25390625 C67.39114465 195.73391981 63.27128874 205.36922798 58 215 C57.50757813 215.91136719 57.01515625 216.82273438 56.5078125 217.76171875 C43.58563154 240.43029043 23.37048442 260.12681601 -2.0637207 267.60693359 C-20.12136014 272.29872381 -37.69967198 269.15137965 -53.703125 259.921875 C-61.18387848 255.39188547 -67.73099405 250.1122808 -74 244 C-74.845625 243.195625 -75.69125 242.39125 -76.5625 241.5625 C-77.366875 240.716875 -78.17125 239.87125 -79 239 C-79.98033203 237.99453125 -79.98033203 237.99453125 -80.98046875 236.96875 C-96.78384932 220.21335856 -106.80687382 198.51391247 -111.09375 176.0078125 C-112.15754913 172.47709988 -113.94813348 170.05028433 -116 167 C-121.10655921 153.21562775 -125.22684861 136.89066229 -119 123 C-118.41412109 122.10667969 -118.41412109 122.10667969 -117.81640625 121.1953125 C-116.59864726 117.9207644 -117.48175976 115.60223815 -118.3125 112.25 C-124.59261205 86.44754867 -121.67812563 61.89976727 -107.91650391 39.21386719 C-95.17810548 18.99072767 -76.42803797 2.81280987 -52.84033203 -2.96801758 C-35.58976063 -6.39061964 -16.74644133 -5.15897841 0 0 Z " fill="#030104" transform="translate(275,4)"/>
<path d="M0 0 C0.81452637 0.18175781 0.81452637 0.18175781 1.64550781 0.3671875 C16.94183332 3.73328537 29.47401764 4.64486826 45 2 C47.66414227 1.63543316 50.32935336 1.31419372 53 1 C51.71059117 4.47054405 50.20415802 7.45553351 48.171875 10.546875 C47.61886719 11.3925 47.06585938 12.238125 46.49609375 13.109375 C45.63177734 14.41648437 45.63177734 14.41648437 44.75 15.75 C44.18925781 16.6059375 43.62851562 17.461875 43.05078125 18.34375 C39.39580129 23.91485109 35.70295506 29.4607021 32 35 C33.87605718 39.09122034 36.62654042 41.88723659 39.8125 45 C40.33392578 45.52078125 40.85535156 46.0415625 41.39257812 46.578125 C43.71896981 48.87837745 45.86117147 50.90837699 48.60644436 52.72018147 C51 55 51 55 51.33806705 57.79522228 C51.13822287 59.36638286 51.13822287 59.36638286 50.93434143 60.96928406 C50.72827113 62.70475526 50.72827113 62.70475526 50.5180378 64.47528648 C50.34708532 65.63844194 50.17613285 66.8015974 50 68 C49.85767378 69.02320658 49.71534756 70.04641315 49.56870842 71.10062599 C49.10268471 74.23872233 48.58395586 77.36413278 48.05053711 80.49145508 C47.85531967 81.66378189 47.66010223 82.8361087 47.45896912 84.04396057 C46.8204789 87.87007432 46.17398793 91.69478793 45.52734375 95.51953125 C45.0792344 98.19119151 44.63284685 100.86313868 44.18641663 103.53507996 C43.1356231 109.81821235 42.07905393 116.10035869 41.02032906 122.38215894 C39.81385075 129.54238591 38.61393263 136.70370745 37.41452396 143.86512148 C34.95023722 158.57796419 32.47784673 173.28943442 30 188 C28.35 188.33 26.7 188.66 25 189 C22.77663984 183.2226754 21.92218371 177.29487108 20.93701172 171.21484375 C20.74164825 170.03366974 20.54628479 168.85249573 20.34500122 167.63552856 C19.81248742 164.40890744 19.28441109 161.18160046 18.75863028 157.9538765 C18.2064265 154.56893904 17.64934897 151.18480315 17.0930481 147.80053711 C16.15988256 142.11857805 15.23086011 136.43595293 14.30419922 130.75292969 C13.23418294 124.19111849 12.15716446 117.63048522 11.07648647 111.07042217 C10.03520739 104.74827356 8.99933779 98.42524949 7.96576309 92.10183716 C7.52661485 89.41588217 7.08550805 86.73025984 6.64278793 84.04489136 C6.0252802 80.29238737 5.41392719 76.53893108 4.80419922 72.78515625 C4.62032654 71.67536407 4.43645386 70.5655719 4.24700928 69.42214966 C2.56916587 59.01273685 2.56916587 59.01273685 3 55 C4.82491369 52.89340834 6.43944144 51.30374741 8.5625 49.5625 C9.66383783 48.61062016 10.76410137 47.65749591 11.86328125 46.703125 C12.40033691 46.24486328 12.93739258 45.78660156 13.49072266 45.31445312 C16.48796915 42.70410451 19.22315039 39.83995983 22 37 C20.63087649 33.24849209 18.91061694 30.11746797 16.69921875 26.796875 C16.05146484 25.81589844 15.40371094 24.83492188 14.73632812 23.82421875 C14.06021484 22.80972656 13.38410156 21.79523438 12.6875 20.75 C8.17631783 13.96791235 3.81299226 7.20319795 0 0 Z " fill="#030104" transform="translate(229,288)"/>
</svg>
