<?xml version="1.0" encoding="UTF-8"?>
<svg version="1.1" xmlns="http://www.w3.org/2000/svg" width="512" height="512">
<path d="M0 0 C151.8 0 303.6 0 460 0 C460 25.41 460 50.82 460 77 C459.34 77 458.68 77 458 77 C456.58355885 75.25714852 455.24265534 73.45267785 453.9375 71.625 C432.81611603 42.73149334 402.34358633 24.28498751 367.046875 18.56640625 C331.72320654 13.387308 296.85305198 22.6412021 268.04980469 43.47998047 C255.27679003 53.04620253 244.56496843 64.55970456 236 78 C235.29230469 79.10859375 234.58460938 80.2171875 233.85546875 81.359375 C216.76947781 109.7162395 210.80591838 145.88329991 218.16821289 178.26416016 C218.73549919 180.52425923 219.35181366 182.76185658 220 185 C220.20367187 185.71720215 220.40734375 186.4344043 220.6171875 187.17333984 C228.05633539 212.45840655 243.17320357 234.32452143 263.125 251.37890625 C264.83242115 252.85511412 266.41418633 254.39598755 268 256 C242.19960648 256.09363257 216.39923859 256.16407176 190.59870911 256.20724869 C178.61783146 256.22783346 166.63705968 256.25587569 154.65625 256.30175781 C144.20816822 256.34175091 133.76016315 256.36746247 123.31200695 256.37635398 C117.78486314 256.38154765 112.25793867 256.39366887 106.73086548 256.42292023 C101.51716669 256.45028673 96.30377539 256.45840249 91.0900116 256.45243073 C89.18744734 256.45352154 87.28487164 256.46134782 85.38237 256.4768219 C60.51622244 256.66896819 40.6401595 249.51658482 22.28125 232.4765625 C-29.8141294 178.93408923 0 26.97206789 0 0 Z " fill="#000000" transform="translate(26,224)"/>
<path d="M0 0 C3.88446678 2.58964452 6.69907021 5.64814041 8.8125 9.875 C8.9264818 12.55861263 8.98033634 15.21687279 8.98950195 17.90136719 C8.99607315 18.73082855 9.00264435 19.56028992 9.00941467 20.41488647 C9.02916786 23.16721686 9.04081544 25.91949259 9.05078125 28.671875 C9.05485678 29.61135231 9.0589323 30.55082962 9.06313133 31.51877594 C9.08400181 36.49233278 9.09829866 41.46586195 9.10766602 46.43945312 C9.11872576 51.57543552 9.15311785 56.71098409 9.19283772 61.8468132 C9.21899312 65.79653729 9.22735695 69.74615792 9.23094749 73.695961 C9.23581712 75.5889707 9.24744179 77.48197568 9.26598549 79.37490082 C9.29035164 82.02730062 9.28941654 84.67857706 9.2824707 87.33105469 C9.30168579 88.50022934 9.30168579 88.50022934 9.32128906 89.69302368 C9.27197123 94.87050195 8.18089005 97.74062848 4.8125 101.875 C0.57462042 105.79503861 -1.97239066 106.75417585 -7.625 107.0625 C-11.1875 106.875 -11.1875 106.875 -16.1875 104.875 C-16.5175 111.805 -16.8475 118.735 -17.1875 125.875 C-3.58669446 126.31022578 6.91789546 126.05524513 17.80859375 116.91796875 C37.38792568 96.95697343 29.43377952 58.84078759 29.8125 36.875 C75.6825 36.875 121.5525 36.875 168.8125 36.875 C168.8125 27.965 168.8125 19.055 168.8125 9.875 C174.8125 0.875 174.8125 0.875 180.8125 -1.125 C186.42849916 -1.49326224 189.98915989 -1.34056007 194.8125 1.875 C199.970705 7.10291047 200.96502331 10.7318766 200.98950195 17.90136719 C200.99607315 18.73082855 201.00264435 19.56028992 201.00941467 20.41488647 C201.02916786 23.16721686 201.04081544 25.91949259 201.05078125 28.671875 C201.05485678 29.61135231 201.0589323 30.55082962 201.06313133 31.51877594 C201.08400181 36.49233278 201.09829866 41.46586195 201.10766602 46.43945312 C201.11872576 51.57543552 201.15311785 56.71098409 201.19283772 61.8468132 C201.21899312 65.79653729 201.22735695 69.74615792 201.23094749 73.695961 C201.23581712 75.5889707 201.24744179 77.48197568 201.26598549 79.37490082 C201.29035164 82.02730062 201.28941654 84.67857706 201.2824707 87.33105469 C201.30168579 88.50022934 201.30168579 88.50022934 201.32128906 89.69302368 C201.27197123 94.87050195 200.18089005 97.74062848 196.8125 101.875 C192.57462042 105.79503861 190.02760934 106.75417585 184.375 107.0625 C180.8125 106.875 180.8125 106.875 175.8125 104.875 C175.4825 111.805 175.1525 118.735 174.8125 125.875 C188.41330554 126.31022578 198.91789546 126.05524513 209.80859375 116.91796875 C219.57291619 106.96330864 221.25410255 94.56572548 221.32421875 81.2109375 C221.34216995 79.93771637 221.36012115 78.66449524 221.37861633 77.35269165 C221.42332215 74.00231562 221.455773 70.65229546 221.48205566 67.30175781 C221.51207792 63.86900948 221.55853243 60.43648536 221.60351562 57.00390625 C221.6881577 50.29437534 221.75662233 43.58482884 221.8125 36.875 C225.77887078 36.83597723 229.74516508 36.80783128 233.71168518 36.78916931 C235.71395807 36.77757507 237.71617758 36.75770714 239.71838379 36.7376709 C261.98446462 36.65005056 280.3187362 45.04759491 296.34375 60.28125 C324.23179559 89.69740768 318.8125 125.00590049 318.8125 164.875 C167.0125 164.875 15.2125 164.875 -141.1875 164.875 C-141.1875 83.1707209 -141.1875 83.1707209 -117.171875 58.6640625 C-97.04856342 39.22221765 -73.82054606 36.22319202 -47.1875 36.625 C-44.85157793 36.6451093 -42.51563901 36.66335217 -40.1796875 36.6796875 C-34.51525103 36.72329956 -28.85145664 36.7898553 -23.1875 36.875 C-23.2189209 35.69526611 -23.2189209 35.69526611 -23.25097656 34.49169922 C-23.33437753 30.91126402 -23.38623776 27.33103358 -23.4375 23.75 C-23.47101563 22.5125 -23.50453125 21.275 -23.5390625 20 C-23.66136428 8.6259342 -23.66136428 8.6259342 -19.1875 3.875 C-13.37010796 -1.37484159 -7.3959011 -2.61031804 0 0 Z " fill="#000000" transform="translate(167.1875,27.125)"/>
<path d="M0 0 C1.572987 1.34197076 3.13565057 2.69614099 4.6875 4.0625 C5.49445313 4.72636719 6.30140625 5.39023437 7.1328125 6.07421875 C28.3216136 24.04152501 40.60228718 50.3482501 44.4375 77.5625 C44.55228327 79.06042164 44.63031051 80.5612759 44.6875 82.0625 C44.7390625 83.26648438 44.790625 84.47046875 44.84375 85.7109375 C45.70007684 115.73567511 35.60052678 144.76527823 15.171875 166.953125 C-6.28676658 189.48497814 -34.54530649 202.39646468 -65.73071289 203.41625977 C-97.91029721 203.74458436 -126.38897009 191.1102074 -149.4375 168.984375 C-163.03868837 155.43773686 -172.43078665 137.53760214 -177.3125 119.0625 C-177.62960937 117.87269531 -177.94671875 116.68289063 -178.2734375 115.45703125 C-184.68485294 87.07622437 -179.67390104 56.2318129 -164.50390625 31.4375 C-147.9144854 5.39955082 -123.43430216 -12.23128164 -93.5390625 -19.90625 C-61.75487935 -26.94769308 -25.8351288 -20.30479654 0 0 Z M-61.9375 77.625 C-63.52971355 79.22223887 -65.12215961 80.819246 -66.71484375 82.41601562 C-70.58341406 86.29550916 -74.44910329 90.17785466 -78.3125 94.0625 C-82.12799117 90.84521072 -85.87476276 87.63040221 -89.35546875 84.046875 C-90.37737305 83.00660156 -90.37737305 83.00660156 -91.41992188 81.9453125 C-92.82016449 80.50957077 -94.2185696 79.07203493 -95.61523438 77.6328125 C-96.29263672 76.94445312 -96.97003906 76.25609375 -97.66796875 75.546875 C-98.57518677 74.61439941 -98.57518677 74.61439941 -99.50073242 73.66308594 C-103.73753007 69.92013413 -107.43712519 69.67988435 -112.9140625 69.81640625 C-117.60851857 70.29808497 -119.74451192 72.52032956 -123.0625 75.6875 C-125.94755436 79.35772738 -126.80464539 83.44863701 -126.3125 88.0625 C-121.60019697 98.67016407 -111.87385441 106.71107279 -103.76416016 114.85107422 C-102.17536702 116.44970813 -100.59757157 118.05872837 -99.01953125 119.66796875 C-97.99024163 120.70377957 -96.96031613 121.73895899 -95.9296875 122.7734375 C-95.01815918 123.69431152 -94.10663086 124.61518555 -93.16748047 125.56396484 C-88.78947669 129.39537331 -84.2836356 132.64098632 -78.25 132.5625 C-77.45464844 132.5728125 -76.65929687 132.583125 -75.83984375 132.59375 C-69.98366364 131.36277551 -65.70575219 126.74837508 -61.61425781 122.62304688 C-61.08014786 122.09244156 -60.5460379 121.56183624 -59.9957428 121.01515198 C-58.24733591 119.27548422 -56.50627232 117.52867906 -54.765625 115.78125 C-53.54617004 114.56314353 -52.32641842 113.34533399 -51.10638428 112.12780762 C-48.55805653 109.5824202 -46.01336068 107.03347127 -43.47119141 104.48193359 C-40.2140719 101.21339598 -36.94802291 97.95395196 -33.67921829 94.69710541 C-31.16202754 92.18714201 -28.64962008 89.67243423 -26.13863373 87.15626526 C-24.93603007 85.9523288 -23.73194269 84.74987252 -22.5263443 83.54893494 C-20.84372852 81.87140135 -19.16766205 80.18758468 -17.49316406 78.50195312 C-16.99549026 78.00832779 -16.49781647 77.51470245 -15.98506165 77.00611877 C-11.90483923 72.87552824 -10.02693132 69.95114119 -10 64.125 C-10.14896079 58.14904359 -11.83546071 55.6098745 -15.9375 51.3125 C-31.93483212 38.73748271 -52.00125464 67.63390971 -61.9375 77.625 Z " fill="#000000" transform="translate(441.3125,282.9375)"/>
</svg>
