<?xml version="1.0" standalone="no"?>
<!DOCTYPE svg PUBLIC "-//W3C//DTD SVG 20010904//EN"
 "http://www.w3.org/TR/2001/REC-SVG-20010904/DTD/svg10.dtd">
<svg version="1.0" xmlns="http://www.w3.org/2000/svg"
 width="64.000000pt" height="64.000000pt" viewBox="0 0 64.000000 64.000000"
 preserveAspectRatio="xMidYMid meet">

<g transform="translate(0.000000,64.000000) scale(0.100000,-0.100000)"
fill="#000000" stroke="none">
<path d="M182 600 c-12 -5 -27 -21 -32 -35 -13 -34 -13 -102 0 -110 6 -4 10
15 10 49 0 68 15 86 76 86 28 0 43 4 39 10 -8 12 -62 12 -93 0z"/>
<path d="M305 600 c-3 -5 1 -10 10 -10 9 0 13 5 10 10 -3 6 -8 10 -10 10 -2 0
-7 -4 -10 -10z"/>
<path d="M356 601 c-5 -8 16 -11 68 -11 106 0 106 -1 104 -158 l-2 -127 -5
128 c-7 140 -10 147 -68 147 -22 0 -36 -6 -43 -20 -9 -16 -21 -20 -63 -20 -41
0 -55 4 -65 20 -8 13 -23 20 -41 20 -61 0 -61 1 -61 -156 0 -89 -4 -144 -10
-144 -5 0 -10 23 -10 51 0 31 -4 48 -10 44 -5 -3 -10 -26 -10 -50 0 -35 -4
-45 -20 -50 -15 -5 -21 -19 -26 -56 -4 -27 -10 -49 -15 -49 -15 0 -10 -65 7
-98 12 -25 22 -32 44 -32 20 0 31 6 35 20 9 28 61 28 68 0 8 -31 65 -28 77 5
8 21 16 25 49 25 36 0 40 -3 43 -27 3 -28 4 -28 78 -28 75 0 75 0 78 28 2 16
-2 34 -8 42 -9 11 -8 19 4 37 18 26 23 153 6 163 -6 4 -10 58 -10 129 0 160
-6 169 -113 174 -47 3 -77 0 -81 -7z m-86 -56 c0 -22 145 -22 154 1 4 10 16
14 38 12 l33 -3 3 -122 c2 -105 0 -123 -13 -123 -11 0 -15 11 -15 40 0 27 -5
43 -15 46 -29 11 -45 -16 -45 -74 0 -44 -3 -53 -12 -44 -17 17 -48 15 -55 -4
-6 -15 2 -32 49 -111 l20 -33 -41 0 c-34 0 -41 3 -41 20 0 11 -4 20 -9 20 -5
0 -12 19 -16 43 -10 57 -20 67 -71 67 l-44 0 0 133 c0 74 3 137 7 140 3 4 21
7 40 7 23 0 33 -5 33 -15z m191 -236 c3 -35 6 -54 7 -41 2 27 22 30 22 2 0
-28 20 -25 21 3 l2 22 4 -22 c2 -13 8 -23 13 -23 5 0 11 10 13 23 2 12 5 -8 6
-44 1 -48 -3 -70 -14 -79 -8 -7 -15 -19 -15 -26 0 -10 -13 -14 -40 -14 -24 0
-40 5 -40 12 0 6 -8 21 -19 32 -28 31 -65 105 -58 113 4 3 21 -6 37 -22 l30
-29 0 83 c0 62 3 82 13 79 7 -3 14 -31 18 -69z m-181 -59 c0 -6 -33 -10 -80
-10 -47 0 -80 4 -80 10 0 6 33 10 80 10 47 0 80 -4 80 -10z m-26 -96 c-19 -15
-19 -15 1 -11 11 3 28 8 38 12 14 6 17 2 17 -24 0 -28 -3 -31 -30 -31 -20 0
-30 5 -30 15 0 11 -12 15 -50 15 -38 0 -50 -4 -50 -15 0 -10 -10 -15 -30 -15
-27 0 -30 3 -30 31 0 26 3 30 18 24 9 -4 26 -9 37 -12 20 -4 20 -4 1 11 -18
15 -15 16 54 16 69 0 72 -1 54 -16z m-24 -44 c0 -5 -13 -10 -30 -10 -16 0 -30
5 -30 10 0 6 14 10 30 10 17 0 30 -4 30 -10z m173 3 c-13 -2 -35 -2 -50 0 -16
2 -5 4 22 4 28 0 40 -2 28 -4z m-253 -43 c0 -5 -9 -10 -20 -10 -11 0 -20 5
-20 10 0 6 9 10 20 10 11 0 20 -4 20 -10z m140 0 c0 -5 -9 -10 -20 -10 -11 0
-20 5 -20 10 0 6 9 10 20 10 11 0 20 -4 20 -10z"/>
<path d="M220 485 l0 -25 125 0 125 0 0 25 0 25 -125 0 -125 0 0 -25z"/>
<path d="M224 425 c-14 -37 3 -46 78 -43 70 3 73 4 73 28 0 24 -3 25 -73 28
-58 2 -73 0 -78 -13z"/>
<path d="M217 347 c-11 -30 9 -38 84 -35 66 3 74 5 74 23 0 18 -8 20 -76 23
-58 2 -78 -1 -82 -11z"/>
<path d="M100 120 c0 -5 7 -10 15 -10 8 0 15 5 15 10 0 6 -7 10 -15 10 -8 0
-15 -4 -15 -10z"/>
<path d="M270 120 c0 -5 7 -10 16 -10 8 0 12 5 9 10 -3 6 -10 10 -16 10 -5 0
-9 -4 -9 -10z"/>
<path d="M323 563 c15 -2 37 -2 50 0 12 2 0 4 -28 4 -27 0 -38 -2 -22 -4z"/>
<path d="M144 419 c-3 -6 -1 -16 5 -22 8 -8 11 -5 11 11 0 24 -5 28 -16 11z"/>
</g>
</svg>
