<?xml version="1.0" standalone="no"?>
<!DOCTYPE svg PUBLIC "-//W3C//DTD SVG 20010904//EN"
 "http://www.w3.org/TR/2001/REC-SVG-20010904/DTD/svg10.dtd">
<svg version="1.0" xmlns="http://www.w3.org/2000/svg"
 width="64.000000pt" height="64.000000pt" viewBox="0 0 64.000000 64.000000"
 preserveAspectRatio="xMidYMid meet">

<g transform="translate(0.000000,64.000000) scale(0.100000,-0.100000)"
fill="#000000" stroke="none">
<path d="M292 628 c-9 -12 -15 -36 -29 -115 -3 -18 -11 -34 -19 -34 -8 -1 -20
-2 -26 -3 -9 -1 -13 13 -13 39 0 39 -1 40 -35 40 l-35 0 -3 -110 c-2 -85 -6
-113 -19 -125 -14 -14 -15 -12 -9 18 4 25 1 37 -15 53 -18 18 -23 19 -42 6
-20 -13 -22 -25 -25 -118 -2 -56 -8 -111 -13 -120 -14 -27 -11 -76 5 -82 8 -3
16 -21 18 -39 3 -31 5 -33 43 -33 38 0 40 2 43 33 3 31 5 32 51 32 44 0 47 -2
56 -32 l10 -33 85 0 85 0 10 32 c9 31 12 33 56 33 46 0 48 -1 51 -32 3 -31 5
-33 43 -33 38 0 40 2 43 33 2 18 10 36 18 39 16 6 19 55 5 82 -5 9 -11 64 -13
120 -3 93 -5 105 -25 118 -19 13 -24 12 -42 -6 -16 -16 -19 -28 -15 -53 6 -30
5 -32 -9 -18 -13 12 -17 40 -19 125 l-3 110 -35 0 c-34 0 -35 -1 -35 -40 0
-26 -4 -40 -12 -39 -7 1 -19 2 -27 3 -8 0 -16 16 -19 34 -20 112 -27 127 -57
127 -10 0 -22 -6 -28 -12z m46 -31 c2 -12 -3 -17 -17 -17 -12 0 -21 6 -21 13
0 31 32 34 38 4z m20 -84 c3 -32 2 -33 -37 -33 -38 0 -41 2 -41 28 0 37 8 44
45 40 26 -3 30 -7 33 -35z m-170 10 c-2 -10 -10 -18 -18 -18 -8 0 -16 8 -18
18 -2 12 3 17 18 17 15 0 20 -5 18 -17z m300 0 c-2 -10 -10 -18 -18 -18 -8 0
-16 8 -18 18 -2 12 3 17 18 17 15 0 20 -5 18 -17z m-300 -72 c2 -12 -6 -36
-17 -54 l-21 -32 0 51 c0 28 3 54 7 58 12 12 28 0 31 -23z m300 -32 l3 -54
-21 30 c-20 30 -26 66 -13 79 16 16 28 -5 31 -55z m19 -114 c56 -82 102 -153
102 -157 1 -5 -41 -8 -93 -8 l-94 0 -12 35 c-6 19 -20 41 -30 48 -13 9 -16 17
-9 27 25 41 -3 100 -49 100 -49 0 -79 -57 -53 -100 7 -10 4 -18 -9 -27 -10 -7
-24 -29 -30 -48 l-12 -35 -94 0 c-52 0 -94 2 -94 5 0 7 128 199 178 268 l34
48 82 -3 81 -3 102 -150z m-427 55 c0 -11 -6 -20 -14 -20 -18 0 -29 16 -21 30
11 18 35 11 35 -10z m515 0 c0 -8 -8 -16 -17 -18 -13 -2 -18 3 -18 18 0 15 5
20 18 18 9 -2 17 -10 17 -18z m-245 -44 c6 -8 10 -25 8 -38 -2 -19 -9 -23 -38
-23 -29 0 -36 4 -38 23 -6 44 41 70 68 38z m-265 -16 c4 -13 -2 -32 -17 -53
l-23 -32 -3 39 c-2 21 -1 44 2 52 8 21 34 17 41 -6z m511 6 c3 -8 4 -31 2 -52
l-3 -39 -23 32 c-15 21 -21 40 -17 53 7 23 33 27 41 6z m-228 -102 c20 -14 22
-24 22 -100 0 -49 -4 -84 -10 -84 -5 0 -10 25 -10 56 0 34 -4 53 -10 49 -5 -3
-10 -28 -10 -56 0 -48 -1 -49 -30 -49 -29 0 -30 1 -30 49 0 28 -4 53 -10 56
-6 4 -10 -15 -10 -49 0 -31 -4 -56 -10 -56 -6 0 -10 35 -10 84 0 76 2 86 22
100 12 9 34 16 48 16 14 0 36 -7 48 -16z m-148 -94 c0 -6 -40 -10 -100 -10
-60 0 -100 4 -100 10 0 6 40 10 100 10 60 0 100 -4 100 -10z m400 0 c0 -6 -40
-10 -100 -10 -60 0 -100 4 -100 10 0 6 40 10 100 10 60 0 100 -4 100 -10z
m-520 -65 c0 -20 -5 -25 -25 -25 -20 0 -25 5 -25 25 0 20 5 25 25 25 20 0 25
-5 25 -25z m490 0 c0 -20 -5 -25 -25 -25 -20 0 -25 5 -25 25 0 20 5 25 25 25
20 0 25 -5 25 -25z"/>
</g>
</svg>
