<?xml version="1.0" encoding="UTF-8"?>
<svg version="1.1" xmlns="http://www.w3.org/2000/svg" width="512" height="512">
<path d="M0 0 C1.85781912 -0.00461378 3.71563458 -0.01096989 5.57344246 -0.01890898 C10.65816123 -0.03555983 15.74257851 -0.0273752 20.82729816 -0.0149641 C26.31886621 -0.00589857 31.8103831 -0.01989081 37.30194092 -0.03088379 C48.05184083 -0.04865751 58.80162895 -0.0448341 69.55153322 -0.03323323 C78.28926796 -0.02419469 87.0269714 -0.02297673 95.76470947 -0.02732849 C97.00895569 -0.02794142 98.25320191 -0.02855436 99.53515255 -0.02918586 C102.06292265 -0.03046478 104.59069273 -0.03176163 107.1184628 -0.03307623 C130.1384765 -0.04415371 153.15844071 -0.03267166 176.17844227 -0.01170584 C197.17937825 0.00727567 218.18021721 0.00557712 239.18115234 -0.0135498 C262.79246202 -0.03498245 286.40373038 -0.04338006 310.01505089 -0.03110075 C312.53345107 -0.02982657 315.05185126 -0.02856909 317.57025146 -0.02732849 C318.80930839 -0.02671139 320.04836531 -0.02609429 321.32496941 -0.02545848 C330.05082702 -0.02200677 338.77665017 -0.02783011 347.50250244 -0.0372467 C358.13838433 -0.04847237 368.77414815 -0.04541458 379.41001654 -0.02412373 C384.83518566 -0.01362108 390.26015802 -0.00947826 395.68532562 -0.02272034 C400.65460224 -0.03466609 405.62350026 -0.02804551 410.59274268 -0.00681013 C412.38734494 -0.00235335 414.18197938 -0.0045895 415.97656083 -0.01431328 C429.96581032 -0.08428008 441.16264311 1.47968718 451.66748047 11.50793457 C461.11531049 21.40477038 463.27273251 31.89293534 463.18505859 45.25012207 C463.19049264 46.59349318 463.19762243 47.93685832 463.20629883 49.2802124 C463.22438329 52.89603821 463.21752715 56.51140254 463.20478249 60.12723541 C463.19457684 63.93106733 463.20406897 67.73486264 463.21032715 71.53869629 C463.21758173 77.92369601 463.20807371 84.30850999 463.18896484 90.69348145 C463.16720019 98.05029373 463.17425312 105.40666242 463.19627047 112.76346397 C463.21448725 119.1069433 463.21695229 125.45028994 463.20651579 131.793787 C463.20031516 135.57062666 463.19934963 139.34725858 463.21266174 143.12408447 C463.22431174 146.67679104 463.2160304 150.2289319 463.19308472 153.78157806 C463.18536907 155.68899278 463.197075 157.59645598 463.20959473 159.50384521 C463.09377637 171.41886533 459.96780162 180.81314271 451.66748047 189.50793457 C440.9523976 199.73688892 429.40592292 201.1145811 415.13964844 201.15246582 C413.49745948 201.17101795 411.85528745 201.19112179 410.21313477 201.21264648 C405.78357664 201.26473743 401.35425968 201.29083664 396.92444372 201.30868912 C394.15216368 201.32046645 391.37994776 201.33689452 388.60770035 201.35470581 C379.91898281 201.40927314 371.23041403 201.44801492 362.54153717 201.46351337 C352.5364207 201.48146352 342.53348279 201.55182755 332.52902877 201.66751575 C324.77412075 201.75406068 317.01982536 201.7943336 309.2644397 201.79967785 C304.64068638 201.80386131 300.01899003 201.82729036 295.39574814 201.8989563 C291.04929683 201.96503772 286.7064406 201.97344268 282.35966492 201.93840027 C280.77013102 201.93532736 279.18040044 201.95258289 277.59135818 201.99223328 C265.60386166 202.27369769 265.60386166 202.27369769 260.79697037 197.89035034 C258.4325072 194.95653562 256.57958075 191.75070684 254.66748047 188.50793457 C245.40396706 177.3338799 231.89459168 170.0419789 217.66748047 167.50793457 C198.51831532 166.07476179 182.43431998 168.48862149 166.94482422 180.64465332 C160.94924502 185.82635299 155.39271821 191.64877776 151.49198151 198.60387421 C149.66748047 200.50793457 149.66748047 200.50793457 146.70534515 201.01129913 C144.87258907 201.01356129 144.87258907 201.01356129 143.00280762 201.01586914 C142.32196877 201.0221091 141.64112992 201.02834907 140.9396596 201.03477812 C138.6526199 201.05076383 136.3666379 201.03808274 134.07958984 201.0255127 C132.44183733 201.03093179 130.80408969 201.03805324 129.16635132 201.04675293 C124.71126603 201.06502622 120.25655032 201.05789933 115.80145836 201.04523659 C111.13541028 201.03511591 106.46939404 201.04450094 101.80334473 201.05078125 C93.95819421 201.05806616 86.1131941 201.04845392 78.26806641 201.02941895 C69.216426 201.00770919 60.16514682 201.0146551 51.11351538 201.03672457 C43.3349721 201.05492715 35.5565371 201.0574114 27.77797937 201.04696989 C23.13583628 201.04075377 18.49386237 201.03984605 13.85173035 201.05311584 C9.47839269 201.06474234 5.10551566 201.05652557 0.73222733 201.03353882 C-0.86602899 201.02828518 -2.46432458 201.02970762 -4.06256485 201.03858948 C-17.50248424 201.10634222 -28.28397293 199.10059248 -38.33251953 189.50793457 C-47.78034956 179.61109876 -49.93777157 169.1229338 -49.85009766 155.76574707 C-49.8555317 154.42237596 -49.86266149 153.07901082 -49.87133789 151.73565674 C-49.88942235 148.11983093 -49.88256622 144.5044666 -49.86982155 140.88863373 C-49.85961591 137.08480181 -49.86910804 133.2810065 -49.87536621 129.47717285 C-49.8826208 123.09217313 -49.87311277 116.70735915 -49.85400391 110.3223877 C-49.83223925 102.96557541 -49.83929219 95.60920672 -49.86130953 88.25240517 C-49.87952631 81.90892584 -49.88199135 75.5655792 -49.87155485 69.22208214 C-49.86535422 65.44524248 -49.86438869 61.66861056 -49.87770081 57.89178467 C-49.8893508 54.3390781 -49.88106946 50.78693724 -49.85812378 47.23429108 C-49.85040813 45.32687636 -49.86211407 43.41941316 -49.87463379 41.51202393 C-49.75881543 29.59700381 -46.63284068 20.20272643 -38.33251953 11.50793457 C-27.03991575 0.72766064 -14.86532243 -0.08054646 0 0 Z M19.66748047 53.50793457 C16.97085383 58.56716086 16.23038449 62.80133566 16.27929688 68.53527832 C16.27403992 69.3053421 16.26878296 70.07540588 16.2633667 70.86880493 C16.25024696 73.39455926 16.25887594 75.9196747 16.26904297 78.44543457 C16.26701992 80.21228149 16.26410656 81.9791276 16.26034546 83.74597168 C16.25593298 87.44112126 16.26231838 91.13605263 16.27636719 94.83117676 C16.29345846 99.55548982 16.28361149 104.27929149 16.2656498 109.00358582 C16.2547828 112.64969704 16.25827165 116.29568804 16.26603317 119.94180298 C16.26802712 121.68323834 16.26560432 123.42468479 16.25859451 125.16610718 C16.25093181 127.60456036 16.26265081 130.042198 16.27929688 132.48059082 C16.27322418 133.19248566 16.26715149 133.90438049 16.26089478 134.6378479 C16.3245391 139.69840512 17.30651922 143.11450318 19.66748047 147.50793457 C24.51673471 150.4219241 28.89754533 150.9260157 34.43701172 150.72277832 C35.51857796 150.69734703 35.51857796 150.69734703 36.62199402 150.67140198 C38.13909702 150.63112835 39.65600537 150.58278419 41.17260742 150.5267334 C43.46331941 150.44602161 45.75270154 150.40206192 48.04443359 150.3614502 C58.6991167 150.0826588 68.06416418 148.75006488 76.13623047 141.21105957 C82.89510878 133.69353165 85.1623557 125.83608792 84.97998047 115.82824707 C84.2364874 107.92863321 81.08621335 102.71802317 75.80419922 97.02355957 C74.66748047 95.50793457 74.66748047 95.50793457 74.66748047 92.94543457 C74.99748047 92.14105957 75.32748047 91.33668457 75.66748047 90.50793457 C78.68674271 83.04858081 78.76872141 75.65392447 75.91748047 68.13293457 C72.36942297 60.3761468 67.4890912 55.95388969 59.66748047 52.50793457 C52.49150395 50.48077202 45.39737793 50.1710833 37.97998047 50.19543457 C36.98675781 50.17932129 35.99353516 50.16320801 34.97021484 50.14660645 C29.15103196 50.14273988 24.62898235 50.31514633 19.66748047 53.50793457 Z M129.66748047 55.50793457 C128.82185547 55.93203613 127.97623047 56.3561377 127.10498047 56.79309082 C114.83765254 63.50646083 107.32146738 73.49938414 102.66748047 86.50793457 C98.80666905 99.97595857 100.91094197 112.5530263 107.23730469 124.75964355 C114.05713964 137.02432271 125.16774678 145.11195318 138.61938477 149.08435059 C152.78427631 152.01391154 166.4099354 149.1929124 178.54248047 141.63293457 C188.47412801 134.45605058 196.12210415 124.5040803 199.22998047 112.46105957 C201.5622226 96.71842521 199.19176815 82.55973621 189.66748047 69.50793457 C184.57706945 63.36433506 178.75509407 59.11036073 171.66748047 55.50793457 C170.88244141 55.09285645 170.09740234 54.67777832 169.28857422 54.25012207 C157.46385688 48.95768207 141.07254243 49.48651205 129.66748047 55.50793457 Z M244.66748047 55.50793457 C243.81025391 55.9436377 242.95302734 56.37934082 242.06982422 56.82824707 C229.61173666 63.70556238 221.52156091 74.47950422 217.36279297 88.03918457 C214.40990461 102.77044784 216.85213674 116.51599836 224.97998047 129.19543457 C230.29631957 136.48078816 236.66102383 141.43848744 244.66748047 145.50793457 C245.45251953 145.9230127 246.23755859 146.33809082 247.04638672 146.76574707 C257.19387139 151.30750077 271.28731473 151.44451498 281.79248047 147.88293457 C283.44234977 147.14449541 285.06951273 146.35283705 286.66748047 145.50793457 C287.52470703 145.07223145 288.38193359 144.63652832 289.26513672 144.18762207 C299.06476482 138.77787262 305.62147583 131.43572476 310.66748047 121.50793457 C311.08255859 120.72289551 311.49763672 119.93785645 311.92529297 119.12902832 C316.46704667 108.98154365 316.60406087 94.88810031 313.04248047 84.38293457 C312.30404131 82.73306527 311.51238295 81.10590231 310.66748047 79.50793457 C310.23177734 78.65070801 309.79607422 77.79348145 309.34716797 76.91027832 C303.93741852 67.11065022 296.59527066 60.55393921 286.66748047 55.50793457 C285.88244141 55.09285645 285.09740234 54.67777832 284.28857422 54.25012207 C272.46928488 48.9601115 256.06618879 49.48103132 244.66748047 55.50793457 Z M331.66748047 56.50793457 C331.17296703 59.55207418 330.98191058 62.03483775 331.02050781 65.07434082 C331.01174622 65.9253537 331.00298462 66.77636658 330.99395752 67.65316772 C330.97199422 70.4594457 330.98650495 73.26414126 331.00341797 76.07043457 C331.00004894 78.02429506 330.9951956 79.97815351 330.98892212 81.93200684 C330.98155496 86.0242511 330.99225134 90.11594918 331.015625 94.20812988 C331.0441126 99.45086643 331.02770781 104.69232321 330.99776268 109.93501282 C330.97968553 113.9688479 330.98544967 118.0023801 330.99840164 122.03622437 C331.0017345 123.96910758 330.99765281 125.9020184 330.98600388 127.83486938 C330.97328824 130.53782874 330.9926811 133.23872264 331.02050781 135.94152832 C331.01038666 136.73856171 331.0002655 137.53559509 330.98983765 138.35678101 C331.0675898 142.43815826 331.48489752 144.28125916 334.07901001 147.50183105 C337.30589492 150.00271537 338.80444524 150.24915416 342.73388672 150.00402832 C346.0498277 149.15327174 347.64187719 147.14735703 349.66748047 144.50793457 C350.6191673 141.65287408 350.85757507 139.59856175 350.98388672 136.62121582 C351.02578125 135.68342285 351.06767578 134.74562988 351.11083984 133.77941895 C351.15015625 132.8029541 351.18947266 131.82648926 351.22998047 130.82043457 C351.27316406 129.83236816 351.31634766 128.84430176 351.36083984 127.82629395 C351.46689701 125.38697911 351.5689576 122.94756344 351.66748047 120.50793457 C359.89683428 128.14633402 368.10643856 135.78575188 375.94775391 143.82531738 C379.4096109 147.35160407 381.48269634 149.37416862 386.54248047 149.94543457 C389.88395751 149.84062809 390.72566373 149.46914573 393.66748047 147.50793457 C395.71448481 144.43742807 396.5286473 142.33823331 396.27685547 138.61730957 C394.63310787 132.92741402 389.43191344 129.15927494 385.09716797 125.44543457 C379.20033011 120.32158276 373.8076231 114.67874701 368.35107422 109.09558105 C366.96349045 107.67798654 365.56949629 106.26667552 364.17529297 104.85559082 C363.35689941 104.02035889 362.53850586 103.18512695 361.6953125 102.32458496 C359.87296476 100.28551501 359.87296476 100.28551501 357.66748047 100.50793457 C358.99385597 97.49285661 360.31262364 95.70947326 362.85498047 93.63293457 C367.75611483 89.49201266 372.41202593 85.11170623 377.07714844 80.70935059 C380.62355649 77.37383655 384.22941902 74.17769584 387.97998047 71.07043457 C391.73669637 67.73981121 393.29231604 65.57265438 393.66748047 60.50793457 C392.21548313 56.4576262 391.26689755 54.90754596 387.66748047 52.50793457 C384.36307882 51.87024303 382.8241877 51.65142186 379.66748047 52.50793457 C375.94058936 55.09640672 372.87111432 58.3087876 369.66748047 61.50793457 C367.41419004 63.63125337 365.13393615 65.72473912 362.85498047 67.82043457 C362.31591064 68.32349121 361.77684082 68.82654785 361.22143555 69.34484863 C358.1395478 72.21203233 354.99281349 74.92019852 351.66748047 77.50793457 C351.63009766 76.27816895 351.59271484 75.04840332 351.55419922 73.78137207 C351.48851019 72.14853056 351.42206388 70.51571939 351.35498047 68.88293457 C351.33242188 68.07469238 351.30986328 67.2664502 351.28662109 66.43371582 C351.06386176 61.45200715 350.44971967 57.8035533 347.66748047 53.50793457 C344.49929291 51.39580953 342.53528795 51.17636993 338.80029297 50.94934082 C335.31522254 51.86209736 333.89676677 53.72913429 331.66748047 56.50793457 Z " fill="#000000" transform="translate(49.33251953125,-0.5079345703125)"/>
<path d="M0 0 C0.61875 0.4125 1.2375 0.825 1.875 1.25 C2.555625 1.6625 3.23625 2.075 3.9375 2.5 C11.2937973 7.4041982 16.61324042 14.70450404 18.875 23.25 C19.15259292 26.72212896 19.12786976 30.18007332 19.10205078 33.66162109 C19.10234283 34.69637573 19.10263489 35.73113037 19.10293579 36.79724121 C19.10154618 40.2060596 19.0860021 43.61465745 19.0703125 47.0234375 C19.06658107 49.39140707 19.06373471 51.75937819 19.06173706 54.12734985 C19.0541109 60.35146366 19.03447103 66.57548371 19.0123291 72.79956055 C18.99184883 79.15412122 18.98273067 85.50869707 18.97265625 91.86328125 C18.95122427 104.32556196 18.91710051 116.78777318 18.875 129.25 C19.71560392 129.36821452 19.71560392 129.36821452 20.57318974 129.48881721 C35.7173066 131.62310547 50.81273871 133.9525399 65.89770508 136.47412109 C68.51937297 136.91000301 71.14125627 137.3415777 73.76489258 137.76513672 C98.82288253 141.8255672 121.06375425 146.26984148 137.1875 167.6875 C145.77768171 180.1571186 149.35102807 192.31622946 149.30859375 207.453125 C149.3138356 208.57458923 149.31907745 209.69605347 149.32447815 210.85150146 C149.33085653 213.20779601 149.32961618 215.56412257 149.32104492 217.92041016 C149.31255376 221.47748072 149.34132825 225.03293182 149.37304688 228.58984375 C149.42272992 244.30246651 148.35665689 258.54352823 141.3125 272.875 C140.97516846 273.57246338 140.63783691 274.26992676 140.2902832 274.98852539 C131.55825739 292.2427574 117.08741872 305.64379064 99.875 314.25 C97.64714816 314.35959635 95.4159537 314.40279113 93.18545532 314.4173584 C92.48984226 314.42315178 91.79422919 314.42894517 91.07753694 314.43491411 C88.73480355 314.45302397 86.39209434 314.46386023 84.04931641 314.47460938 C82.37392963 314.48578193 80.6985451 314.49729517 79.02316284 314.50912476 C73.50766118 314.54573491 67.99213645 314.57091796 62.4765625 314.59375 C61.5377069 314.59769587 60.59885131 314.60164173 59.63154554 314.60570717 C50.77252895 314.64214374 41.91350439 314.67358369 33.05443764 314.69481659 C21.73261781 314.72235348 10.41142707 314.77303138 -0.91013086 314.85529089 C-8.87461766 314.9111906 -16.83893444 314.94006874 -24.80361044 314.9492898 C-29.55728128 314.95553277 -34.31021525 314.97352333 -39.06367111 315.02067566 C-43.543848 315.0645631 -48.02289076 315.07476328 -52.50324631 315.06004715 C-54.13983945 315.06037401 -55.77648368 315.07250979 -57.41287994 315.09789658 C-67.98573949 315.25314265 -75.36927269 313.70907541 -84.125 307.25 C-85.20136719 306.49074219 -86.27773437 305.73148437 -87.38671875 304.94921875 C-99.52915279 294.8794063 -108.377629 283.74504758 -114.875 269.375 C-115.15682129 268.76382324 -115.43864258 268.15264648 -115.72900391 267.52294922 C-121.76013396 253.58473762 -121.58497547 239.67274803 -121.55859375 224.765625 C-121.56316259 222.49647873 -121.56847024 220.22733384 -121.57447815 217.95819092 C-121.58337044 213.22451112 -121.58102808 208.49100043 -121.57104492 203.75732422 C-121.559523 197.70607093 -121.57983633 191.65539842 -121.60896206 185.60422134 C-121.6273399 180.92692393 -121.62702903 176.24976557 -121.62132454 171.5724411 C-121.62117172 169.34141979 -121.62718329 167.11038883 -121.63961601 164.87940216 C-121.65456496 161.75940238 -121.64382195 158.64047501 -121.62670898 155.52050781 C-121.63637695 154.61016281 -121.64604492 153.69981781 -121.65600586 152.7618866 C-121.54752126 143.27217862 -117.67346386 135.1049877 -111.125 128.25 C-100.9018489 119.79175772 -92.05663132 118.39955641 -79.18603516 119.0546875 C-74.90053998 119.46079934 -71.66634537 120.88910309 -68.125 123.25 C-67.444375 123.6625 -66.76375 124.075 -66.0625 124.5 C-59.73468848 128.71854102 -54.54348378 134.99454867 -52.125 142.25 C-52.12353344 141.64500199 -52.12206688 141.04000399 -52.12055588 140.41667271 C-52.083437 125.66741441 -52.02435516 110.91835582 -51.94109726 96.16928959 C-51.90135821 89.03660284 -51.86893979 81.90402561 -51.85400391 74.77124023 C-51.8409606 68.5512737 -51.81392819 62.33154863 -51.77038693 56.11171812 C-51.74783158 52.82101609 -51.73417287 49.5306745 -51.73311615 46.23988533 C-51.73074521 42.55807605 -51.70365234 38.87720396 -51.67089844 35.19555664 C-51.67844398 33.57498604 -51.67844398 33.57498604 -51.68614197 31.92167664 C-51.54787147 21.8475972 -48.12598488 13.57869056 -41.125 6.25 C-30.16467897 -2.81814834 -13.30378283 -7.48337784 0 0 Z " fill="#000000" transform="translate(272.125,197.75)"/>
<path d="M0 0 C4.82917798 2.80066148 8.40701995 5.70052522 11.375 10.4375 C11.78492188 11.05882813 12.19484375 11.68015625 12.6171875 12.3203125 C16.46526139 19.29992238 16.62554524 27.69795045 15.375 35.4375 C12.97401829 43.01374263 9.16193839 49.18510292 2.375 53.4375 C1.75367188 53.84742188 1.13234375 54.25734375 0.4921875 54.6796875 C-6.48742238 58.52776139 -14.88545045 58.68804524 -22.625 57.4375 C-31.32898818 54.67912525 -37.3108471 50.18632186 -41.83203125 42.34375 C-46.14380955 33.68972146 -46.3800097 25.58135249 -43.765625 16.3359375 C-40.93176605 9.13483017 -35.52155253 3.02255549 -28.625 -0.5625 C-19.48857192 -4.22489129 -8.90840448 -4.1758146 0 0 Z " fill="#000000" transform="translate(214.625,72.5625)"/>
<path d="M0 0 C6.99308849 4.9543511 11.02502116 11.67206551 13.02734375 19.98828125 C14.41633415 29.04066696 12.18257153 36.87718309 7.26171875 44.50390625 C2.17242531 51.00876475 -5.07539114 55.17187385 -13.26953125 56.26953125 C-23.49659921 56.42217406 -31.33889328 55.01045511 -39.4375 48.125 C-41.03376416 46.42549488 -42.27086764 44.73982176 -43.5078125 42.765625 C-43.91773438 42.14429688 -44.32765625 41.52296875 -44.75 40.8828125 C-48.59807389 33.90320262 -48.75835774 25.50517455 -47.5078125 17.765625 C-45.10683079 10.18938237 -41.29475089 4.01802208 -34.5078125 -0.234375 C-33.88648438 -0.64429687 -33.26515625 -1.05421875 -32.625 -1.4765625 C-22.455808 -7.08315125 -9.72162164 -5.63801363 0 0 Z " fill="#000000" transform="translate(332.5078125,74.234375)"/>
<path d="M0 0 C2.990625 -0.061875 5.98125 -0.12375 9.0625 -0.1875 C9.99070557 -0.21481201 10.91891113 -0.24212402 11.87524414 -0.27026367 C17.37272841 -0.32489195 21.14405817 0.37602102 26 3 C29.23014356 6.54273809 29.5689765 10.14211538 29.4296875 14.77734375 C28.69387346 18.58350909 26.77545759 20.35670706 24 23 C21.49502996 24.25248502 19.79146726 24.11374406 16.9921875 24.09765625 C16.1038623 24.09515869 15.21553711 24.09266113 14.30029297 24.09008789 C13.16994629 24.08098389 12.03959961 24.07187988 10.875 24.0625 C5.491875 24.0315625 5.491875 24.0315625 0 24 C0 16.08 0 8.16 0 0 Z " fill="#000000" transform="translate(86,106)"/>
<path d="M0 0 C2.91821463 -0.13510253 5.83017652 -0.2341305 8.75 -0.3125 C9.9875 -0.3753418 9.9875 -0.3753418 11.25 -0.43945312 C17.37774094 -0.56299629 17.37774094 -0.56299629 20.54296875 2.30078125 C22.47416208 5.87840751 22.64453079 7.98958619 22 12 C19.99065813 14.73317959 18.4380917 16.7137481 14.99584961 17.39892578 C12.70126394 17.49200107 10.48146165 17.43651572 8.1875 17.3125 C4.1346875 17.1578125 4.1346875 17.1578125 0 17 C0 11.39 0 5.78 0 0 Z " fill="#000000" transform="translate(86,70)"/>
</svg>
