<?xml version="1.0" standalone="no"?>
<!DOCTYPE svg PUBLIC "-//W3C//DTD SVG 20010904//EN"
 "http://www.w3.org/TR/2001/REC-SVG-20010904/DTD/svg10.dtd">
<svg version="1.0" xmlns="http://www.w3.org/2000/svg"
 width="710.000000pt" height="980.000000pt" viewBox="0 0 710.000000 980.000000"
 preserveAspectRatio="xMidYMid meet">

<g transform="translate(0.000000,980.000000) scale(0.100000,-0.100000)"
fill="#000000" stroke="none">
<path d="M702 9122 l-702 -676 0 -4223 0 -4223 3550 0 3550 0 0 4223 0 4223
-705 677 -705 677 -2142 -1 -2143 -1 -703 -676z m6058 -4897 l0 -3885 -3210 0
-3210 0 0 3885 0 3885 3210 0 3210 0 0 -3885z"/>
<path d="M680 6080 l0 -1690 2870 0 2870 0 0 1690 0 1690 -2870 0 -2870 0 0
-1690z m2360 680 l0 -340 510 0 510 0 0 340 0 340 165 0 165 0 0 -510 0 -510
-840 0 -840 0 0 510 0 510 165 0 165 0 0 -340z"/>
<path d="M680 2365 l0 -1685 2870 0 2870 0 0 1685 0 1685 -2870 0 -2870 0 0
-1685z m2362 678 l3 -338 505 0 505 0 3 338 2 337 165 0 165 0 0 -510 0 -510
-840 0 -840 0 0 510 0 510 165 0 165 0 2 -337z"/>
</g>
</svg>
