<?xml version="1.0" encoding="UTF-8"?>
<svg version="1.1" xmlns="http://www.w3.org/2000/svg" width="512" height="512">
<path d="M0 0 C112.86 0 225.72 0 342 0 C342 54.78 342 109.56 342 166 C276.0625 166.375 276.0625 166.375 255.26977539 166.47802734 C249.10008127 166.51795205 249.10008127 166.51795205 242.93040466 166.56045532 C240.18992424 166.57810005 237.44959473 166.59265072 234.70909119 166.60269165 C230.54951888 166.61814612 226.39019074 166.64914381 222.23071289 166.68115234 C221.01710366 166.68332449 219.80349443 166.68549664 218.55310917 166.6877346 C206.41604281 166.70235874 206.41604281 166.70235874 195.6875 171.75 C194.76517578 172.45382812 194.76517578 172.45382812 193.82421875 173.171875 C188.32301366 178.68485997 186.36400845 185.16153316 183.98828125 192.41796875 C183.22362345 194.66396305 182.45729668 196.9093897 181.68945312 199.15429688 C180.49272017 202.6780516 179.30707227 206.2040863 178.1496582 209.7409668 C177.02370901 213.16591725 175.85380709 216.57313775 174.67578125 219.98046875 C174.34105301 221.03985153 174.00632477 222.09923431 173.66145325 223.1907196 C171.13734685 230.33429731 171.13734685 230.33429731 167.79118347 232.29284668 C165.53242918 233.03863379 163.32720878 233.52703422 161 234 C158.52708778 235.39670214 158.52708778 235.39670214 156.6875 237.125 C156.07261719 237.64320313 155.45773438 238.16140625 154.82421875 238.6953125 C153.01491334 240.98115874 152.03851559 242.98211067 150.88598633 245.64404297 C150.53119705 246.45855927 150.17640778 247.27307556 149.81086731 248.11227417 C149.5432811 248.73522369 149.27569489 249.35817322 149 250 C131.53641139 250.11692542 114.07294535 250.20503306 96.60905457 250.25906086 C88.49981584 250.2848164 80.39082066 250.31991583 72.28173828 250.37719727 C65.21187612 250.42711388 58.1421904 250.45931029 51.07215691 250.47044247 C47.33031236 250.4769474 43.58897246 250.49217935 39.84729004 250.52865028 C35.66489505 250.56908432 31.48337118 250.56994416 27.30078125 250.56762695 C25.45040001 250.59459152 25.45040001 250.59459152 23.56263733 250.62210083 C16.41168208 250.57924577 11.48098157 249.7922449 6 245 C2.29526157 241.00278222 -0.25197652 237.36188566 -0.24609566 231.82210922 C-0.2500774 230.99180443 -0.25405914 230.16149963 -0.25816154 229.30603409 C-0.25233622 228.3996809 -0.24651089 227.49332771 -0.24050903 226.55950928 C-0.24222107 225.59470642 -0.24393311 224.62990356 -0.24569702 223.63586426 C-0.24901418 220.38444695 -0.2379493 217.1332345 -0.22705078 213.88183594 C-0.2264383 211.51844413 -0.22670478 209.15505195 -0.2277813 206.79166031 C-0.22823356 200.45194705 -0.21662621 194.11230901 -0.20256042 187.77261353 C-0.19118627 181.82773598 -0.19063504 175.8828769 -0.18920898 169.93798828 C-0.17870655 152.54198219 -0.15078434 135.14599015 -0.125 117.75 C-0.08375 78.8925 -0.0425 40.035 0 0 Z M17 15 C14.95668033 17.07097697 14.95668033 17.07097697 14 20 C14.69940936 23.26814404 14.69940936 23.26814404 16 26 C17.98 26 19.96 26 22 26 C23.30059064 23.26814404 23.30059064 23.26814404 24 20 C23.04331967 17.07097697 23.04331967 17.07097697 21 15 C19.68 15 18.36 15 17 15 Z M98.6796875 33.578125 C96.02978501 37.69195963 95.37255769 41.07009612 96 46 C97.74627587 50.8507663 100.42916993 54.51671353 105 57 C109.41809642 58.29059089 112.86974673 58.36950588 117.25 56.9375 C121.04422108 54.26429878 123.89871529 51.20256941 126 47 C126.5195099 40.86978318 125.93443208 36.84143511 122 32 C118.63655927 28.94943748 116.02851867 27.73545337 111.5625 27.5 C106.19413264 27.78016732 102.16565158 29.41146971 98.6796875 33.578125 Z M157.625 34.625 C155.41681599 39.21122833 155.21785954 42.99756 156 48 C158.2092646 52.97084534 161.1442504 55.18092683 165.9921875 57.30078125 C169.7492736 58.60918283 172.3125689 58.71239795 176.0078125 57.15234375 C180.58596473 54.66054503 183.40751019 51.9429017 185.43359375 47.109375 C186.41334287 43.46065414 186.34935471 40.53940685 185 37 C182.38179345 32.92456534 179.55301718 29.8177771 175 28 C167.33850475 26.80202074 162.83059568 28.87144688 157.625 34.625 Z M217.6796875 33.578125 C215.02978501 37.69195963 214.37255769 41.07009612 215 46 C216.74627587 50.8507663 219.42916993 54.51671353 224 57 C228.41809642 58.29059089 231.86974673 58.36950588 236.25 56.9375 C240.04422108 54.26429878 242.89871529 51.20256941 245 47 C245.5195099 40.86978318 244.93443208 36.84143511 241 32 C237.63655927 28.94943748 235.02851867 27.73545337 230.5625 27.5 C225.19413264 27.78016732 221.16565158 29.41146971 217.6796875 33.578125 Z M276.625 34.625 C274.41681599 39.21122833 274.21785954 42.99756 275 48 C277.2092646 52.97084534 280.1442504 55.18092683 284.9921875 57.30078125 C288.7492736 58.60918283 291.3125689 58.71239795 295.0078125 57.15234375 C299.58596473 54.66054503 302.40751019 51.9429017 304.43359375 47.109375 C305.41334287 43.46065414 305.34935471 40.53940685 304 37 C301.38179345 32.92456534 298.55301718 29.8177771 294 28 C286.33850475 26.80202074 281.83059568 28.87144688 276.625 34.625 Z M15 37 C13.79891232 40.60326304 13.86024354 43.88678251 13.87060547 47.63671875 C13.86885315 48.4126236 13.86710083 49.18852844 13.86529541 49.98794556 C13.8608917 52.55448641 13.86380969 55.12095844 13.8671875 57.6875 C13.86651404 59.46964532 13.86554365 61.25179054 13.86428833 63.03393555 C13.86281336 66.7697029 13.86495947 70.50544636 13.86962891 74.24121094 C13.87532607 79.03313601 13.87204599 83.82500508 13.86605644 88.6169281 C13.86244542 92.29716413 13.86359192 95.97738686 13.86618423 99.65762329 C13.866852 101.42469286 13.86603031 103.19176363 13.86370468 104.95883179 C13.86116932 107.42701424 13.86503129 109.89510559 13.87060547 112.36328125 C13.86858124 113.09584137 13.86655701 113.82840149 13.86447144 114.5831604 C13.8773919 117.66649148 14.01685449 120.05056347 15 123 C19.10223585 124.01540112 19.10223585 124.01540112 23 123 C24.19885324 119.40344027 24.14758448 116.12261443 24.14526367 112.37915039 C24.14862228 111.60485184 24.1519809 110.83055328 24.15544128 110.03279114 C24.16494677 107.47106323 24.16689414 104.9094007 24.16796875 102.34765625 C24.17118141 100.56790642 24.17454549 98.78815686 24.17805481 97.00840759 C24.18404492 93.27683907 24.18589481 89.5452937 24.18530273 85.8137207 C24.18520107 81.0308204 24.19885799 76.24806842 24.21607494 71.46520329 C24.22718959 67.78921323 24.22922211 64.1132591 24.22869301 60.43725395 C24.22987375 58.67379685 24.2343008 56.91033885 24.24202538 55.14689827 C24.25181526 52.68124094 24.24895133 50.2159066 24.24291992 47.75024414 C24.25134918 46.65679687 24.25134918 46.65679687 24.25994873 45.54125977 C24.23725465 41.8930154 24.14063525 39.0395148 22 36 C18.63310099 34.47946496 18.22486487 34.85009009 15 37 Z M98.5625 83.5625 C95.87547705 87.7542558 95.59081218 91.08974615 96 96 C97.94039832 101.31114739 100.95237825 104.37523669 106 107 C110.56455662 108.48844238 113.78296309 107.88512358 118.1015625 106.08984375 C122.15353752 103.76370994 124.52469613 100.42591161 126 96 C126.50201239 89.87544882 126.09928344 86.87482354 122 82 C118.72824085 78.63735865 115.86381692 77.21248641 111.12109375 76.8359375 C105.91181813 77.2388649 102.07965321 79.86497996 98.5625 83.5625 Z M159.125 82.5625 C155.62779894 86.57399533 155.71468284 89.35442584 155.7890625 94.53125 C156.20170459 99.36069072 158.4460446 101.45835472 161.8125 104.75 C165.20717299 107.14623976 166.88394918 107.91599896 171 108 C176.53812088 107.02839984 179.48608144 105.3923982 183 101 C185.46722682 96.86142598 186.30823192 94.05518407 185.4375 89.375 C184.33566349 85.47210922 183.038763 82.79237681 180 80 C171.93513804 75.82355363 166.00141848 76.43351831 159.125 82.5625 Z M220 81 C216.56198932 84.61431892 215.16794026 87.25342126 214.6875 92.25 C215.06284508 96.75414096 216.18529762 99.49899673 219 103 C222.84008284 106.17224234 225.98487557 107.89969751 231 108 C237.19268411 106.72970582 240.46022483 104.14876388 244 99 C245.24115911 95.27652266 245.5420862 91.86785828 245 88 C243.30755015 84.66892836 243.30755015 84.66892836 241 82 C240.54625 81.4225 240.0925 80.845 239.625 80.25 C232.98490615 75.1422355 226.42976426 76.90713158 220 81 Z M278.125 82.5625 C274.62779894 86.57399533 274.71468284 89.35442584 274.7890625 94.53125 C275.20170459 99.36069072 277.4460446 101.45835472 280.8125 104.75 C284.20717299 107.14623976 285.88394918 107.91599896 290 108 C295.53812088 107.02839984 298.48608144 105.3923982 302 101 C304.46722682 96.86142598 305.30823192 94.05518407 304.4375 89.375 C303.33566349 85.47210922 302.038763 82.79237681 299 80 C290.93513804 75.82355363 285.00141848 76.43351831 278.125 82.5625 Z M40.125 82.5625 C36.57412519 86.63556228 36.47554549 89.79876519 36.53125 95.09765625 C37.33938285 100.10134548 40.01029854 103.03039266 44 106 C48.09476507 108.05538012 51.18434965 108.12442124 55.6875 107.4375 C60.76265423 105.23507458 63.13272155 102.45478965 65.9375 97.75 C67.30457158 92.92504149 66.89786714 89.61034392 65 85 C61.6323653 80.57396583 58.11730435 78.80053301 53 77 C47.67100259 77 43.99428455 79.11378986 40.125 82.5625 Z M41 131 C38.18938628 134.47628539 36.10524656 137.4743979 36 142 C37.26201473 148.63771209 39.43638217 152.21200488 45 156 C48.47370107 157.73685053 52.20190812 157.46115112 56 157 C60.3510757 154.78341426 63.44162365 152.1692059 66 148 C67.50383126 142.26664332 67.17232677 138.91553399 64.24609375 133.76171875 C61.74268441 130.22241589 59.06624537 128.35541512 55 127 C49.2147402 126.44372502 45.46420416 127.39983536 41 131 Z M99.1875 133 C95.96963802 137.41306786 95.4691052 140.6025695 96 146 C97.82802681 150.29428712 100.00309388 153.29108898 103.8125 156 C109.20144275 157.6906487 113.68474822 157.95385635 118.75 155.4375 C122.44379914 153.02850056 124.56994491 150.1632373 126 146 C126.96454866 140.94854928 126.12635801 136.84870053 123.328125 132.54296875 C120.0047718 128.6820143 116.4296167 127.17556696 111.4375 126.5625 C106.1213042 127.23910674 102.67999063 128.97713114 99.1875 133 Z M157.5625 133.625 C155.44496328 138.19887932 155.19355402 142.04035723 156 147 C158.61320839 152.13308791 161.53937241 155.1797908 167 157 C173.12455118 157.50201239 176.12517646 157.09928344 181 153 C184.36264135 149.72824085 185.78751359 146.86381692 186.1640625 142.12109375 C185.7611351 136.91181813 183.13502004 133.07965321 179.4375 129.5625 C171.23545294 124.30477752 163.67635587 127.04084752 157.5625 133.625 Z M219.55859375 131.43359375 C216.49378223 134.93498811 215.16823287 137.57002062 214.625 142.1875 C215.11299366 147.14876886 216.79130567 150.23105746 220 154 C224.09935945 156.98135233 227.86728448 157.54369357 232.82421875 157.34375 C237.00111816 156.68384489 239.62469737 154.69235059 242.25390625 151.45703125 C245.23478037 146.91820898 245.68061657 143.35985552 245 138 C242.75363633 133.67366998 240.19054939 130.51432963 236 128 C229.62065901 126.27521521 224.47261584 126.54620592 219.55859375 131.43359375 Z M276 134.1875 C274.4689473 138.49358573 274.35534956 142.48744689 275 147 C277.32923179 151.83763525 280.18147775 154.63619663 285 157 C289.7162216 157.82978405 293.03024677 157.49402523 297.3125 155.3125 C301.89435738 151.36997155 304.66421061 148.41684736 305.1640625 142.12109375 C304.7611351 136.91181813 302.13502004 133.07965321 298.4375 129.5625 C290.02838616 124.17204241 282.22379238 127.38022708 276 134.1875 Z M38.6875 183.9375 C36.26774362 188.32890972 35.71500126 190.54909731 36.6875 195.5 C38.60724875 200.61933001 40.49300509 203.13057986 45.25 205.875 C51.09138263 207.62741479 54.94179038 207.08735603 60.3125 204.25 C64.1757936 201.01561466 65.6148828 198.48545207 66.875 193.625 C67.02845041 189.17493821 66.2131178 186.85510843 64 183 C60.33252629 179.21547926 57.05833171 176.85902773 51.75 176.6875 C45.62184728 176.77602869 42.44647765 179.16258245 38.6875 183.9375 Z M99 182 C96.05062741 186.37648836 95.43948203 189.76849896 96 195 C97.74627587 199.8507663 100.42916993 203.51671353 105 206 C109.41809642 207.29059089 112.86974673 207.36950588 117.25 205.9375 C121.04422108 203.26429878 123.89871529 200.20256941 126 196 C126.37381854 190.39272183 126.18490827 186.83227462 123 182 C118.13127404 177.60627169 115.05854281 176.58169315 108.609375 176.65625 C104.44484796 177.20487033 101.85325581 178.98822998 99 182 Z " fill="#000000" transform="translate(41,128)"/>
<path d="M0 0 C1.80791016 0.00966797 1.80791016 0.00966797 3.65234375 0.01953125 C5.53373047 0.04466797 5.53373047 0.04466797 7.453125 0.0703125 C8.72285156 0.07933594 9.99257812 0.08835938 11.30078125 0.09765625 C14.43508593 0.12122245 17.56901041 0.15412418 20.703125 0.1953125 C20.72818115 0.78546143 20.7532373 1.37561035 20.77905273 1.98364258 C20.89512552 4.65858064 21.01780072 7.3331763 21.140625 10.0078125 C21.17994141 10.93658203 21.21925781 11.86535156 21.25976562 12.82226562 C21.30166016 13.71494141 21.34355469 14.60761719 21.38671875 15.52734375 C21.44170532 16.76061401 21.44170532 16.76061401 21.49780273 18.01879883 C21.63740272 20.37436428 21.63740272 20.37436428 22.703125 23.1953125 C25.46312798 24.11531349 27.09892337 24.32168234 29.94335938 24.32470703 C30.79434204 24.32785919 31.64532471 24.33101135 32.52209473 24.33425903 C33.43777222 24.3322348 34.35344971 24.33021057 35.296875 24.328125 C36.23994507 24.32908173 37.18301514 24.33003845 38.15466309 24.33102417 C40.14851956 24.33170465 42.14237825 24.32985954 44.13623047 24.32568359 C47.19113127 24.3203335 50.24588504 24.32563305 53.30078125 24.33203125 C55.23697949 24.33137045 57.17317764 24.33008923 59.109375 24.328125 C60.02505249 24.33014923 60.94072998 24.33217346 61.88415527 24.33425903 C62.73513794 24.33110687 63.58612061 24.32795471 64.46289062 24.32470703 C65.21107056 24.32391144 65.95925049 24.32311584 66.73010254 24.32229614 C68.91647541 24.26566442 68.91647541 24.26566442 71.703125 23.1953125 C74.13668663 15.8946276 73.3188252 7.88130859 73.703125 0.1953125 C124.193125 0.1953125 174.683125 0.1953125 226.703125 0.1953125 C227.033125 7.7853125 227.363125 15.3753125 227.703125 23.1953125 C230.84293368 23.98026467 232.92442858 24.32136615 236.05688477 24.32470703 C237.33324547 24.32943527 237.33324547 24.32943527 238.63539124 24.33425903 C239.54590744 24.3322348 240.45642365 24.33021057 241.39453125 24.328125 C242.33618637 24.32908173 243.27784149 24.33003845 244.24803162 24.33102417 C246.23591173 24.33170388 248.22379409 24.32986419 250.21166992 24.32568359 C253.25770027 24.32032644 256.30358357 24.32563875 259.34960938 24.33203125 C261.28125033 24.33137055 263.21289119 24.33008955 265.14453125 24.328125 C266.05707169 24.33014923 266.96961212 24.33217346 267.9098053 24.33425903 C269.18143776 24.32953079 269.18143776 24.32953079 270.47875977 24.32470703 C271.22392349 24.32391144 271.96908722 24.32311584 272.73683167 24.32229614 C274.91752974 24.26519513 274.91752974 24.26519513 277.703125 23.1953125 C278.6332139 20.4050458 278.89011269 18.43001708 279.01953125 15.52734375 C279.06142578 14.63466797 279.10332031 13.74199219 279.14648438 12.82226562 C279.20545898 11.42911133 279.20545898 11.42911133 279.265625 10.0078125 C279.30880859 9.06744141 279.35199219 8.12707031 279.39648438 7.15820312 C279.50251165 4.83738396 279.60457529 2.51645925 279.703125 0.1953125 C284.03622828 0.0783475 288.3689208 0.0078036 292.703125 -0.0546875 C293.92386719 -0.08820312 295.14460938 -0.12171875 296.40234375 -0.15625 C303.35940929 -0.23146152 309.0014501 -0.10264587 314.703125 4.1953125 C316.76171875 6.23046875 316.76171875 6.23046875 318.140625 8.2578125 C318.61371094 8.92941406 319.08679688 9.60101563 319.57421875 10.29296875 C327.05129137 22.89274165 321.703125 39.54400225 321.703125 54.1953125 C208.843125 54.1953125 95.983125 54.1953125 -20.296875 54.1953125 C-20.296875 14.1953125 -20.296875 14.1953125 -15.296875 6.1953125 C-10.34430338 1.60512417 -6.75505141 -0.0637269 0 0 Z " fill="#000000" transform="translate(61.296875,63.8046875)"/>
<path d="M0 0 C0.70972242 -0.00453111 1.41944483 -0.00906223 2.15067399 -0.01373065 C4.52891109 -0.02639123 6.90691969 -0.02475323 9.28518677 -0.02310181 C10.99030858 -0.02908602 12.69542768 -0.03589132 14.40054321 -0.04345703 C19.03280735 -0.06113495 23.66499762 -0.06581316 28.29729223 -0.0670886 C32.16410609 -0.06898744 36.03090273 -0.07634479 39.89770997 -0.08343279 C49.02069287 -0.09972108 58.1436363 -0.10460134 67.26663208 -0.10317993 C76.67793277 -0.10197829 86.08900421 -0.12308354 95.50024688 -0.15466726 C103.58019556 -0.18081707 111.6600693 -0.19154777 119.74005997 -0.19026911 C124.56593324 -0.18975911 129.3916028 -0.19546359 134.21743393 -0.21662521 C138.75652413 -0.23598586 143.29521583 -0.23614703 147.83432007 -0.22159195 C149.49919339 -0.21950006 151.1640915 -0.22422739 152.82892227 -0.23631287 C155.10418987 -0.25175846 157.37808217 -0.24246336 159.65332031 -0.22705078 C161.56193501 -0.22868508 161.56193501 -0.22868508 163.50910759 -0.2303524 C168.3604 0.47071915 171.47717914 2.61561719 174.71556091 6.23858643 C176.01324969 8.36510136 176.91518033 10.38702948 177.76296997 12.72885132 C178.24312813 14.04008469 178.24312813 14.04008469 178.73298645 15.37780762 C179.06748306 16.31333466 179.40197968 17.24886169 179.74661255 18.21273804 C180.09750443 19.17896088 180.4483963 20.14518372 180.80992126 21.14068604 C181.54847795 23.17867225 182.28373125 25.21785821 183.01589966 27.25814819 C184.14041432 30.39039362 185.27564801 33.51859244 186.41262817 36.64633179 C187.12875518 38.62657202 187.84427121 40.60703333 188.55911255 42.58773804 C188.89968185 43.52731354 189.24025116 44.46688904 189.59114075 45.43493652 C189.9017897 46.30278778 190.21243866 47.17063904 190.53250122 48.06478882 C190.80769089 48.82993805 191.08288055 49.59508728 191.3664093 50.38342285 C191.9536438 52.26742554 191.9536438 52.26742554 191.9536438 54.26742554 C118.0336438 54.26742554 44.1136438 54.26742554 -32.0463562 54.26742554 C-14.93346663 4.830189 -14.93346663 4.830189 -9.36053276 1.15596581 C-6.17178659 -0.06837007 -3.41477009 0.00900027 0 0 Z " fill="#000000" transform="translate(252.04635620117188,303.7325744628906)"/>
<path d="M0 0 C1.30762125 -0.00576172 1.30762125 -0.00576172 2.64165908 -0.01163983 C4.08691027 -0.01034011 4.08691027 -0.01034011 5.56135845 -0.00901413 C6.58042756 -0.01198525 7.59949667 -0.01495637 8.64944667 -0.01801753 C12.08645664 -0.0267343 15.52343191 -0.02821529 18.96045208 -0.02970505 C21.41565813 -0.03433111 23.87086345 -0.03935548 26.32606792 -0.04475021 C33.01202373 -0.05789646 39.69796587 -0.0643599 46.3839314 -0.06876087 C50.55731951 -0.0715217 54.73070529 -0.07575877 58.90409184 -0.08026505 C70.45492215 -0.09245929 82.0057506 -0.10275814 93.55658722 -0.10614014 C94.29616198 -0.1063597 95.03573674 -0.10657927 95.79772286 -0.10680549 C96.90976811 -0.10713291 96.90976811 -0.10713291 98.04427892 -0.10746694 C99.54661008 -0.10791041 101.04894124 -0.10835697 102.55127239 -0.10880661 C103.29648353 -0.10902804 104.04169467 -0.10924947 104.80948796 -0.10947761 C116.88548229 -0.11342589 128.96141627 -0.13088012 141.03738729 -0.15416613 C153.43032316 -0.17787078 165.82322874 -0.19034159 178.21618766 -0.19150805 C185.1765011 -0.19242534 192.13673596 -0.19819106 199.09702778 -0.21632767 C205.64278982 -0.23332376 212.18842886 -0.2349879 218.73421574 -0.22618866 C221.13966934 -0.22541564 223.54513082 -0.22979569 225.95056438 -0.23964691 C229.22880527 -0.25228751 232.50651055 -0.24653235 235.78474712 -0.23606491 C236.74155575 -0.24412132 237.69836438 -0.25217772 238.68416721 -0.26047826 C243.55695982 -0.22397074 246.93385329 -0.0886747 250.86352825 3.13142776 C253.52234013 6.62514856 254.23587297 9.12020189 254.20410442 13.47249222 C254.20387783 14.51319366 254.20365124 15.55389511 254.20341778 16.62613297 C254.18793392 17.73776306 254.17245007 18.84939316 254.156497 19.99470901 C254.15225216 21.14182861 254.14800732 22.28894821 254.14363384 23.47082901 C254.12686309 27.12876898 254.08921261 30.78615476 254.05102825 34.44392776 C254.0359794 36.92634167 254.02229134 39.40876423 254.01001263 41.89119339 C253.97696474 47.97146008 253.92678065 54.05140432 253.86352825 60.13142776 C244.79751238 60.52705703 235.73450338 60.82818147 226.66171074 61.01223469 C222.44729863 61.10062803 218.23882589 61.22020356 214.02783489 61.41389847 C186.67361551 62.64089472 186.67361551 62.64089472 180.27130413 58.42409134 C176.47940559 54.44668523 174.24391802 50.01827135 172.63960552 44.78863907 C172.38350002 44.24175934 172.12739452 43.69487961 171.86352825 43.13142776 C169.13321233 42.22132246 167.54088382 42.00416496 164.73329449 41.997715 C163.89353573 41.99345001 163.05377697 41.98918503 162.18857098 41.9847908 C161.27056713 41.98524399 160.35256329 41.98569717 159.40674114 41.98616409 C157.9526862 41.98112617 157.9526862 41.98112617 156.4692564 41.97598648 C153.25821948 41.96647136 150.04723466 41.96453314 146.8361845 41.96345901 C144.60802978 41.96024704 142.37987527 41.95688301 140.151721 41.95337296 C135.47858472 41.94738043 130.80546693 41.9455332 126.13232708 41.94612503 C120.13875596 41.94622671 114.14530316 41.93256923 108.1517601 41.91535282 C103.54930862 41.9042453 98.94688586 41.90220543 94.34442234 41.90273476 C92.1343924 41.90155296 89.92436176 41.89712004 87.71434498 41.88940239 C84.62604845 41.87962693 81.53801041 41.88247085 78.44970989 41.88850784 C77.53373028 41.88288834 76.61775066 41.87726883 75.67401409 41.87147903 C74.83143551 41.87567352 73.98885693 41.87986801 73.12074566 41.88418961 C72.3908949 41.88364484 71.66104414 41.88310007 70.90907669 41.8825388 C68.459376 42.18060237 66.92313812 42.7693911 64.86352825 44.13142776 C64.01022595 46.06824958 63.15831067 48.00571167 62.31770611 49.94807816 C60.20382275 54.26902543 57.95178154 57.4985793 53.86352825 60.13142776 C43.79255601 62.77480801 32.81900695 61.71110464 22.51312542 61.23006058 C18.6059169 61.06516415 14.69705487 60.99306059 10.78735638 60.91267776 C3.14154822 60.74202283 -4.49604771 60.46973002 -12.13647175 60.13142776 C-12.28894221 52.85427656 -12.39382193 45.57753906 -12.46606159 38.29915237 C-12.49618437 35.82471193 -12.53709151 33.35037783 -12.58910847 30.87630081 C-12.66211645 27.31394051 -12.69597493 23.75299495 -12.72240925 20.19002151 C-12.75337696 19.08871399 -12.78434467 17.98740646 -12.8162508 16.85272598 C-12.81901107 10.51493899 -12.17589297 6.89628572 -7.62368488 2.33639908 C-5.01570433 0.22335847 -3.27964726 0.00540771 0 0 Z M0.86352825 17.13142776 C-2.22260311 22.33927444 -3.03617476 27.201567 -2.13647175 33.13142776 C-0.31885539 39.06031922 3.35874759 44.1563828 8.86352825 47.13142776 C16.6070009 49.5348573 24.38957869 49.47082161 32.42187786 49.44710159 C34.6887109 49.44390991 36.95427475 49.46757876 39.22095013 49.49275589 C40.67081829 49.49502639 42.12068993 49.49573354 43.5705595 49.49470901 C44.87484905 49.49768997 46.1791386 49.50067093 47.52295208 49.50374222 C51.01995566 49.11399359 52.46407266 48.66572201 54.86352825 46.13142776 C55.76391896 39.45580372 53.8971354 32.5603103 52.67602825 26.00642776 C52.47944622 24.8398262 52.28286419 23.67322464 52.08032513 22.47127151 C51.21823805 17.83987447 50.33816751 13.97333546 48.015872 9.85408401 C42.78173287 6.99379237 37.4654993 7.53432855 31.61352825 7.69392776 C30.42372356 7.69972855 29.23391888 7.70552933 28.0080595 7.71150589 C16.86841912 7.86536833 8.46509503 8.36999751 0.86352825 17.13142776 Z M188.86352825 11.13142776 C187.88063089 13.52923769 187.88063089 13.52923769 187.4143095 16.28767776 C187.20612591 17.31119339 186.99794231 18.33470901 186.78345013 19.38924026 C186.58300091 20.45916214 186.38255169 21.52908401 186.17602825 22.63142776 C185.96397747 23.67041214 185.75192669 24.70939651 185.53345013 25.77986526 C184.19670004 32.54373639 183.34409599 39.25495578 182.86352825 46.13142776 C187.01161878 49.11811218 189.96876561 49.50672296 195.03540325 49.49470901 C195.71725689 49.49520752 196.39911053 49.49570602 197.1016264 49.49621964 C198.54051923 49.49388731 199.97941678 49.48420845 201.41821575 49.46760941 C203.59307713 49.44414838 205.76669844 49.44703838 207.94165325 49.45369339 C222.8412655 49.50512843 222.8412655 49.50512843 235.19946575 41.97517776 C239.74023369 36.94409217 240.4218036 32.40776963 240.20727825 25.81111526 C239.38377438 19.39152827 235.69202971 15.60024715 231.03540325 11.39314651 C223.62679553 7.08922512 214.89351148 7.7975876 206.61352825 7.81892776 C205.34766888 7.80281448 204.0818095 7.7867012 202.77759075 7.77009964 C201.56329388 7.76945511 200.348997 7.76881058 199.09790325 7.76814651 C197.99672161 7.76516556 196.89553997 7.7621846 195.76098919 7.75911331 C192.46360198 8.18281701 191.13878607 8.72423308 188.86352825 11.13142776 Z M67.86352825 10.13142776 C66.84812713 14.23366362 66.84812713 14.23366362 67.86352825 18.13142776 C71.88487816 19.47187773 75.75981988 19.27884945 79.95312786 19.27669144 C80.88348354 19.28005005 81.81383923 19.28340866 82.7723875 19.28686905 C85.85356251 19.29638257 88.93468321 19.29832231 92.015872 19.29939651 C94.15434574 19.30260861 96.29281926 19.30597264 98.43129253 19.30948257 C102.91611522 19.3154747 107.40091864 19.31732237 111.88574505 19.3167305 C117.63718159 19.31662882 123.38849482 19.33028621 129.13990211 19.34750271 C133.55706127 19.35861142 137.9741905 19.36065006 142.39136219 19.36012077 C144.51207753 19.3613024 146.6327936 19.36573434 148.75349522 19.37345314 C151.71726321 19.383231 154.68076195 19.38038375 157.64453411 19.37434769 C158.9623991 19.38277695 158.9623991 19.38277695 160.30688763 19.3913765 C161.11580959 19.38718201 161.92473156 19.38298752 162.75816631 19.37866592 C163.4585197 19.37921069 164.15887308 19.37975546 164.8804493 19.38031673 C167.20508784 19.08855987 168.83552667 18.27668822 170.86352825 17.13142776 C170.86352825 15.15142776 170.86352825 13.17142776 170.86352825 11.13142776 C168.03098135 9.53182154 166.00539537 8.88166376 162.75816631 8.88418961 C161.94924435 8.87999512 161.14032238 8.87580063 160.30688763 8.87147903 C158.98902264 8.87990829 158.98902264 8.87990829 157.64453411 8.88850784 C156.71242611 8.8866095 155.78031811 8.88471115 154.81996441 8.88275528 C151.73934801 8.87905098 148.65896744 8.88974645 145.578372 8.90095901 C143.43893238 8.90215107 141.29949223 8.90260392 139.1600523 8.90234756 C134.67698165 8.90391181 130.19399091 8.91219747 125.71094036 8.92561722 C119.95834199 8.94261716 114.20583138 8.94643121 108.45321083 8.94567204 C104.03609151 8.94594366 99.61899146 8.95142355 95.20187855 8.95867348 C93.0803425 8.96186013 90.95880428 8.96382754 88.83726597 8.96456718 C85.87584858 8.96673018 82.91452513 8.97547336 79.95312786 8.98616409 C79.07252697 8.98571091 78.19192608 8.98525772 77.28464031 8.9847908 C73.89850666 9.00270641 71.09807352 9.05324601 67.86352825 10.13142776 Z M67.86352825 26.13142776 C66.84812713 30.23366362 66.84812713 30.23366362 67.86352825 34.13142776 C71.88487816 35.47187773 75.75981988 35.27884945 79.95312786 35.27669144 C80.88348354 35.28005005 81.81383923 35.28340866 82.7723875 35.28686905 C85.85356251 35.29638257 88.93468321 35.29832231 92.015872 35.29939651 C94.15434574 35.30260861 96.29281926 35.30597264 98.43129253 35.30948257 C102.91611522 35.3154747 107.40091864 35.31732237 111.88574505 35.3167305 C117.63718159 35.31662882 123.38849482 35.33028621 129.13990211 35.34750271 C133.55706127 35.35861142 137.9741905 35.36065006 142.39136219 35.36012077 C144.51207753 35.3613024 146.6327936 35.36573434 148.75349522 35.37345314 C151.71726321 35.383231 154.68076195 35.38038375 157.64453411 35.37434769 C158.9623991 35.38277695 158.9623991 35.38277695 160.30688763 35.3913765 C161.11580959 35.38718201 161.92473156 35.38298752 162.75816631 35.37866592 C163.4585197 35.37921069 164.15887308 35.37975546 164.8804493 35.38031673 C167.20508784 35.08855987 168.83552667 34.27668822 170.86352825 33.13142776 C170.86352825 31.15142776 170.86352825 29.17142776 170.86352825 27.13142776 C168.03098135 25.53182154 166.00539537 24.88166376 162.75816631 24.88418961 C161.94924435 24.87999512 161.14032238 24.87580063 160.30688763 24.87147903 C158.98902264 24.87990829 158.98902264 24.87990829 157.64453411 24.88850784 C156.71242611 24.8866095 155.78031811 24.88471115 154.81996441 24.88275528 C151.73934801 24.87905098 148.65896744 24.88974645 145.578372 24.90095901 C143.43893238 24.90215107 141.29949223 24.90260392 139.1600523 24.90234756 C134.67698165 24.90391181 130.19399091 24.91219747 125.71094036 24.92561722 C119.95834199 24.94261716 114.20583138 24.94643121 108.45321083 24.94567204 C104.03609151 24.94594366 99.61899146 24.95142355 95.20187855 24.95867348 C93.0803425 24.96186013 90.95880428 24.96382754 88.83726597 24.96456718 C85.87584858 24.96673018 82.91452513 24.97547336 79.95312786 24.98616409 C79.07252697 24.98571091 78.19192608 24.98525772 77.28464031 24.9847908 C73.89850666 25.00270641 71.09807352 25.05324601 67.86352825 26.13142776 Z " fill="#000000" transform="translate(211.13647174835205,367.8685722351074)"/>
<path d="M0 0 C91.74 0 183.48 0 278 0 C278 5.28 278 10.56 278 16 C186.26 16 94.52 16 0 16 C0 10.72 0 5.44 0 0 Z " fill="#000000" transform="translate(193,438)"/>
<path d="M0 0 C4.7254854 4.86447027 5.46645295 8.44435316 5.46488953 15.07234192 C5.44940567 16.0964769 5.43392181 17.12061188 5.41796875 18.17578125 C5.41372391 19.23411667 5.40947906 20.29245209 5.40510559 21.38285828 C5.38834362 24.75550012 5.35069512 28.12753945 5.3125 31.5 C5.29744999 33.7897049 5.28376214 36.07941918 5.27148438 38.36914062 C5.24100302 43.97567801 5.18227497 49.58091639 5.125 55.1875 C-5.765 55.1875 -16.655 55.1875 -27.875 55.1875 C-27.99000875 48.47865651 -28.08948524 41.77325413 -28.1496582 35.06420898 C-28.17474947 32.78381743 -28.20883036 30.50350589 -28.25219727 28.22338867 C-28.31308395 24.9390892 -28.34126447 21.65585609 -28.36328125 18.37109375 C-28.38908768 17.35728134 -28.4148941 16.34346893 -28.44148254 15.29893494 C-28.44412758 8.57197876 -27.39896967 5.22288593 -22.875 0.1875 C-15.83396076 -5.22868403 -7.29833728 -4.60112567 0 0 Z " fill="#000000" transform="translate(325.875,23.8125)"/>
<path d="M0 0 C4.49648106 2.25797317 7.06735094 5.74087941 8.8046875 10.34375 C9.32418719 14.01009205 9.27225237 17.61185829 9.1953125 21.30859375 C9.18965271 22.34190323 9.18399292 23.37521271 9.17816162 24.43983459 C9.15587799 27.72078957 9.10569533 31.00062844 9.0546875 34.28125 C9.0346122 36.51365604 9.01636324 38.74607929 9 40.97851562 C8.95945115 46.43436341 8.88114278 51.88781631 8.8046875 57.34375 C-2.0853125 57.34375 -12.9753125 57.34375 -24.1953125 57.34375 C-24.31032125 50.63490651 -24.40979774 43.92950413 -24.4699707 37.22045898 C-24.49506197 34.94006743 -24.52914286 32.65975589 -24.57250977 30.37963867 C-24.63339645 27.0953392 -24.66157697 23.81210609 -24.68359375 20.52734375 C-24.70940018 19.51353134 -24.7352066 18.49971893 -24.76179504 17.45518494 C-24.76444048 10.72721233 -23.71821679 7.38080252 -19.1953125 2.34375 C-13.6919591 -1.95519539 -6.56671012 -1.96300231 0 0 Z " fill="#000000" transform="translate(116.1953125,21.65625)"/>
<path d="M0 0 C0.95628799 -0.00058411 1.91257599 -0.00116821 2.89784241 -0.00177002 C6.06352852 0.00102011 9.2282769 0.03215646 12.39379883 0.06347656 C14.58669012 0.07093563 16.77958807 0.07663014 18.9724884 0.08062744 C24.74797933 0.09590996 30.52306874 0.13521466 36.29840088 0.17944336 C42.19017098 0.22033945 48.08200587 0.23862637 53.97387695 0.25878906 C65.53720454 0.3017061 77.10023394 0.36998933 88.66333008 0.45410156 C90.31333008 3.42410156 91.96333008 6.39410156 93.66333008 9.45410156 C58.02333008 9.45410156 22.38333008 9.45410156 -14.33666992 9.45410156 C-10.81238196 0.64338165 -9.13398122 -0.14505155 0 0 Z " fill="#000000" transform="translate(290.336669921875,418.5458984375)"/>
<path d="M0 0 C11.22 0 22.44 0 34 0 C34.04125 4.08375 34.0825 8.1675 34.125 12.375 C34.14320801 13.66196777 34.16141602 14.94893555 34.18017578 16.27490234 C34.1851709 17.28504395 34.19016602 18.29518555 34.1953125 19.3359375 C34.21102295 20.89127197 34.21102295 20.89127197 34.22705078 22.47802734 C34 25 34 25 32 27 C27.72415127 27.39820611 23.43390651 27.32904395 19.14160156 27.31567383 C17.00794515 27.31251177 14.87567256 27.33597638 12.7421875 27.36132812 C11.39062675 27.36360088 10.03906227 27.36430472 8.6875 27.36328125 C7.45386719 27.36626221 6.22023438 27.36924316 4.94921875 27.37231445 C3.48935547 27.1880188 3.48935547 27.1880188 2 27 C-0.26598448 23.60102327 -0.23742654 22.43680827 -0.1953125 18.45703125 C-0.19031738 17.48999268 -0.18532227 16.5229541 -0.18017578 15.52661133 C-0.15286377 13.68812622 -0.15286377 13.68812622 -0.125 11.8125 C-0.08375 7.914375 -0.0425 4.01625 0 0 Z " fill="#000000" transform="translate(429,464)"/>
<path d="M0 0 C11.22 0 22.44 0 34 0 C34.04125 4.08375 34.0825 8.1675 34.125 12.375 C34.14320801 13.66196777 34.16141602 14.94893555 34.18017578 16.27490234 C34.1851709 17.28504395 34.19016602 18.29518555 34.1953125 19.3359375 C34.21102295 20.89127197 34.21102295 20.89127197 34.22705078 22.47802734 C34 25 34 25 32 27 C29.01904297 27.22705078 29.01904297 27.22705078 25.2421875 27.1953125 C24.57913605 27.1924826 23.91608459 27.18965271 23.23294067 27.18673706 C21.11344417 27.17553435 18.99436896 27.15043051 16.875 27.125 C15.43880818 27.11497028 14.00260975 27.10584441 12.56640625 27.09765625 C9.04413372 27.075595 5.52210797 27.04106494 2 27 C0.72464284 22.88928999 -0.25166198 19.25214156 -0.1953125 14.94140625 C-0.19031738 14.14677979 -0.18532227 13.35215332 -0.18017578 12.53344727 C-0.16196777 11.55303467 -0.14375977 10.57262207 -0.125 9.5625 C-0.063125 4.8290625 -0.063125 4.8290625 0 0 Z " fill="#000000" transform="translate(201,464)"/>
<path d="M0 0 C1.25361328 0.00644531 2.50722656 0.01289063 3.79882812 0.01953125 C5.76432617 0.04466797 5.76432617 0.04466797 7.76953125 0.0703125 C9.10481112 0.08034611 10.44009814 0.0894713 11.77539062 0.09765625 C15.0444514 0.12125958 18.31315153 0.15418656 21.58203125 0.1953125 C22.89964659 4.06643556 23.99209448 7.79170054 24.70703125 11.8203125 C24.95839844 13.20089844 24.95839844 13.20089844 25.21484375 14.609375 C25.58203125 17.1953125 25.58203125 17.1953125 25.58203125 21.1953125 C21.11635362 21.29449044 16.65126618 21.36692475 12.18481445 21.41503906 C10.66679715 21.43510453 9.14885666 21.46236384 7.63110352 21.49707031 C5.44398003 21.54581643 3.25788173 21.56833055 1.0703125 21.5859375 C-0.24412842 21.60688477 -1.55856934 21.62783203 -2.9128418 21.64941406 C-6.98118394 21.12234599 -8.59026133 20.11563978 -11.41796875 17.1953125 C-12.93996318 12.62932921 -13.16513609 8.79638536 -11.10546875 4.3828125 C-7.78470631 0.07812044 -5.16571895 -0.04674859 0 0 Z " fill="#000000" transform="translate(230.41796875,385.8046875)"/>
<path d="M0 0 C4.56228541 -0.11625936 9.12418928 -0.18727408 13.6875 -0.25 C14.98107422 -0.28351563 16.27464844 -0.31703125 17.60742188 -0.3515625 C18.85458984 -0.36445313 20.10175781 -0.37734375 21.38671875 -0.390625 C22.53358154 -0.41157227 23.68044434 -0.43251953 24.86206055 -0.45410156 C28.66442415 0.09615101 30.28125209 1.34271191 33 4 C34.72869779 7.45739557 34.48966895 11.21975568 34 15 C32.20606332 17.87029869 31.01736724 19.49131638 28 21 C25.59161322 21.08639869 23.21266119 21.11567764 20.8046875 21.09765625 C20.09724396 21.0962413 19.38980042 21.09482635 18.66091919 21.09336853 C16.39890331 21.087766 14.13698602 21.07521318 11.875 21.0625 C10.34244935 21.05748532 8.80989714 21.05292236 7.27734375 21.04882812 C3.51819112 21.03779577 -0.24088772 21.02052952 -4 21 C-3.39700836 13.76410027 -1.8849413 7.00629124 0 0 Z " fill="#000000" transform="translate(408,386)"/>
<path d="M0 0 C2 3 2 3 1.75 6.0625 C1 9 1 9 -1 11 C-4.5 11.25 -4.5 11.25 -8 11 C-10 9 -10 9 -10.3125 5.5625 C-10 2 -10 2 -8.9375 0 C-5.77203476 -1.63378851 -3.34979714 -0.85267564 0 0 Z " fill="#000000" transform="translate(335,265)"/>
<path d="M0 0 C3.4375 0.8125 3.4375 0.8125 5.4375 3.8125 C4.99305556 9.25694444 4.99305556 9.25694444 2.4375 11.8125 C-1.61511287 12.15740322 -3.11004176 12.11413882 -6.5625 9.8125 C-6.9609375 7.9375 -6.9609375 7.9375 -6.9375 5.8125 C-6.94523438 5.11125 -6.95296875 4.41 -6.9609375 3.6875 C-6.12233356 -0.25887146 -3.50338539 -0.1843887 0 0 Z " fill="#000000" transform="translate(212.5625,264.1875)"/>
<path d="M0 0 C1.875 1.125 1.875 1.125 3 3 C3.39365568 6.14924548 3.52854531 8.11909116 1.875 10.875 C-0.88090884 12.52854531 -2.85075452 12.39365568 -6 12 C-7.875 10.875 -7.875 10.875 -9 9 C-9.39365568 5.85075452 -9.52854531 3.88090884 -7.875 1.125 C-5.11909116 -0.52854531 -3.14924548 -0.39365568 0 0 Z " fill="#000000" transform="translate(155,264)"/>
<path d="M0 0 C2 3 2 3 1.75 6.0625 C1 9 1 9 -1 11 C-4.5 11.25 -4.5 11.25 -8 11 C-10 9 -10 9 -10.3125 5.5625 C-10 2 -10 2 -8.9375 0 C-5.77203476 -1.63378851 -3.34979714 -0.85267564 0 0 Z " fill="#000000" transform="translate(97,265)"/>
<path d="M0 0 C2 2 2 2 2.25 4.9375 C2 8 2 8 0 11 C-1.875 11.3984375 -1.875 11.3984375 -4 11.375 C-4.70125 11.38273438 -5.4025 11.39046875 -6.125 11.3984375 C-8 11 -8 11 -10 8 C-9.875 4.4375 -9.875 4.4375 -9 1 C-6.02630528 -1.54888119 -3.60280512 -1.13772793 0 0 Z " fill="#000000" transform="translate(275,215)"/>
<path d="M0 0 C2 2 2 2 2.25 4.9375 C2 8 2 8 0 11 C-1.875 11.3984375 -1.875 11.3984375 -4 11.375 C-4.70125 11.38273438 -5.4025 11.39046875 -6.125 11.3984375 C-8 11 -8 11 -10 8 C-9.875 4.4375 -9.875 4.4375 -9 1 C-6.02630528 -1.54888119 -3.60280512 -1.13772793 0 0 Z " fill="#000000" transform="translate(156,215)"/>
<path d="M0 0 C3.5625 0.375 3.5625 0.375 5.5625 2 C6.91448496 5.21096428 6.56701167 7.07446166 5.5625 10.375 C2.32996204 12.53002531 1.31099077 12.84356135 -2.4375 12.375 C-4.25 11.3125 -4.25 11.3125 -5.4375 9.375 C-5.75 5.8125 -5.75 5.8125 -5.4375 2.375 C-3.4375 0.375 -3.4375 0.375 0 0 Z " fill="#000000" transform="translate(92.4375,313.625)"/>
<path d="M0 0 C3.5625 0.375 3.5625 0.375 5.5625 2 C6.91448496 5.21096428 6.56701167 7.07446166 5.5625 10.375 C2.32996204 12.53002531 1.31099077 12.84356135 -2.4375 12.375 C-4.25 11.3125 -4.25 11.3125 -5.4375 9.375 C-5.75 5.8125 -5.75 5.8125 -5.4375 2.375 C-3.4375 0.375 -3.4375 0.375 0 0 Z " fill="#000000" transform="translate(330.4375,164.625)"/>
<path d="M0 0 C3.5625 0.375 3.5625 0.375 5.5625 2 C6.91448496 5.21096428 6.56701167 7.07446166 5.5625 10.375 C2.32996204 12.53002531 1.31099077 12.84356135 -2.4375 12.375 C-4.25 11.3125 -4.25 11.3125 -5.4375 9.375 C-5.75 5.8125 -5.75 5.8125 -5.4375 2.375 C-3.4375 0.375 -3.4375 0.375 0 0 Z " fill="#000000" transform="translate(211.4375,164.625)"/>
<path d="M0 0 C1.875 1.125 1.875 1.125 3 3 C3.4375 6 3.4375 6 3 9 C1.375 10.9375 1.375 10.9375 -1 12 C-4.125 11.875 -4.125 11.875 -7 11 C-9.15502531 7.76746204 -9.46856135 6.74849077 -9 3 C-6.73529086 -0.64869805 -4.03159541 -0.50394943 0 0 Z " fill="#000000" transform="translate(155,314)"/>
<path d="M0 0 C2.9375 0.75 2.9375 0.75 4.9375 2.75 C5.26765665 5.85347254 5.44281294 7.90781176 3.8125 10.625 C1.05659116 12.27854531 -0.91325452 12.14365568 -4.0625 11.75 C-6 10.6875 -6 10.6875 -7.0625 8.75 C-6.9375 5.1875 -6.9375 5.1875 -6.0625 1.75 C-3.0625 -0.25 -3.0625 -0.25 0 0 Z " fill="#000000" transform="translate(272.0625,264.25)"/>
<path d="M0 0 C1.875 1.125 1.875 1.125 3 3 C3.4375 6 3.4375 6 3 9 C1.375 10.9375 1.375 10.9375 -1 12 C-4.125 11.875 -4.125 11.875 -7 11 C-9.15502531 7.76746204 -9.46856135 6.74849077 -9 3 C-6.73529086 -0.64869805 -4.03159541 -0.50394943 0 0 Z " fill="#000000" transform="translate(274,165)"/>
<path d="M0 0 C1.875 1.125 1.875 1.125 3 3 C3.4375 6 3.4375 6 3 9 C1.375 10.9375 1.375 10.9375 -1 12 C-4.125 11.875 -4.125 11.875 -7 11 C-9.15502531 7.76746204 -9.46856135 6.74849077 -9 3 C-6.73529086 -0.64869805 -4.03159541 -0.50394943 0 0 Z " fill="#000000" transform="translate(155,165)"/>
<path d="M0 0 C1.875 1.75 1.875 1.75 3 4 C2.75925978 7.37036311 2.41201979 8.58798021 0 11 C-3.5 11.25 -3.5 11.25 -7 11 C-9 9 -9 9 -9.375 5.5625 C-9 2 -9 2 -7.3125 0 C-4.3354558 -1.28737047 -3.01564155 -1.15986213 0 0 Z " fill="#000000" transform="translate(334,215)"/>
<path d="M0 0 C1.875 1.75 1.875 1.75 3 4 C2.75925978 7.37036311 2.41201979 8.58798021 0 11 C-3.5 11.25 -3.5 11.25 -7 11 C-9 9 -9 9 -9.375 5.5625 C-9 2 -9 2 -7.3125 0 C-4.3354558 -1.28737047 -3.01564155 -1.15986213 0 0 Z " fill="#000000" transform="translate(215,215)"/>
<path d="M0 0 C1.875 1.75 1.875 1.75 3 4 C2.75925978 7.37036311 2.41201979 8.58798021 0 11 C-3.5 11.25 -3.5 11.25 -7 11 C-9 9 -9 9 -9.375 5.5625 C-9 2 -9 2 -7.3125 0 C-4.3354558 -1.28737047 -3.01564155 -1.15986213 0 0 Z " fill="#000000" transform="translate(96,215)"/>
</svg>
