<?xml version="1.0" standalone="no"?>
<!DOCTYPE svg PUBLIC "-//W3C//DTD SVG 20010904//EN"
 "http://www.w3.org/TR/2001/REC-SVG-20010904/DTD/svg10.dtd">
<svg version="1.0" xmlns="http://www.w3.org/2000/svg"
 width="320.000000pt" height="320.000000pt" viewBox="0 0 320.000000 320.000000"
 preserveAspectRatio="xMidYMid meet">

<g transform="translate(0.000000,320.000000) scale(0.100000,-0.100000)"
fill="#000000" stroke="none">
<path d="M875 2715 c-390 -167 -746 -320 -790 -339 l-80 -34 -3 -1081 -2
-1081 1600 0 1600 0 -2 1081 -3 1082 -140 59 c-77 33 -434 186 -793 339 -359
153 -658 279 -665 278 -7 0 -331 -137 -722 -304z m1424 -215 l691 -295 0 -912
0 -913 -1390 0 -1390 0 0 913 0 912 693 296 c380 163 695 296 698 295 4 0 318
-134 698 -296z"/>
<path d="M1242 2000 l3 -220 358 -3 357 -2 0 223 0 222 -360 0 -360 0 2 -220z"/>
<path d="M384 1597 c-2 -7 -3 -107 -2 -222 l3 -210 350 -3 c192 -1 354 -1 360
2 6 2 9 83 7 225 l-3 221 -355 0 c-278 0 -356 -3 -360 -13z"/>
<path d="M1240 1385 l0 -225 360 0 360 0 0 225 0 225 -360 0 -360 0 0 -225z"/>
<path d="M387 993 c-4 -3 -7 -105 -7 -225 l0 -218 360 0 359 0 3 221 c2 121 1
223 -1 225 -7 7 -707 4 -714 -3z"/>
<path d="M1240 775 l0 -225 360 0 360 0 0 225 0 225 -360 0 -360 0 0 -225z"/>
<path d="M2100 775 l0 -225 360 0 360 0 -2 223 -3 222 -357 3 -358 2 0 -225z"/>
</g>
</svg>
