<?xml version="1.0" standalone="no"?>
<!DOCTYPE svg PUBLIC "-//W3C//DTD SVG 20010904//EN"
 "http://www.w3.org/TR/2001/REC-SVG-20010904/DTD/svg10.dtd">
<svg version="1.0" xmlns="http://www.w3.org/2000/svg"
 width="500.000000pt" height="500.000000pt" viewBox="0 0 500.000000 500.000000"
 preserveAspectRatio="xMidYMid meet">

<g transform="translate(0.000000,500.000000) scale(0.100000,-0.100000)"
fill="#000000" stroke="none">
<path d="M627 4274 c-4 -4 -7 -801 -7 -1771 l0 -1764 107 3 c107 3 107 3 108
28 1 14 2 58 3 98 l2 72 1659 0 c1503 0 1659 -1 1665 -16 3 -9 6 -54 6 -100
l0 -84 105 0 105 0 0 1770 0 1770 -105 0 -104 0 -3 -102 -3 -103 -1662 -3
-1661 -2 -7 31 c-4 17 -5 63 -3 102 l3 72 -101 3 c-55 1 -103 0 -107 -4z
m3538 -436 c3 -13 4 -293 3 -623 l-3 -600 -1659 -3 c-913 -1 -1662 1 -1665 5
-4 5 -5 286 -3 625 l2 618 1660 0 1660 0 5 -22z m0 -2063 l0 -620 -1659 -3
c-913 -1 -1662 1 -1665 5 -4 5 -5 286 -3 626 l2 617 1663 -2 1662 -3 0 -620z"/>
<path d="M2108 3632 l-28 -24 0 -368 0 -369 23 -27 24 -27 377 -1 377 -1 19
25 c18 24 20 45 20 396 l0 371 -23 21 c-23 22 -29 22 -392 24 l-369 3 -28 -23z"/>
<path d="M3203 3652 c-32 -2 -48 -10 -63 -29 -20 -26 -21 -36 -18 -395 3 -362
3 -368 25 -389 21 -22 26 -22 397 -23 363 -1 376 0 395 19 24 25 23 9 22 426
-1 323 -2 348 -20 370 l-19 23 -338 1 c-187 0 -358 -1 -381 -3z"/>
<path d="M1083 2190 c-12 -5 -26 -18 -32 -29 -7 -13 -11 -147 -11 -389 l0
-369 23 -21 c23 -22 27 -22 399 -22 l377 0 20 26 c20 26 21 38 21 394 l0 368
-31 26 -31 26 -356 -1 c-196 0 -367 -4 -379 -9z"/>
<path d="M2111 2174 l-31 -26 0 -372 0 -373 23 -21 c23 -22 27 -22 398 -22
l376 0 21 23 c22 23 22 27 22 393 -1 274 -4 373 -13 385 -28 37 -48 39 -411
39 l-354 0 -31 -26z"/>
<path d="M3149 2170 l-30 -29 3 -371 3 -372 24 -19 c22 -18 44 -19 397 -19
371 0 373 0 394 22 19 21 20 33 20 399 l0 378 -26 20 c-26 20 -38 21 -391 21
l-365 0 -29 -30z"/>
</g>
</svg>
