<svg fill="#000000" height="200px" width="200px" version="1.1" id="Layer_1"
    xmlns="http://www.w3.org/2000/svg" xmlns:xlink="http://www.w3.org/1999/xlink"
    viewBox="0 0 512 512" xml:space="preserve"><g id="SVGRepo_bgCarrier" strokeWidth="0"></g><g id="SVGRepo_tracerCarrier" strokeLinecap="round" strokeLinejoin="round"></g><g id="SVGRepo_iconCarrier"> <g> <g> <path d="M396.724,140.724C396.724,63.128,333.596,0,256,0S115.276,63.128,115.276,140.724 c0,71.946,54.274,131.446,124.029,139.729v16.114c-21.22,7.023-36.579,27.036-36.579,50.581v111.578 C202.725,488.101,226.623,512,256,512s53.275-23.899,53.275-53.275V347.147c0-23.545-15.359-43.558-36.579-50.581v-16.112 C342.45,272.169,396.724,212.67,396.724,140.724z M256,68.689c25.243,0,45.779,20.537,45.779,45.778 c0,25.051-20.351,45.779-45.779,45.779c-25.465,0-45.779-20.765-45.779-45.779C210.221,89.226,230.757,68.689,256,68.689z M211.923,212.757c-12.842,0.001-20.873-13.933-14.458-25.042l7.405-12.827c29.14,24.733,72.46,25.283,102.252-0.012l7.412,12.838 c6.422,11.123-1.631,25.043-14.458,25.043H211.923z"></path> </g> </g> </g></svg>