<?xml version="1.0" encoding="UTF-8"?>
<svg version="1.1" xmlns="http://www.w3.org/2000/svg" width="512" height="512">
<path d="M0 0 C25.36508362 20.71973401 42.26977731 47.86223339 46.3125 80.7578125 C49.13725813 114.34104808 39.82251779 146.2413932 18.0625 172.1953125 C3.19840421 189.39529498 -16.24891546 201.51140363 -38 208.0078125 C-38.65194336 208.20270264 -39.30388672 208.39759277 -39.97558594 208.59838867 C-70.40808549 217.1401182 -102.43458385 212.28055474 -129.94165039 197.36376953 C-136.15478108 193.85275288 -141.80453971 189.7308329 -147.3125 185.1953125 C-148.23675781 184.43605469 -149.16101563 183.67679688 -150.11328125 182.89453125 C-173.2895693 162.86523563 -186.88363576 133.54435746 -189.3125 103.1953125 C-190.9787099 71.44329452 -181.26000143 39.94270748 -159.96484375 16.09375 C-159.08957031 15.13726562 -158.21429688 14.18078125 -157.3125 13.1953125 C-156.63316406 12.44507813 -155.95382813 11.69484375 -155.25390625 10.921875 C-115.46785356 -30.93205984 -45.30505779 -34.38330278 0 0 Z " fill="#000000" transform="translate(327.3125,54.8046875)"/>
<path d="M0 0 C-0.43705729 3.20508679 -0.88762075 6.39296782 -1.4765625 9.57421875 C-2.30035805 14.08050336 -3.0537129 18.42667568 -3.03515625 23.015625 C-3.04886119 33.6294772 -3.04886119 33.6294772 -5.8515625 37.66796875 C-7.40813613 39.13864451 -9.00846234 40.56434774 -10.6484375 41.94140625 C-18.64802382 48.94436636 -22.35276486 60.76652178 -24 71 C-24.10309321 73.91807318 -24.15712584 76.81260489 -24.16113281 79.73071289 C-24.16609772 80.59974243 -24.17106262 81.46877197 -24.17617798 82.36413574 C-24.19075761 85.23365072 -24.19759619 88.10311034 -24.203125 90.97265625 C-24.20888186 92.97700501 -24.21463952 94.98135376 -24.22039795 96.98570251 C-24.23089737 101.18960831 -24.23674632 105.39349505 -24.24023438 109.59741211 C-24.24570328 114.95795483 -24.26970149 120.31824153 -24.29820633 125.67870426 C-24.31692797 129.82167775 -24.32204346 133.96459088 -24.32357025 138.10760307 C-24.3265781 140.08216176 -24.3345427 142.05671987 -24.34775543 144.03123665 C-24.72362748 160.53932407 -24.72362748 160.53932407 -19.89971924 176.12147522 C-19 178 -19 178 -19 181 C-48.49554841 181.0913387 -77.99109011 181.16208422 -107.48675035 181.20426132 C-110.97253107 181.20926388 -114.4583115 181.21444119 -117.9440918 181.21972656 C-118.63801962 181.2207758 -119.33194745 181.22182505 -120.04690339 181.22290608 C-131.26863907 181.24029003 -142.49029241 181.27181656 -153.71197931 181.30861118 C-165.23476824 181.34607672 -176.75749936 181.36794847 -188.280348 181.37635398 C-194.74908722 181.38156351 -201.21763996 181.39378701 -207.68631935 181.42292023 C-213.77904186 181.45013706 -219.87150164 181.45843219 -225.96427917 181.45243073 C-228.19629025 181.45352814 -230.42831041 181.46144435 -232.66026878 181.4768219 C-248.27256922 181.57907985 -260.49173293 180.91186839 -272.5625 169.875 C-278.50672207 163.77261681 -282.07164191 155.9083705 -282.17700195 147.39355469 C-282.18983719 146.48450378 -282.20267242 145.57545288 -282.21589661 144.63885498 C-282.22328354 143.65975159 -282.23067047 142.68064819 -282.23828125 141.671875 C-282.246353 140.65007141 -282.25442474 139.62826782 -282.26274109 138.57550049 C-282.27657269 136.40679615 -282.28729898 134.23807012 -282.29516602 132.06933594 C-282.30661016 129.87786361 -282.32693958 127.68641746 -282.35668945 125.49511719 C-282.57906311 109.10158244 -282.14804318 93.81654566 -273.8125 79.1875 C-273.42304199 78.48157715 -273.03358398 77.7756543 -272.63232422 77.04833984 C-269.07377204 70.78259799 -264.90734267 65.28108069 -260 60 C-259.18015625 59.10023438 -258.3603125 58.20046875 -257.515625 57.2734375 C-222.69342568 20.69982578 -168.31474847 6.09650063 -120 -1 C-119.03529785 -1.15098145 -118.0705957 -1.30196289 -117.07666016 -1.45751953 C-79.19706112 -7.18300271 -37.73860043 -6.63323523 0 0 Z " fill="#000000" transform="translate(319,289)"/>
<path d="M0 0 C1.99678554 -0.00961959 3.99342981 -0.04077724 5.98999023 -0.07226562 C23.82367629 -0.14342248 38.05165252 5.09107598 51.02709961 17.57617188 C60.52097884 27.952495 66.6222676 41.18825651 66.56225586 55.29101562 C66.56013344 56.27922554 66.56013344 56.27922554 66.55796814 57.28739929 C66.55240461 59.375892 66.53985908 61.46427449 66.52709961 63.55273438 C66.52207989 64.97525886 66.51751781 66.39778504 66.51342773 67.8203125 C66.50244718 71.29365514 66.48520796 74.76693399 66.46459961 78.24023438 C67.24254883 78.53591309 68.02049805 78.8315918 68.82202148 79.13623047 C76.26364036 82.24515513 82.03970838 89.08721463 85.46459961 96.24023438 C89.34260491 106.01973402 88.92057812 116.11915263 88.89819336 126.45117188 C88.90276453 128.31003 88.90807286 130.16888644 88.91407776 132.02774048 C88.92297202 135.90918882 88.92062831 139.79043102 88.91064453 143.671875 C88.899165 148.61304952 88.91936976 153.55350825 88.94856167 158.49458885 C88.96702669 162.32966532 88.96661073 166.16457355 88.96092415 169.99968338 C88.96077216 171.81990182 88.96671347 173.64013257 88.97921562 175.46030807 C89.05869663 188.92706927 88.63597945 201.57460615 79.37475586 212.31054688 C69.76838971 222.01513762 58.83861671 225.31808701 45.36972046 225.38687134 C44.03078232 225.38619156 44.03078232 225.38619156 42.66479492 225.38549805 C41.7060849 225.38885666 40.74737488 225.39221527 39.75961304 225.39567566 C36.60397022 225.40514022 33.44838072 225.40712659 30.29272461 225.40820312 C28.08705626 225.41141911 25.88138812 225.41478343 23.67572021 225.41828918 C19.05586249 225.42426942 14.43602343 225.42613025 9.81616211 225.42553711 C3.91755914 225.42543562 -1.98092312 225.43907967 -7.87949753 225.45630932 C-12.43504376 225.46746853 -16.99056119 225.4694551 -21.54611969 225.46892738 C-23.71966212 225.4701019 -25.89320544 225.4744938 -28.06673431 225.48225975 C-31.11724621 225.49213786 -34.16750089 225.4891508 -37.21801758 225.4831543 C-38.10254608 225.4887738 -38.98707458 225.49439331 -39.89840698 225.50018311 C-51.8519292 225.4409467 -62.77318476 223.37842004 -71.86352539 215.12695312 C-80.38795889 205.9868661 -83.84099748 196.13272525 -83.82592773 183.7355957 C-83.83264496 182.9262558 -83.83936218 182.11691589 -83.84628296 181.28305054 C-83.8651504 178.62939163 -83.86918176 175.97598728 -83.87133789 173.32226562 C-83.8777748 171.45912069 -83.88450381 169.59597674 -83.89151001 167.73283386 C-83.90345555 163.83350281 -83.90719376 159.93426016 -83.90600586 156.03491211 C-83.9058031 151.07014318 -83.93307307 146.10594941 -83.96755028 141.14131641 C-83.98993386 137.29338547 -83.99383987 133.44559028 -83.99278641 129.59760094 C-83.99512639 127.76899934 -84.00385814 125.94039307 -84.01945114 124.11185646 C-84.12343354 110.65632698 -83.74083138 98.02232456 -74.54321289 87.25195312 C-71.1728015 83.87498452 -67.5712773 80.79656374 -63.53540039 78.24023438 C-62.87540039 78.24023438 -62.21540039 78.24023438 -61.53540039 78.24023438 C-61.55634766 77.39952393 -61.57729492 76.55881348 -61.59887695 75.69262695 C-61.66794416 72.5074486 -61.71762613 69.32265761 -61.75512695 66.13696289 C-61.77497306 64.77062247 -61.80205953 63.40436379 -61.8371582 62.03833008 C-62.25596968 45.29203011 -57.82819774 31.2628782 -46.84790039 18.49023438 C-33.98843819 5.01658891 -18.17183308 0.05276757 0 0 Z M-24.35571289 43.41992188 C-30.5995262 53.05441526 -29.53540039 62.90740687 -29.53540039 74.24023438 C-8.41540039 74.24023438 12.70459961 74.24023438 34.46459961 74.24023438 C35.03544207 55.57925035 35.03544207 55.57925035 26.46459961 40.24023438 C18.70062976 33.93366501 12.683247 32.9943197 2.90209961 32.86523438 C1.33105469 32.80916016 1.33105469 32.80916016 -0.27172852 32.75195312 C-10.12199326 32.6417575 -18.21990528 35.41217296 -24.35571289 43.41992188 Z M-9.34790039 128.42773438 C-14.12281655 134.56691229 -13.87481286 142.21221519 -13.84790039 149.67773438 C-13.86401367 150.56783203 -13.88012695 151.45792969 -13.89672852 152.375 C-13.90136113 158.71704562 -13.46209346 165.78001573 -9.18945312 170.83154297 C-5.03184308 174.49193923 -1.56167129 176.3487846 3.96459961 176.05273438 C9.82861953 174.69144404 13.1502503 172.2689023 16.46459961 167.24023438 C18.57414248 161.40885516 18.79912422 156.03212436 18.77709961 149.86523438 C18.79321289 148.970625 18.80932617 148.07601562 18.82592773 147.15429688 C18.83075838 140.50733314 18.26546506 133.6303919 13.88183594 128.32446289 C10.4878864 124.97388651 7.22155039 123.3217144 2.44506836 123.07226562 C-2.31033706 123.47558403 -5.66112048 125.56023889 -9.34790039 128.42773438 Z " fill="#000000" transform="translate(397.535400390625,255.759765625)"/>
</svg>
