<?xml version="1.0" encoding="UTF-8"?>
<svg version="1.1" xmlns="http://www.w3.org/2000/svg" width="512" height="512">
<path d="M0 0 C0.93199219 0.77730469 1.86398437 1.55460937 2.82421875 2.35546875 C3.80777344 3.16371094 4.79132813 3.97195312 5.8046875 4.8046875 C27.92555824 23.94939969 41.63466353 51.37866045 44.82421875 80.35546875 C46.61728806 114.35206278 38.60438805 144.01080853 16.82421875 170.35546875 C16.22867188 171.10441406 15.633125 171.85335937 15.01953125 172.625 C10.30272059 178.34610766 4.68521982 182.84951807 -1.17578125 187.35546875 C-2.34753906 188.268125 -2.34753906 188.268125 -3.54296875 189.19921875 C-28.75797805 207.87700341 -60.97306151 214.38931998 -91.7265625 210.09765625 C-122.10010065 205.33029942 -149.47295276 188.5243309 -167.98779297 164.00488281 C-183.13049859 142.98060842 -190.58422484 119.06643907 -190.55078125 93.23046875 C-190.55056976 92.55082062 -190.55035828 91.87117249 -190.55014038 91.17092896 C-190.51576588 80.07317683 -189.50270611 69.94909789 -186.17578125 59.35546875 C-185.82515625 58.16953125 -185.47453125 56.98359375 -185.11328125 55.76171875 C-175.91161531 27.38991544 -155.60188289 2.97749582 -129.20556641 -10.92993164 C-87.55028596 -32.00808474 -37.07130264 -29.38393838 0 0 Z " fill="#000000" transform="translate(318.17578125,50.64453125)"/>
<path d="M0 0 C1.162966 0.00040787 1.162966 0.00040787 2.34942627 0.00082397 C23.96981027 0.03537016 45.18798245 1.97489716 66.5625 5.1875 C66.5625 9.66874607 65.88052412 10.61381481 63.5 14.25 C55.93136224 26.85416147 48.23763973 44.89151912 49.99633789 59.88647461 C50.54973066 66.01532842 50.33187218 70.6231683 46.75109863 75.81274414 C41.15457557 82.42283887 34.80425622 88.30422537 28.44683838 94.16864014 C24.31410305 97.99775511 20.25500398 101.90519553 16.18883324 105.80467415 C14.78014177 107.14380043 13.35286689 108.4632927 11.92512512 109.78208923 C0.28315609 120.7346806 -4.15218809 131.5106605 -4.64282227 147.24829102 C-4.68393215 149.06257486 -4.72080132 150.87695869 -4.75390625 152.69140625 C-4.7850779 154.13724342 -4.7850779 154.13724342 -4.81687927 155.61228943 C-4.88168896 158.65812818 -4.94093716 161.70404495 -5 164.75 C-5.04325062 166.82878376 -5.08686688 168.90755994 -5.13085938 170.98632812 C-5.23729888 176.0533077 -5.33875453 181.12036488 -5.4375 186.1875 C-28.58621396 186.23427516 -51.73492009 186.26951587 -74.88367176 186.29112434 C-85.63266901 186.30142538 -96.38163686 186.31546328 -107.13061523 186.33837891 C-116.50228622 186.3583487 -125.87393591 186.37122496 -135.24562758 186.37567699 C-140.20524496 186.37827829 -145.16480139 186.38436801 -150.12439919 186.39896011 C-154.79877438 186.41260076 -159.47306391 186.41670959 -164.14745712 186.41371536 C-165.85698984 186.41426264 -167.56652561 186.41820127 -169.27604103 186.42591095 C-184.05591536 186.48926 -195.2223503 185.51162235 -207.625 177 C-215.7570656 168.8679344 -219.7219097 158.27026982 -219.8543396 146.85760498 C-219.84826691 146.01256409 -219.84219421 145.16752319 -219.8359375 144.296875 C-219.83880768 143.38979797 -219.84167786 142.48272095 -219.84463501 141.54815674 C-219.8466617 139.64228689 -219.84123038 137.73639557 -219.82861328 135.83056641 C-219.81261512 132.95816973 -219.82847116 130.08719606 -219.84765625 127.21484375 C-219.87838796 100.90537147 -211.89534822 80.07648045 -193.4375 61.1875 C-192.79167969 60.47980469 -192.14585937 59.77210938 -191.48046875 59.04296875 C-181.15050005 47.99282794 -167.7720047 40.06526481 -154.4375 33.1875 C-153.72674316 32.81915039 -153.01598633 32.45080078 -152.28369141 32.07128906 C-105.64154515 8.21748794 -51.96385751 -0.0696001 0 0 Z " fill="#000000" transform="translate(245.4375,278.8125)"/>
<path d="M0 0 C9.99456154 8.00924728 18.53421505 16.51714886 24.75 27.8125 C25.20890625 28.62203125 25.6678125 29.4315625 26.140625 30.265625 C37.03136674 50.60375717 38.64930796 74.8187621 32.1640625 96.79833984 C24.66106472 119.70679835 8.8651758 136.96928788 -12.25 148.125 C-21.69193504 152.6330857 -32.06765062 156.47473997 -42.6027832 155.25439453 C-52.92415843 154.3597757 -61.71120129 154.64797539 -69.94677734 161.53027344 C-76.3516069 167.18614651 -82.10185425 173.53577992 -87.80535889 179.88439941 C-91.07362864 183.49500578 -94.42785247 187.0256046 -97.77613544 190.56186104 C-100.3773559 193.31021451 -102.96156084 196.06889193 -105.50053406 198.87496948 C-105.97018585 199.38604248 -106.43983765 199.89711548 -106.92372131 200.42367554 C-108.1845165 201.79610549 -109.43517063 203.17783261 -110.6849823 204.56027222 C-115.28663902 208.600782 -119.99358132 210.1822466 -126.05834961 210.21655273 C-127.7005674 210.23557899 -127.7005674 210.23557899 -129.3759613 210.25498962 C-130.53966751 210.25205399 -131.70337372 210.24911835 -132.90234375 210.24609375 C-134.11644424 210.2513356 -135.33054474 210.25657745 -136.58143616 210.26197815 C-139.14241778 210.26838577 -141.70342888 210.26707775 -144.2644043 210.25854492 C-148.17094603 210.25003606 -152.07602443 210.27881554 -155.98242188 210.31054688 C-158.47656206 210.31215913 -160.97070483 210.31158089 -163.46484375 210.30859375 C-164.62652573 210.31982773 -165.7882077 210.33106171 -166.98509216 210.34263611 C-173.878655 210.28373784 -178.39402265 209.53073651 -184.25 205.8125 C-188.43598135 201.41185294 -189.36964778 198.11346373 -189.42700195 192.15112305 C-189.43983719 190.98949142 -189.45267242 189.8278598 -189.46589661 188.63102722 C-189.47328354 187.37478043 -189.48067047 186.11853363 -189.48828125 184.82421875 C-189.496353 183.53312698 -189.50442474 182.24203522 -189.51274109 180.91181946 C-189.52775386 178.1772983 -189.53759857 175.44280298 -189.54516602 172.70825195 C-189.55622291 169.21447547 -189.59061972 165.7213372 -189.63033772 162.22778606 C-189.66285029 158.88495631 -189.66728634 155.54219438 -189.67578125 152.19921875 C-189.69328934 150.94904465 -189.71079742 149.69887054 -189.72883606 148.41081238 C-189.72591049 147.23972427 -189.72298492 146.06863617 -189.7199707 144.86206055 C-189.72583694 143.83630417 -189.73170319 142.81054779 -189.73774719 141.75370789 C-188.74405904 135.76158024 -184.62193942 131.95119802 -180.29785156 127.98242188 C-179.30689414 127.06404297 -178.31628917 126.14528363 -177.32598877 125.22619629 C-176.80673073 124.74761673 -176.28747269 124.26903717 -175.75247955 123.7759552 C-172.38448925 120.65274994 -169.076312 117.46587693 -165.75505447 114.29315948 C-162.85067744 111.52552868 -159.92992982 108.78076385 -156.96533203 106.07763672 C-142.51713556 93.93765035 -142.51713556 93.93765035 -134.77807617 77.59375 C-134.59248443 72.98330971 -135.1228478 68.63713426 -135.95394897 64.11038208 C-137.86296984 49.29298754 -128.54367505 31.39684324 -120.25 19.8125 C-117.40381811 16.31478249 -114.38801204 13.04821571 -111.25 9.8125 C-110.71117187 9.20019531 -110.17234375 8.58789062 -109.6171875 7.95703125 C-82.5696413 -21.74090264 -31.43938671 -22.5676742 0 0 Z M-67.25 54.8125 C-71.44437507 60.20526795 -73.60918394 65.37694998 -73.125 72.25 C-72.00531383 79.73153942 -68.9096162 84.78432691 -63.12890625 89.5859375 C-57.16895427 93.4766338 -51.16325113 93.52270395 -44.25 92.8125 C-38.07957593 91.09792293 -33.58713873 87.21597851 -30.25 81.8125 C-27.3948026 75.80952312 -26.71861356 70.64529015 -28.3984375 64.19921875 C-30.81467413 57.427106 -34.07154966 53.35238683 -40.28515625 49.72265625 C-49.61138492 45.4025543 -60.0257715 47.78894451 -67.25 54.8125 Z " fill="#000000" transform="translate(450.25,276.1875)"/>
</svg>
