<?xml version="1.0" encoding="UTF-8"?>
<svg version="1.1" xmlns="http://www.w3.org/2000/svg" width="512" height="512">
<path d="M0 0 C1.31639245 -0.00467997 2.6327849 -0.00935994 3.98906803 -0.01418173 C7.61855442 -0.02663714 11.24780236 -0.02054649 14.8772893 -0.01122308 C18.80101113 -0.00441038 22.72469316 -0.01492478 26.64840698 -0.02316284 C34.32532966 -0.03647876 42.00216418 -0.03363201 49.67909026 -0.02492492 C55.92019227 -0.01814034 62.16126963 -0.017235 68.40237427 -0.02049637 C69.73651055 -0.02118592 69.73651055 -0.02118592 71.09759909 -0.0218894 C72.90464044 -0.02284861 74.71168179 -0.02382125 76.51872313 -0.02480717 C93.44974468 -0.03335479 110.38071744 -0.02353679 127.31173098 -0.00740607 C141.82853193 0.00599654 156.3452609 0.00366827 170.86206055 -0.01016235 C187.73391498 -0.02622926 204.60572669 -0.03253087 221.4775877 -0.02332556 C223.27785428 -0.02236995 225.07812086 -0.02142684 226.87838745 -0.02049637 C227.76407396 -0.02003354 228.64976047 -0.01957072 229.56228596 -0.01909386 C235.79341635 -0.01650731 242.02451957 -0.02086775 248.25564575 -0.02793503 C255.85285563 -0.03636257 263.44997256 -0.03404355 271.04717183 -0.0180928 C274.92084189 -0.01022694 278.79435717 -0.00708959 282.66802597 -0.01704025 C286.87240505 -0.02767683 291.07639578 -0.01494715 295.28076172 0 C296.49769746 -0.00669217 297.7146332 -0.01338433 298.96844578 -0.02027929 C311.44627419 0.06569688 319.70347727 2.86331074 328.77319336 11.38485718 C336.19150402 19.03584547 338.98209976 26.75866928 339.14038086 37.38095093 C338.9600844 48.60802473 335.81610103 56.16178519 327.99975586 64.22079468 C318.31806167 73.08499482 308.21242841 74.83218367 295.39428711 74.76190186 C294.07804352 74.76658183 292.76179993 74.7712618 291.40567017 74.77608359 C287.77199406 74.78855438 284.13855572 74.78244125 280.504879 74.77312493 C276.57843197 74.76631861 272.65202494 74.7768235 268.72558594 74.7850647 C261.04150908 74.79838737 253.35752025 74.79553084 245.67343998 74.78682677 C239.42706138 74.78004486 233.1807074 74.7791357 226.93432617 74.78239822 C226.04447777 74.78285792 225.15462936 74.78331762 224.23781586 74.78379125 C222.42996724 74.78475045 220.62211862 74.78572309 218.81427002 74.78670903 C201.87183778 74.79525863 184.92945428 74.78543554 167.98703003 74.76930793 C153.4573934 74.75590514 138.92782869 74.75823335 124.39819336 74.77206421 C107.51536882 74.78812762 90.63258697 74.79443469 73.74975586 74.78522742 C71.9486491 74.7842718 70.14754232 74.78332868 68.34643555 74.78239822 C67.46031334 74.7819354 66.57419113 74.78147257 65.66121674 74.78099572 C59.42411777 74.77840812 53.18704594 74.78277188 46.94995117 74.78983688 C39.34646685 74.79826053 31.74307542 74.79595357 24.13960171 74.77999465 C20.26201199 74.77212356 16.38457701 74.76900043 12.50698853 74.77894211 C8.3000165 74.78956496 4.0934334 74.77685991 -0.11352539 74.76190186 C-1.33405609 74.76859402 -2.55458679 74.77528619 -3.81210327 74.78218114 C-15.86979008 74.6989992 -25.11504538 71.39243872 -34.04711914 63.19345093 C-42.23453992 54.65005533 -43.85922627 44.83533339 -43.62524414 33.49423218 C-43.11921577 22.67167438 -38.07333256 15.66027434 -30.35961914 8.38095093 C-21.69799739 0.49471453 -11.2452151 -0.06183961 0 0 Z " fill="#000000" transform="translate(108.359619140625,218.61904907226563)"/>
</svg>
