<?xml version="1.0" encoding="UTF-8"?>
<svg version="1.1" xmlns="http://www.w3.org/2000/svg" width="512" height="512">
<path d="M0 0 C89.1 0 178.2 0 270 0 C270 39.6 270 79.2 270 120 C309.6 120 349.2 120 390 120 C390 141.12 390 162.24 390 184 C384.72 183.67 379.44 183.34 374 183 C370.94031982 183.08103487 368.1286215 183.19055967 365.125 183.5625 C364.38797852 183.65128418 363.65095703 183.74006836 362.89160156 183.83154297 C339.29575182 187.11457416 318.32095852 199.63898861 303.82714844 218.45336914 C292.42449489 234.04867121 286.86204805 251.57730515 286.6875 270.8125 C286.65849609 271.83537109 286.62949219 272.85824219 286.59960938 273.91210938 C286.4797632 288.87444294 291.29165032 302.63043143 296.51565552 316.46664429 C297.99424519 320.39539027 299.42893805 324.34008197 300.86328125 328.28515625 C301.14217697 329.05189163 301.42107269 329.81862701 301.7084198 330.6085968 C308.8696124 350.39069125 314 370.86129043 314 392 C279.68 392 245.36 392 210 392 C210 431.6 210 471.2 210 512 C140.7 512 71.4 512 0 512 C0 343.04 0 174.08 0 0 Z M60 182 C60 191.9 60 201.8 60 212 C99.6 212 139.2 212 180 212 C180 202.1 180 192.2 180 182 C140.4 182 100.8 182 60 182 Z M60 242 C60 251.9 60 261.8 60 272 C119.4 272 178.8 272 240 272 C240 262.1 240 252.2 240 242 C180.6 242 121.2 242 60 242 Z M69.015625 380.26953125 C60.99262559 391.13789673 59.9266071 402.92040045 61 416 C63.50219589 428.12492636 71.19231258 437.7599904 81 445 C92.30613316 451.28950454 104.60611251 452.93859707 117.3125 450.31640625 C128.80553435 446.38200102 138.6924065 438.74341212 144.640625 428.05078125 C149.77606293 416.99778409 151.39791401 403.68908284 147.375 391.9375 C141.85336225 379.37960858 133.17489937 370.21919973 120.4453125 364.875 C101.1158043 357.95837087 81.96066032 365.31032086 69.015625 380.26953125 Z " fill="#000000" transform="translate(0,0)"/>
<path d="M0 0 C89.76 0 179.52 0 272 0 C272 29.7 272 59.4 272 90 C182.24 90 92.48 90 0 90 C0 60.3 0 30.6 0 0 Z " fill="#000000" transform="translate(240,422)"/>
<path d="M0 0 C0.85207031 0.32742187 1.70414062 0.65484375 2.58203125 0.9921875 C17.68119083 7.50741541 27.84460454 21.62705089 33.9765625 36.34375 C41.09755375 57.37396716 33.14161542 78.19800815 25.78686523 97.82006836 C16.06898011 123.75058029 11.35355454 148.05371214 8 176 C-13.12 176 -34.24 176 -56 176 C-57.32 165.77 -58.64 155.54 -60 145 C-63.8771839 126.35259173 -69.55247307 108.85823853 -76 91 C-76.91569643 88.44308697 -77.82900641 85.88537501 -78.73828125 83.32617188 C-79.43317553 81.37512255 -80.13794185 79.42759647 -80.84375 77.48046875 C-85.74826687 62.71721021 -86.15668316 46.47432134 -80 32 C-79.67257812 31.14664063 -79.34515625 30.29328125 -79.0078125 29.4140625 C-72.4704193 14.28739356 -58.38888295 4.24064423 -43.69140625 -1.9765625 C-30.17251388 -6.60543125 -13.02409889 -5.61095273 0 0 Z " fill="#000000" transform="translate(399,216)"/>
<path d="M0 0 C7.87530019 6.7502573 7.87530019 6.7502573 10.68907166 9.56208801 C11.32975586 10.19995239 11.97044006 10.83781677 12.63053894 11.49501038 C13.3066774 12.17317307 13.98281586 12.85133575 14.67944336 13.55004883 C15.77825333 14.64623032 15.77825333 14.64623032 16.89926147 15.76455688 C19.29862905 18.15955389 21.69435702 20.55815309 24.08984375 22.95703125 C25.76121146 24.62772498 27.43272755 26.29827026 29.10438538 27.96867371 C32.59506218 31.45788042 36.08393394 34.94887934 39.5715332 38.44116211 C44.05301282 42.9283652 48.53900231 47.41102867 53.02632809 51.89238453 C56.47234836 55.3348032 59.91599814 58.77958523 63.35891914 62.22510338 C65.01328589 63.88013914 66.66840109 65.53442707 68.32426262 67.1879673 C70.62736824 69.48855014 72.9272726 71.79228483 75.22631836 74.09692383 C75.91662643 74.78520767 76.60693451 75.47349152 77.31816101 76.18263245 C77.93910645 76.80639771 78.56005188 77.43016296 79.19981384 78.0728302 C79.7437979 78.61719129 80.28778196 79.16155237 80.84825039 79.72240925 C82 81 82 81 82 82 C54.94 82 27.88 82 0 82 C0 54.94 0 27.88 0 0 Z " fill="#000000" transform="translate(300,8)"/>
<path d="M0 0 C4.61581142 2.18643699 6.72864085 4.49599804 9 9 C9.82885269 14.54808604 9.7240695 19.47140883 7.3125 24.5625 C4.21064779 27.8320199 1.61649202 29.75850523 -2.90234375 30.43359375 C-9.05071801 30.44150672 -13.31314296 30.4465054 -18 26 C-21.88937897 20.55860924 -21.79042609 15.48149391 -21 9 C-16.63929544 -0.20593186 -9.3488659 -1.1401056 0 0 Z " fill="#000000" transform="translate(111,392)"/>
</svg>
