<?xml version="1.0" standalone="no"?>
<!DOCTYPE svg PUBLIC "-//W3C//DTD SVG 20010904//EN"
 "http://www.w3.org/TR/2001/REC-SVG-20010904/DTD/svg10.dtd">
<svg version="1.0" xmlns="http://www.w3.org/2000/svg"
 width="512.000000pt" height="512.000000pt" viewBox="0 0 512.000000 512.000000"
 preserveAspectRatio="xMidYMid meet">

<g transform="translate(0.000000,512.000000) scale(0.100000,-0.100000)"
fill="#000000" stroke="none">
<path d="M2480 4948 c-591 -164 -1745 -495 -1777 -510 -74 -35 -139 -102 -180
-186 -36 -71 -38 -81 -38 -166 1 -88 9 -119 219 -856 119 -421 222 -770 229
-777 17 -17 389 -255 392 -251 2 2 -95 350 -216 773 -120 424 -218 784 -219
801 0 36 25 62 88 89 24 10 61 38 81 62 49 55 65 113 57 195 -8 75 -3 94 33
112 37 19 1092 316 1122 316 35 0 55 -18 77 -70 26 -60 66 -106 116 -133 34
-18 58 -22 139 -22 87 0 101 -2 115 -21 10 -11 166 -545 347 -1187 182 -642
333 -1167 337 -1167 20 0 278 175 274 186 -2 6 -167 587 -366 1290 -199 703
-371 1296 -382 1317 -27 53 -100 131 -153 162 -83 48 -210 67 -295 43z"/>
<path d="M3101 4743 c10 -32 32 -103 48 -158 l28 -100 232 -5 c230 -5 233 -5
252 -29 10 -13 19 -37 19 -53 0 -121 117 -238 238 -238 16 0 40 -9 53 -19 l24
-19 5 -895 5 -895 158 102 157 101 -2 980 -3 980 -32 67 c-44 93 -100 151
-191 196 l-76 37 -467 3 -468 3 20 -58z"/>
<path d="M1790 4256 c-217 -62 -420 -120 -451 -129 l-56 -17 -6 -66 c-11 -115
-84 -240 -173 -295 -19 -11 -34 -26 -34 -32 0 -7 104 -381 232 -833 l232 -820
337 -217 c186 -120 344 -220 352 -223 8 -3 48 16 88 42 120 77 152 88 249 88
97 0 133 -13 251 -89 40 -26 78 -44 86 -40 9 3 93 55 188 116 l172 110 -78
277 c-44 152 -190 671 -326 1152 l-248 875 -70 8 c-116 13 -219 72 -284 163
-18 24 -40 44 -49 43 -9 0 -195 -51 -412 -113z m499 -931 c105 -25 188 -72
267 -150 112 -112 164 -236 164 -397 0 -259 -178 -483 -432 -543 -124 -29
-277 -9 -391 52 -78 42 -196 165 -235 245 -126 259 -41 561 201 719 54 35 148
72 207 82 57 10 159 6 219 -8z"/>
<path d="M2067 3170 c-197 -50 -333 -256 -298 -452 46 -261 321 -409 556 -299
157 73 243 218 233 392 -4 61 -11 91 -36 142 -42 84 -129 167 -209 197 -65 25
-186 35 -246 20z"/>
<path d="M3520 3273 c163 -576 302 -1049 308 -1051 9 -3 12 208 12 892 0 710
-3 896 -12 896 -29 0 -140 62 -182 101 -43 39 -116 163 -116 195 0 11 -30 14
-153 14 l-154 0 297 -1047z"/>
<path d="M4480 2895 l0 -257 23 14 c12 8 97 63 189 122 117 76 166 112 160
121 -13 22 -63 59 -197 145 -71 46 -140 90 -152 98 l-23 14 0 -257z"/>
<path d="M443 3026 c-124 -79 -189 -134 -176 -146 13 -13 447 -290 449 -287 7
7 -141 507 -150 506 -6 0 -61 -33 -123 -73z"/>
<path d="M172 2723 c-4 -10 -7 -522 -7 -1138 l0 -1120 32 -69 33 -68 29 18
c720 461 1820 1170 1820 1174 0 4 -1836 1186 -1885 1213 -10 5 -17 2 -22 -10z"/>
<path d="M3987 2131 l-947 -609 27 -20 c21 -14 1434 -924 1771 -1139 l53 -34
32 68 32 68 0 1127 c0 760 -3 1130 -10 1137 -7 7 -308 -181 -958 -598z"/>
<path d="M2485 1581 c-41 -19 -2089 -1333 -2113 -1355 -11 -11 -3 -17 40 -37
l53 -24 2095 0 2095 0 53 24 c28 13 52 26 52 30 -1 9 -2063 1332 -2118 1358
-57 27 -104 29 -157 4z"/>
</g>
</svg>
