<?xml version="1.0" standalone="no"?>
<!DOCTYPE svg PUBLIC "-//W3C//DTD SVG 20010904//EN"
 "http://www.w3.org/TR/2001/REC-SVG-20010904/DTD/svg10.dtd">
<svg version="1.0" xmlns="http://www.w3.org/2000/svg"
 width="560.000000pt" height="600.000000pt" viewBox="0 0 560.000000 600.000000"
 preserveAspectRatio="xMidYMid meet">

<g transform="translate(0.000000,600.000000) scale(0.100000,-0.100000)"
fill="#000000" stroke="none">
<path d="M4934 5990 c-150 -32 -431 -189 -714 -398 -702 -520 -1536 -1339
-2481 -2432 -192 -223 -199 -232 -199 -272 0 -47 12 -61 229 -282 287 -290
298 -297 388 -229 160 122 1001 875 1297 1163 805 782 1423 1522 1642 1965
125 253 131 387 23 467 -30 23 -122 32 -185 18z"/>
<path d="M5260 5505 c0 -19 -38 -94 -129 -255 -39 -68 -67 -127 -63 -131 4 -4
24 -12 44 -18 21 -7 49 -26 63 -43 31 -36 29 -57 -11 -172 -93 -268 -463 -765
-786 -1056 -219 -198 -365 -306 -640 -473 -239 -146 -308 -211 -308 -290 0
-80 60 -137 143 -137 264 0 964 532 1421 1079 328 393 579 939 564 1222 -8
137 -63 206 -208 263 -76 30 -90 32 -90 11z"/>
<path d="M1205 2541 c-750 -402 -747 -400 -760 -486 -18 -125 -140 -495 -243
-735 -35 -82 -132 -291 -179 -384 -8 -17 147 130 344 327 l360 359 -5 48 c-9
101 24 165 103 201 51 24 99 23 151 0 134 -61 141 -260 10 -328 -22 -12 -53
-16 -107 -15 l-75 1 -354 -354 c-195 -195 -352 -355 -349 -355 3 0 77 34 164
75 297 143 678 284 930 345 72 17 135 37 142 43 25 26 503 915 503 937 0 13
-393 405 -420 420 -11 6 -73 -22 -215 -99z"/>
<path d="M3732 2098 c-35 -17 -56 -59 -122 -248 -102 -288 -238 -592 -373
-835 -150 -271 -405 -603 -475 -622 -68 -18 -82 5 -82 131 0 175 53 429 156
751 66 204 71 238 47 285 -47 91 -170 106 -239 29 -12 -13 -68 -105 -124 -204
-153 -270 -246 -400 -394 -554 -247 -255 -555 -399 -954 -446 -208 -24 -239
-39 -262 -121 -11 -38 -10 -51 4 -89 10 -24 31 -56 47 -70 27 -22 40 -25 110
-25 314 0 694 113 964 288 75 48 185 134 275 216 l55 49 6 -29 c4 -16 7 -56 8
-89 5 -239 101 -393 274 -436 64 -16 150 2 242 49 88 45 265 220 375 369 l75
102 7 -101 c14 -203 60 -332 147 -410 79 -71 195 -100 317 -79 87 16 161 51
235 113 l60 50 53 -50 c29 -28 77 -63 107 -78 50 -26 63 -28 169 -29 110 0
118 2 181 33 36 18 90 53 120 77 29 25 56 45 59 45 3 0 28 -23 55 -52 30 -31
76 -63 115 -82 59 -28 74 -31 160 -31 111 1 170 18 257 74 109 71 213 197 213
258 0 33 -42 103 -74 123 -21 12 -51 20 -79 20 -38 0 -53 -6 -97 -42 -29 -24
-71 -58 -93 -77 -51 -41 -96 -61 -136 -61 -79 0 -87 126 -25 372 41 164 28
230 -53 269 -61 30 -115 22 -160 -24 -26 -25 -45 -64 -78 -156 -73 -204 -172
-351 -284 -423 -50 -32 -110 -37 -135 -13 -36 36 -32 134 10 315 47 199 43
251 -25 299 -93 67 -192 18 -246 -121 -106 -275 -235 -477 -333 -520 -40 -18
-44 -18 -70 -2 -50 29 -56 49 -60 188 -7 227 31 437 194 1085 70 276 103 424
99 442 -4 16 -24 44 -46 63 -35 33 -44 36 -97 35 -31 0 -67 -5 -80 -11z"/>
</g>
</svg>
