<?xml version="1.0" standalone="no"?>
<!DOCTYPE svg PUBLIC "-//W3C//DTD SVG 20010904//EN"
 "http://www.w3.org/TR/2001/REC-SVG-20010904/DTD/svg10.dtd">
<svg version="1.0" xmlns="http://www.w3.org/2000/svg"
 width="980.000000pt" height="1000.000000pt" viewBox="0 0 980.000000 1000.000000"
 preserveAspectRatio="xMidYMid meet">

<g transform="translate(0.000000,1000.000000) scale(0.100000,-0.100000)"
fill="#000000" stroke="none">
<path d="M5375 9979 c-805 -66 -1604 -380 -2249 -883 -459 -358 -840 -826
-1111 -1367 -456 -906 -564 -1922 -309 -2897 108 -415 278 -797 537 -1210 120
-191 127 -205 114 -225 -8 -12 -533 -543 -1166 -1180 -633 -637 -1160 -1171
-1171 -1187 l-21 -30 124 -132 c155 -166 830 -834 858 -848 17 -10 48 16 277
239 141 137 687 680 1212 1205 525 526 958 956 961 956 4 0 56 -29 115 -65
232 -140 575 -292 899 -400 267 -89 453 -131 747 -171 157 -21 621 -30 801
-15 832 69 1627 386 2277 908 731 587 1246 1431 1444 2369 123 584 111 1212
-34 1799 -94 378 -254 776 -447 1104 -504 860 -1291 1499 -2243 1822 -283 96
-554 157 -865 195 -155 18 -594 26 -750 13z m465 -1079 c273 -13 404 -31 595
-80 1031 -263 1850 -1054 2165 -2091 94 -310 115 -494 107 -946 -7 -402 -24
-511 -134 -847 -110 -338 -266 -634 -492 -931 -97 -129 -407 -439 -536 -536
-215 -164 -469 -313 -660 -390 -249 -99 -560 -188 -747 -214 -251 -34 -758
-29 -977 10 -431 77 -882 268 -1243 526 -1135 813 -1574 2293 -1062 3584 301
759 895 1368 1644 1688 281 119 632 209 890 227 160 11 217 11 450 0z"/>
<path d="M5150 6050 l0 -1970 535 0 535 0 0 1970 0 1970 -535 0 -535 0 0
-1970z"/>
<path d="M6580 5695 l0 -1615 535 0 535 0 0 1615 0 1615 -535 0 -535 0 0
-1615z"/>
<path d="M3715 6578 c-3 -7 -4 -571 -3 -1253 l3 -1240 538 -3 537 -2 0 1255 0
1255 -535 0 c-419 0 -537 -3 -540 -12z"/>
</g>
</svg>
