<?xml version="1.0" encoding="UTF-8"?>
<svg version="1.1" xmlns="http://www.w3.org/2000/svg" width="512" height="512">
<path d="M0 0 C1.06346923 -0.00297112 2.12693845 -0.00594224 3.22263402 -0.0090034 C6.76872598 -0.0176408 10.31478399 -0.01919446 13.86088562 -0.02069092 C16.41101147 -0.02532272 18.96113663 -0.03034787 21.51126099 -0.03573608 C28.42920593 -0.04882997 35.34713978 -0.05533706 42.265095 -0.05974674 C46.59425429 -0.06251834 50.92341139 -0.06675741 55.2525692 -0.07125092 C67.26516867 -0.08343913 79.27776638 -0.09373812 91.29037189 -0.09712601 C92.05803871 -0.09734557 92.82570553 -0.09756514 93.61663498 -0.09779136 C94.77072641 -0.09811878 94.77072641 -0.09811878 95.94813281 -0.09845281 C97.50694104 -0.09889626 99.06574927 -0.09934282 100.6245575 -0.09979248 C101.39776284 -0.10001391 102.17096819 -0.10023534 102.967604 -0.10046348 C115.47274277 -0.10440442 127.97782302 -0.12183891 140.48293922 -0.145152 C153.35642429 -0.16895574 166.22988013 -0.181332 179.10338753 -0.18249393 C186.31726185 -0.18340584 193.53105997 -0.18903456 200.7449131 -0.20731354 C207.5403413 -0.22447283 214.33562362 -0.22590027 221.13106728 -0.21717453 C223.61085396 -0.21640953 226.09064869 -0.22067501 228.5704155 -0.23063278 C262.60820096 -0.3591836 293.23278919 5.70654197 321.10575867 26.14044189 C321.97200867 26.76305908 322.83825867 27.38567627 323.73075867 28.02716064 C352.20005227 49.61325333 369.97644495 81.29785452 375.6269989 116.37628174 C376.43815628 122.75385669 376.35037628 129.1583949 376.35575867 135.57794189 C376.35677078 136.65798996 376.35677078 136.65798996 376.35780334 137.75985718 C376.34222624 148.20423096 375.9083183 157.99676451 373.10575867 168.14044189 C372.7727608 169.49176656 372.44077365 170.8433406 372.10966492 172.19512939 C368.02236551 188.05765665 360.86791857 202.99301686 351.10575867 216.14044189 C350.52825867 216.93966064 349.95075867 217.73887939 349.35575867 218.56231689 C335.09250957 237.37505061 316.69984761 251.73449334 295.10575867 261.14044189 C294.46316101 261.42113525 293.82056335 261.70182861 293.15849304 261.99102783 C276.3091781 269.17950441 258.47111631 272.29703538 240.21151733 272.28088379 C238.6163135 272.28534047 238.6163135 272.28534047 236.98888332 272.28988719 C233.44279135 272.29852459 229.89673334 272.30007824 226.35063171 272.30157471 C223.80050587 272.30620651 221.25038071 272.31123166 218.70025635 272.31661987 C211.78231141 272.32971376 204.86437755 272.33622085 197.94642234 272.34063053 C193.61726304 272.34340213 189.28810594 272.3476412 184.95894814 272.3521347 C172.94634867 272.36432292 160.93375095 272.37462191 148.92114544 272.3780098 C148.15347862 272.37822936 147.38581181 272.37844893 146.59488236 272.37867515 C145.44079093 272.37900256 145.44079093 272.37900256 144.26338452 272.3793366 C142.70457629 272.37978004 141.14576807 272.38022661 139.58695984 272.38067627 C138.42715182 272.38100841 138.42715182 272.38100841 137.24391333 272.38134727 C124.73877456 272.38528821 112.23369432 272.4027227 99.72857811 272.42603579 C86.85509304 272.44983953 73.98163721 272.46221579 61.1081298 272.46337771 C53.89425548 272.46428962 46.68045737 272.46991835 39.46660423 272.48819733 C32.67117603 272.50535662 25.87589371 272.50678406 19.08045006 272.49805832 C16.60066338 272.49729332 14.12086864 272.50155879 11.64110184 272.51151657 C-22.39668363 272.64006739 -53.02127185 266.57434182 -80.89424133 246.14044189 C-81.76049133 245.51782471 -82.62674133 244.89520752 -83.51924133 244.25372314 C-111.98853494 222.66763046 -129.76492761 190.98302927 -135.41548157 155.90460205 C-136.22663895 149.5270271 -136.13885894 143.12248889 -136.14424133 136.70294189 C-136.14491608 135.98290985 -136.14559082 135.26287781 -136.14628601 134.52102661 C-136.13070891 124.07665283 -135.69680097 114.28411927 -132.89424133 104.14044189 C-132.56124347 102.78911722 -132.22925632 101.43754319 -131.89814758 100.08575439 C-127.81084817 84.22322714 -120.65640124 69.28786693 -110.89424133 56.14044189 C-110.31674133 55.34122314 -109.73924133 54.54200439 -109.14424133 53.71856689 C-94.88099224 34.90583317 -76.48833027 20.54639045 -54.89424133 11.14044189 C-54.25164368 10.85974854 -53.60904602 10.57905518 -52.94697571 10.28985596 C-36.09766076 3.10137938 -18.25959897 -0.01615159 0 0 Z M170.10575867 58.14044189 C168.86052429 59.24452393 168.86052429 59.24452393 167.59013367 60.37091064 C152.84636431 74.21058094 142.99041386 92.62497114 138.10575867 112.14044189 C137.9291571 112.84539795 137.75255554 113.550354 137.57060242 114.27667236 C131.28108862 141.95614872 137.77077993 169.53384549 152.23466492 193.33966064 C169.09467929 218.57688466 194.33570689 234.39429649 223.79325867 240.45294189 C251.96205136 244.37903885 280.0483177 237.73486934 303.07450867 220.98028564 C305.83630034 218.7809375 308.48371956 216.50424987 311.10575867 214.14044189 C311.93591492 213.40438721 312.76607117 212.66833252 313.62138367 211.90997314 C328.36515302 198.07030285 338.22110347 179.65591265 343.10575867 160.14044189 C343.28236023 159.43548584 343.45896179 158.73052979 343.64091492 158.00421143 C349.93042872 130.32473506 343.4407374 102.7470383 328.97685242 78.94122314 C312.11683804 53.70399912 286.87581044 37.88658729 257.41825867 31.82794189 C225.51727465 27.38166131 194.05220679 36.55235609 170.10575867 58.14044189 Z " fill="#000000" transform="translate(135.8942413330078,119.85955810546875)"/>
</svg>
