<?xml version="1.0" standalone="no"?>
<!DOCTYPE svg PUBLIC "-//W3C//DTD SVG 20010904//EN"
 "http://www.w3.org/TR/2001/REC-SVG-20010904/DTD/svg10.dtd">
<svg version="1.0" xmlns="http://www.w3.org/2000/svg"
 width="512.000000pt" height="512.000000pt" viewBox="0 0 512.000000 512.000000"
 preserveAspectRatio="xMidYMid meet">

<g transform="translate(0.000000,512.000000) scale(0.100000,-0.100000)"
fill="#000000" stroke="none">
<path d="M1166 4938 c-10 -101 -20 -190 -22 -199 -3 -10 -32 -25 -71 -38 -37
-12 -99 -38 -137 -57 -38 -19 -74 -34 -78 -34 -5 0 -76 55 -159 122 l-150 122
-141 -142 -142 -141 122 -150 c67 -83 122 -154 122 -159 0 -4 -15 -40 -34 -78
-19 -38 -45 -100 -57 -137 -13 -39 -28 -68 -38 -71 -9 -2 -98 -12 -198 -22
l-183 -18 0 -198 c0 -109 1 -198 3 -199 1 0 90 -11 197 -22 l195 -22 30 -85
c17 -47 43 -108 58 -137 15 -29 27 -57 27 -62 0 -5 -54 -76 -120 -158 -66 -81
-120 -150 -120 -153 0 -3 63 -68 139 -144 l139 -139 154 125 154 125 74 -37
c41 -21 102 -46 135 -56 33 -10 64 -21 70 -26 5 -5 18 -95 30 -201 l20 -192
197 -3 c181 -2 197 -1 201 15 3 10 13 95 23 189 l17 172 -58 72 -58 72 371
370 370 371 72 -58 72 -58 172 17 c94 10 179 20 189 23 16 4 17 20 15 201 l-3
197 -192 20 c-106 12 -196 25 -201 30 -5 6 -16 37 -26 70 -10 33 -35 94 -56
135 l-37 74 125 154 125 154 -139 139 c-76 76 -141 139 -144 139 -3 0 -72 -54
-153 -120 -82 -66 -153 -120 -158 -120 -5 0 -33 12 -62 27 -29 15 -90 41 -137
58 l-85 30 -22 195 c-11 107 -22 196 -22 198 -1 1 -90 2 -199 2 l-198 0 -18
-182z m338 -754 c222 -57 374 -288 339 -515 -40 -254 -280 -432 -528 -391
-377 62 -527 517 -258 785 118 119 283 163 447 121z"/>
<path d="M3090 3543 c0 -14 -51 -488 -53 -496 -2 -5 -42 -22 -91 -37 -48 -16
-130 -50 -182 -75 l-95 -47 -198 160 -198 160 -181 -180 -180 -181 160 -198
160 -198 -47 -95 c-25 -52 -59 -134 -75 -182 -15 -49 -32 -89 -37 -91 -8 -2
-482 -53 -496 -53 -9 0 -9 -510 1 -511 4 0 119 -12 255 -27 l248 -27 35 -104
c19 -57 53 -139 75 -182 28 -54 38 -83 32 -92 -5 -6 -76 -94 -156 -194 -81
-100 -147 -185 -147 -190 0 -4 80 -88 178 -185 l177 -177 197 160 197 159 89
-44 c48 -24 131 -58 183 -76 l96 -32 22 -211 c12 -117 25 -231 28 -254 l6 -43
252 0 253 0 5 28 c3 15 15 129 28 253 l23 227 93 31 c51 17 134 51 184 76 l91
46 200 -162 200 -162 180 181 181 180 -162 200 -162 200 46 91 c25 50 59 133
76 184 l31 93 227 23 c124 13 238 25 254 28 l27 6 0 252 0 252 -42 6 c-24 3
-138 16 -255 28 l-211 22 -32 96 c-18 52 -52 135 -76 183 l-44 89 159 197 160
197 -177 178 c-97 97 -181 177 -185 177 -5 0 -90 -66 -190 -147 -100 -80 -188
-151 -194 -156 -9 -6 -38 4 -92 32 -43 22 -125 56 -182 75 l-104 35 -27 248
c-15 136 -27 251 -27 256 -1 9 -511 9 -511 0z m404 -1193 c170 -43 311 -157
384 -311 47 -99 62 -162 62 -267 0 -163 -58 -303 -174 -418 -115 -116 -255
-174 -418 -174 -105 0 -168 15 -267 62 -262 125 -392 435 -301 721 41 132 158
269 290 341 117 64 285 82 424 46z"/>
</g>
</svg>
