<?xml version="1.0" encoding="UTF-8"?>
<svg version="1.1" xmlns="http://www.w3.org/2000/svg" width="512" height="512">
<path d="M0 0 C1.67459856 -0.00302307 3.34919573 -0.00691333 5.02379048 -0.01159257 C9.61128246 -0.02186124 14.19869619 -0.01969362 18.78619456 -0.01541197 C23.73926683 -0.01294271 28.69232036 -0.02196139 33.64538574 -0.02944946 C43.3434226 -0.0421928 53.04143177 -0.04399062 62.73947559 -0.0416492 C70.62294216 -0.03986551 78.50640032 -0.04161677 86.38986588 -0.04587364 C88.07346783 -0.04676643 88.07346783 -0.04676643 89.79108194 -0.04767724 C92.07130709 -0.04888901 94.35153224 -0.05010314 96.63175739 -0.05131962 C118.0112488 -0.06219371 139.39072443 -0.06003326 160.77021672 -0.05393478 C180.32347575 -0.04876547 199.87668496 -0.06002168 219.42993413 -0.07903299 C239.51398728 -0.0984105 259.59801687 -0.10666756 279.68207943 -0.10290974 C290.9550402 -0.1009976 302.22795857 -0.10348656 313.50091171 -0.11762428 C323.09744317 -0.1295379 332.69390612 -0.13094313 342.29043852 -0.11883412 C347.18495238 -0.1129454 352.07934092 -0.11184587 356.97384644 -0.12383652 C361.4583347 -0.13469488 365.94259301 -0.13159247 370.42707051 -0.11757483 C372.04542515 -0.1149278 373.66379781 -0.11729465 375.28213476 -0.1253107 C393.94883565 -0.2113209 410.87328405 4.87352597 424.61746216 17.98139954 C439.06211389 32.60660942 442.88972925 49.89385842 442.83909607 69.68229675 C442.84211914 71.35689531 442.8460094 73.03149248 442.85068864 74.70608723 C442.86095731 79.29357922 442.85878969 83.88099295 442.85450804 88.46849132 C442.85203878 93.42156358 442.86105746 98.37461711 442.86854553 103.3276825 C442.88128887 113.02571936 442.88308668 122.72372852 442.88074527 132.42177235 C442.87896158 140.30523891 442.88071284 148.18869707 442.88496971 156.07216263 C442.8855649 157.19456393 442.88616009 158.31696523 442.88677331 159.4733787 C442.88798508 161.75360385 442.88919921 164.033829 442.89041569 166.31405415 C442.90128978 187.69354555 442.89912933 209.07302118 442.89303084 230.45251347 C442.88786153 250.0057725 442.89911775 269.55898171 442.91812906 289.11223088 C442.93750657 309.19628404 442.94576363 329.28031362 442.94200581 349.36437619 C442.94009367 360.63733696 442.94258263 371.91025532 442.95672035 383.18320847 C442.96863397 392.77973992 442.9700392 402.37620287 442.95793018 411.97273527 C442.95204147 416.86724913 442.95094194 421.76163768 442.96293259 426.65614319 C442.97379095 431.14063145 442.97068854 435.62488976 442.9566709 440.10936727 C442.95402386 441.7277219 442.95639072 443.34609456 442.96440677 444.96443151 C443.05041697 463.6311324 437.9655701 480.5555808 424.85769653 494.29975891 C410.23248665 508.74441065 392.94523764 512.57202601 373.15679932 512.52139282 C371.48220076 512.52441589 369.80760358 512.52830615 368.13300884 512.53298539 C363.54551685 512.54325407 358.95810312 512.54108644 354.37060475 512.5368048 C349.41753248 512.53433553 344.46447896 512.54335422 339.51141357 512.55084229 C329.81337671 512.56358562 320.11536755 512.56538344 310.41732372 512.56304202 C302.53385716 512.56125833 294.650399 512.5630096 286.76693344 512.56726646 C285.08333149 512.56815925 285.08333149 512.56815925 283.36571737 512.56907007 C281.08549222 512.57028183 278.80526707 512.57149596 276.52504192 512.57271244 C255.14555052 512.58358653 233.76607489 512.58142608 212.3865826 512.5753276 C192.83332357 512.57015829 173.28011436 512.5814145 153.72686519 512.60042582 C133.64281203 512.61980333 113.55878245 512.62806038 93.47471988 512.62430257 C82.20175911 512.62239043 70.92884075 512.62487938 59.6558876 512.63901711 C50.05935615 512.65093072 40.4628932 512.65233595 30.8663608 512.64022694 C25.97184694 512.63433823 21.07745839 512.63323869 16.18295288 512.64522934 C11.69846462 512.6560877 7.21420631 512.65298529 2.7297288 512.63896766 C1.11137417 512.63632062 -0.50699849 512.63868747 -2.12533544 512.64670352 C-20.79203633 512.73271373 -37.71648473 507.64786685 -51.46066284 494.53999329 C-65.90531458 479.9147834 -69.73292994 462.6275344 -69.68229675 442.83909607 C-69.68531982 441.16449751 -69.68921008 439.48990034 -69.69388932 437.81530559 C-69.704158 433.22781361 -69.70199038 428.64039988 -69.69770873 424.05290151 C-69.69523946 419.09982924 -69.70425815 414.14677571 -69.71174622 409.19371033 C-69.72448955 399.49567347 -69.72628737 389.7976643 -69.72394595 380.09962048 C-69.72216226 372.21615391 -69.72391353 364.33269575 -69.72817039 356.44923019 C-69.72876558 355.32682889 -69.72936077 354.20442759 -69.729974 353.04801413 C-69.73118576 350.76778898 -69.73239989 348.48756382 -69.73361637 346.20733868 C-69.74449046 324.82784727 -69.74233001 303.44837164 -69.73623153 282.06887935 C-69.73106222 262.51562032 -69.74231843 242.96241111 -69.76132975 223.40916194 C-69.78070726 203.32510879 -69.78896432 183.2410792 -69.7852065 163.15701663 C-69.78329436 151.88405587 -69.78578331 140.6111375 -69.79992104 129.33818436 C-69.81183466 119.7416529 -69.81323988 110.14518995 -69.80113087 100.54865755 C-69.79524216 95.65414369 -69.79414263 90.75975515 -69.80613327 85.86524963 C-69.81699163 81.38076137 -69.81388922 76.89650306 -69.79987159 72.41202556 C-69.79722455 70.79367092 -69.79959141 69.17529826 -69.80760745 67.55696131 C-69.89361766 48.89026042 -64.80877078 31.96581202 -51.70089722 18.22163391 C-37.07568733 3.77698217 -19.78843833 -0.05063318 0 0 Z M2.57839966 75.26069641 C-5.00482066 85.40666709 -5.57264096 95.73454878 -5.55531311 107.96878052 C-5.55757867 109.14376891 -5.55984422 110.31875731 -5.56217843 111.52935141 C-5.56740195 114.77789375 -5.56816532 118.02640115 -5.56698406 121.27494633 C-5.56677952 124.78357215 -5.57230385 128.29218979 -5.57704163 131.80081177 C-5.58533717 138.66998727 -5.58809597 145.5391542 -5.588654 152.40833429 C-5.58912967 157.99351405 -5.59118694 163.57869099 -5.59435463 169.16386986 C-5.6031581 185.0090658 -5.60777447 200.85425498 -5.60702416 216.69945339 C-5.6069842 217.55312306 -5.60694424 218.40679273 -5.60690308 219.28633118 C-5.6068622 220.14104662 -5.60682131 220.99576206 -5.6067792 221.87637796 C-5.60637278 235.72695517 -5.61594203 249.57750518 -5.63004144 263.42807452 C-5.64441414 277.65972252 -5.65131114 291.89135727 -5.65044767 306.12301272 C-5.65011601 314.1089958 -5.65284924 322.09495037 -5.66362572 330.0809269 C-5.67274246 336.88035555 -5.67489631 343.67974276 -5.66811629 350.47917489 C-5.66485706 353.94572254 -5.66477277 357.41219074 -5.67346954 360.87873077 C-5.68119155 364.64311173 -5.67654301 368.40728487 -5.6688385 372.17166138 C-5.67398206 373.25835123 -5.67912563 374.34504109 -5.68442506 375.46466094 C-5.62744641 388.08763949 -3.50203246 398.97389084 5.57839966 408.26069641 C14.93448473 415.25354674 24.63090466 416.41198779 36.02688599 416.40596008 C36.94818802 416.4093187 37.86949005 416.41267731 38.81871033 416.4161377 C41.84929776 416.42559764 44.87982965 416.42758832 47.91043091 416.42866516 C50.02881391 416.4318812 52.14719668 416.43524554 54.26557922 416.43875122 C58.70131953 416.44473011 63.13704038 416.4465924 67.57278442 416.44599915 C73.23831933 416.4458976 78.90372871 416.45954764 84.56923389 416.47677135 C88.94373643 416.4879256 93.31820894 416.4899173 97.69272423 416.48938942 C99.78056966 416.49056445 101.868416 416.49495929 103.95624733 416.50272179 C106.88482927 416.51259088 109.81314288 416.50961646 112.74172974 416.50361633 C113.59245056 416.50923584 114.44317139 416.51485535 115.31967163 416.52064514 C127.32377228 416.45858977 137.81179601 413.83248665 146.57839966 405.26069641 C154.16161998 395.11472574 154.72944027 384.78684404 154.71211243 372.5526123 C154.71551076 370.79012971 154.71551076 370.79012971 154.71897775 368.99204141 C154.72420126 365.74349908 154.72496463 362.49499167 154.72378337 359.24644649 C154.72357884 355.73782067 154.72910316 352.22920303 154.73384094 348.72058105 C154.74213649 341.85140555 154.74489528 334.98223863 154.74545332 328.11305853 C154.74592899 322.52787877 154.74798626 316.94270183 154.75115395 311.35752296 C154.75995741 295.51232702 154.76457379 279.66713784 154.76382347 263.82193943 C154.76378352 262.96826976 154.76374356 262.11460009 154.76370239 261.23506165 C154.76364107 259.95298849 154.76364107 259.95298849 154.76357851 258.64501486 C154.76317209 244.79443766 154.77274134 230.94388764 154.78684076 217.09331831 C154.80121346 202.8616703 154.80811046 188.63003555 154.80724698 174.3983801 C154.80691533 166.41239702 154.80964855 158.42644246 154.82042503 150.44046593 C154.82954178 143.64103727 154.83169563 136.84165006 154.82491561 130.04221793 C154.82165637 126.57567028 154.82157209 123.10920208 154.83026886 119.64266205 C154.83799087 115.87828109 154.83334233 112.11410795 154.82563782 108.34973145 C154.83335316 106.71969666 154.83335316 106.71969666 154.84122437 105.05673188 C154.78424573 92.43375333 152.65883178 81.54750199 143.57839966 72.26069641 C134.22231459 65.26784608 124.52589466 64.10940503 113.12991333 64.11543274 C112.2086113 64.11207413 111.28730927 64.10871552 110.33808899 64.10525513 C107.30750156 64.09579518 104.27696967 64.0938045 101.24636841 64.09272766 C99.12798541 64.08951162 97.00960263 64.08614728 94.89122009 64.0826416 C90.45547979 64.07666271 86.01975894 64.07480043 81.58401489 64.07539368 C75.91847998 64.07549522 70.25307061 64.06184518 64.58756542 64.04462147 C60.21306289 64.03346722 55.83859038 64.03147552 51.46407509 64.0320034 C49.37622966 64.03082837 47.28838332 64.02643353 45.20055199 64.01867104 C42.27197005 64.00880194 39.34365644 64.01177636 36.41506958 64.01777649 C35.56434875 64.01215698 34.71362793 64.00653748 33.83712769 64.00074768 C21.83302703 64.06280305 11.34500331 66.68890617 2.57839966 75.26069641 Z M226.57839966 75.26069641 C220.19440048 83.802169 218.45995001 92.54031419 218.44468689 103.10940552 C218.44242133 103.76169921 218.44015578 104.4139929 218.43782157 105.08605307 C218.43153711 107.25211477 218.43230733 109.41811299 218.43313599 111.58418274 C218.43014102 113.14532552 218.42673771 114.70646756 218.42295837 116.26760864 C218.41414847 120.49500745 218.41178153 124.722386 218.41114259 128.9497931 C218.41043037 131.59472185 218.4082928 134.2396455 218.40564537 136.88457298 C218.39640187 146.12266236 218.39230923 155.36073733 218.39309692 164.59883118 C218.39369743 173.19263978 218.38314831 181.78638556 218.36735326 190.38017827 C218.35425228 197.77319883 218.3489141 205.16619892 218.34955233 212.55923098 C218.34980657 216.96817816 218.34699652 221.37706947 218.33637428 225.78600502 C218.32665017 229.93518572 218.32664352 234.08425763 218.33389091 238.23344231 C218.33493142 239.749891 218.33260588 241.26634663 218.32653046 242.78278351 C218.27310871 257.0492154 219.14852602 269.59378019 229.57839966 280.26069641 C238.93448473 287.25354674 248.63090466 288.41198779 260.02688599 288.40596008 C260.94818802 288.4093187 261.86949005 288.41267731 262.81871033 288.4161377 C265.84929776 288.42559764 268.87982965 288.42758832 271.91043091 288.42866516 C274.02881391 288.4318812 276.14719668 288.43524554 278.26557922 288.43875122 C282.70131953 288.44473011 287.13704038 288.4465924 291.57278442 288.44599915 C297.23831933 288.4458976 302.90372871 288.45954764 308.56923389 288.47677135 C312.94373643 288.4879256 317.31820894 288.4899173 321.69272423 288.48938942 C323.78056966 288.49056445 325.868416 288.49495929 327.95624733 288.50272179 C330.88482927 288.51259088 333.81314288 288.50961646 336.74172974 288.50361633 C337.59245056 288.50923584 338.44317139 288.51485535 339.31967163 288.52064514 C351.32377228 288.45858977 361.81179601 285.83248665 370.57839966 277.26069641 C376.96239884 268.71922382 378.69684931 259.98107863 378.71211243 249.4119873 C378.71551076 248.43354676 378.71551076 248.43354676 378.71897775 247.43533975 C378.72526221 245.26927806 378.72449199 243.10327983 378.72366333 240.93721008 C378.7266583 239.3760673 378.7300616 237.81492526 378.73384094 236.25378418 C378.74265085 232.02638537 378.74501779 227.79900682 378.74565673 223.57159972 C378.74636895 220.92667097 378.74850652 218.28174732 378.75115395 215.63681984 C378.76039744 206.39873046 378.76449008 197.16065549 378.76370239 187.92256165 C378.76310188 179.32875304 378.77365101 170.73500726 378.78944606 162.14121455 C378.80254704 154.74819399 378.80788522 147.35519391 378.80724698 139.96216184 C378.80699275 135.55321466 378.8098028 131.14432335 378.82042503 126.7353878 C378.83014915 122.5862071 378.8301558 118.43713519 378.8229084 114.28795052 C378.8218679 112.77150182 378.82419344 111.2550462 378.83026886 109.73860931 C378.88369061 95.47217742 378.0082733 82.92761263 367.57839966 72.26069641 C358.22231459 65.26784608 348.52589466 64.10940503 337.12991333 64.11543274 C336.2086113 64.11207413 335.28730927 64.10871552 334.33808899 64.10525513 C331.30750156 64.09579518 328.27696967 64.0938045 325.24636841 64.09272766 C323.12798541 64.08951162 321.00960263 64.08614728 318.89122009 64.0826416 C314.45547979 64.07666271 310.01975894 64.07480043 305.58401489 64.07539368 C299.91847998 64.07549522 294.25307061 64.06184518 288.58756542 64.04462147 C284.21306289 64.03346722 279.83859038 64.03147552 275.46407509 64.0320034 C273.37622966 64.03082837 271.28838332 64.02643353 269.20055199 64.01867104 C266.27197005 64.00880194 263.34365644 64.01177636 260.41506958 64.01777649 C259.56434875 64.01215698 258.71362793 64.00653748 257.83712769 64.00074768 C245.83302703 64.06280305 235.34500331 66.68890617 226.57839966 75.26069641 Z " fill="#000000" transform="translate(69.42160034179688,-0.2606964111328125)"/>
</svg>
