<svg class="svg-icon" style="width: 1em;height: 1em;vertical-align: middle;fill: currentColor;overflow: hidden;" viewBox="0 0 1024 1024" version="1.1" xmlns="http://www.w3.org/2000/svg"><path d="M864 608.002h-47.999V512c0-2.209-0.224-4.366-0.65-6.449s-1.055-4.092-1.865-6.007a31.976 31.976 0 0 0-4.793-7.899 32.157 32.157 0 0 0-9.44-7.783A31.905 31.905 0 0 0 784 479.999H547v-64h48c52.935 0 96-43.065 96-96V160c0-52.935-43.065-96-96-96H435c-52.935 0-96 43.065-96 96v160c0 52.935 43.065 96 96 96h48v64H239.999a31.89 31.89 0 0 0-15.253 3.863 32.075 32.075 0 0 0-9.44 7.783 32.037 32.037 0 0 0-4.793 7.899 31.786 31.786 0 0 0-1.865 6.007 32.09 32.09 0 0 0-0.65 6.449v96.002H160c-52.935 0-96 43.065-96 95.999V864c0 52.935 43.065 96 96 96h159.999c52.935 0 96-43.065 96-96V704.001c0-52.934-43.065-95.999-96-95.999H272V544h480.001v64.002h-47.999c-52.935 0-96 43.065-96 96V864c0 52.935 43.065 96 96 96H864c52.935 0 96-43.065 96-96V704.002c0-52.935-43.065-96-96-96z"  /></svg>