<?xml version="1.0" encoding="UTF-8"?>
<svg version="1.1" xmlns="http://www.w3.org/2000/svg" width="512" height="512">
<path d="M0 0 C0.65091836 -0.0072672 1.30183672 -0.01453441 1.97247988 -0.02202183 C4.15726183 -0.04029404 6.34029297 -0.0229091 8.52506256 -0.00571251 C10.10562205 -0.0114729 11.68617486 -0.01941347 13.26671362 -0.02934873 C17.61274837 -0.05025688 21.95823547 -0.03988906 26.30427241 -0.02441764 C30.99011528 -0.01312421 35.67586269 -0.03055685 40.36168671 -0.04431725 C49.54228917 -0.06657568 58.72268749 -0.06173687 67.90329802 -0.04725404 C75.36310799 -0.03597204 82.82286065 -0.0344264 90.2826767 -0.03987312 C91.34351899 -0.04063929 92.40436128 -0.04140545 93.49735031 -0.04219484 C95.652285 -0.04379343 97.80721967 -0.04541449 99.96215433 -0.04705779 C120.17929699 -0.06132293 140.39632638 -0.04491057 160.61345047 -0.01805596 C177.96885089 0.00428349 195.32408411 0.00040358 212.67948151 -0.02264977 C232.82320297 -0.04939426 252.96682511 -0.05994956 273.11056185 -0.04458845 C275.2576653 -0.04299566 277.40476877 -0.04142381 279.55187225 -0.03987312 C281.13658585 -0.03871606 281.13658585 -0.03871606 282.75331387 -0.03753562 C290.20603747 -0.03321456 297.65869818 -0.0405139 305.11141205 -0.05227089 C314.19114291 -0.06627942 323.27065759 -0.06253065 332.35036361 -0.03586717 C336.98494867 -0.02270678 341.61917301 -0.01761432 346.25375557 -0.03411293 C350.49400653 -0.04897971 354.73356144 -0.04087897 358.97374898 -0.01422517 C360.51001047 -0.00862622 362.04633041 -0.0115123 363.58255452 -0.02360411 C365.66739466 -0.03875911 367.74983517 -0.02327487 369.83454895 0 C370.99340308 0.00081176 372.1522572 0.00162352 373.34622812 0.00245988 C377.35224079 0.82001566 378.85849448 2.5168467 381.41727448 5.6292057 C382.04368687 7.66727638 382.04368687 7.66727638 382.04546356 9.68950844 C382.0644445 10.85013298 382.0644445 10.85013298 382.0838089 12.03420448 C382.0721167 12.86864082 382.0604245 13.70307716 382.04837799 14.56279945 C382.05911095 15.89784019 382.05911095 15.89784019 382.07006073 17.25985146 C382.08694184 20.19599486 382.06754861 23.13061014 382.04618073 26.0667057 C382.04700948 28.1102454 382.04946909 30.15378503 382.05348969 32.19732094 C382.05634729 36.47788013 382.04164985 40.75791598 382.0141983 45.03838539 C381.98011587 50.52311335 381.98613424 56.00690549 382.00486088 61.49167824 C382.0154334 65.71078721 382.00649069 69.92967872 381.99147606 74.14876747 C381.98629566 76.17095735 381.98677432 78.19316996 381.99302101 80.21535683 C381.99847617 83.04260464 381.97808837 85.86851641 381.95072174 88.69561195 C381.96051056 89.94726646 381.96051056 89.94726646 381.97049713 91.22420692 C381.9048177 95.21804637 381.71372555 97.16647816 379.50623322 100.61213112 C377.47018448 102.57811641 375.9993726 103.62243389 373.38993073 104.65654945 C372.60916168 104.97067787 371.82839264 105.28480629 371.02396393 105.60845375 C370.18438141 105.9246769 369.34479889 106.24090004 368.47977448 106.5667057 C367.59443024 106.90806557 366.709086 107.24942543 365.79691315 107.60112953 C318.72731476 125.33467435 266.30502512 128.45377185 216.41727448 129.6292057 C216.01967926 128.93633461 215.62208405 128.24346352 215.21244049 127.52959633 C214.68319977 126.62402992 214.15395905 125.71846352 213.60868073 124.7854557 C213.08733551 123.88633461 212.5659903 122.98721352 212.02884674 122.06084633 C208.9576737 117.42686913 204.53680202 115.37766191 199.41727448 113.6292057 C194.69794509 113.15836077 189.97026348 113.21292122 185.22977448 113.1917057 C183.31454987 113.14239906 183.31454987 113.14239906 181.36063385 113.09209633 C173.37567663 113.04693719 166.97664109 113.79200171 160.41727448 118.6292057 C158.10761058 121.14584441 156.21320903 123.72901409 154.41727448 126.6292057 C153.75727448 127.6192057 153.09727448 128.6092057 152.41727448 129.6292057 C149.7397974 129.80509409 147.32267719 129.78838444 144.65946198 129.62529945 C143.8610791 129.58773537 143.06269623 129.55017128 142.24011993 129.51146889 C139.58961354 129.3805632 136.94127763 129.22500008 134.29227448 129.0667057 C132.43908655 128.96485945 130.58589641 128.86305336 128.73270416 128.76128578 C87.78769241 126.41578038 46.44035062 122.38667957 7.41727448 109.0667057 C6.62248688 108.79809731 5.82769928 108.52948891 5.00882721 108.25274086 C-1.10514173 106.06651394 -6.94771301 103.26421822 -11.58272552 98.6292057 C-11.79730694 95.70385439 -11.88684491 92.87206514 -11.88912201 89.94439125 C-11.89744553 89.0450486 -11.90576904 88.14570595 -11.91434479 87.21911049 C-11.93851517 84.23467158 -11.94722601 81.25045098 -11.95381927 78.26592445 C-11.96278114 76.19567739 -11.9719029 74.125431 -11.98117828 72.05518532 C-11.99769059 67.70980694 -12.00537232 63.36450581 -12.00826263 59.01909828 C-12.01364488 53.4501956 -12.05130912 47.88201884 -12.0970068 42.31332111 C-12.12674876 38.03506763 -12.13398559 33.7569894 -12.13498878 29.47864151 C-12.13919774 27.42570933 -12.15165899 25.37277693 -12.17250633 23.31994629 C-12.19935754 20.44682318 -12.1946136 17.5753882 -12.18209076 14.70220375 C-12.19692505 13.85370354 -12.21175934 13.00520332 -12.22704315 12.13099098 C-12.21727951 11.34449165 -12.20751587 10.55799232 -12.19745636 9.74765968 C-12.19946769 9.06905231 -12.20147902 8.39044493 -12.20355129 7.69127369 C-10.37584709 1.62056833 -5.80616653 0.00406714 0 0 Z " fill="#000000" transform="translate(28.582725524902344,84.37079429626465)"/>
<path d="M0 0 C1.57266141 0.47071257 3.14523532 0.94171749 4.71777344 1.4128418 C6.03137848 1.80622993 6.03137848 1.80622993 7.371521 2.20756531 C9.75613224 2.92647867 12.13653351 3.65760046 14.515625 4.39453125 C56.06723934 16.98646358 100.33203832 21.3105642 143.62109375 22.7097168 C144.40613281 22.73590088 145.19117188 22.76208496 146 22.7890625 C146.66 22.80662598 147.32 22.82418945 148 22.84228516 C150.38522217 23.03037763 152.66347008 23.49446173 155 24 C155.00410889 24.91700684 155.00821777 25.83401367 155.01245117 26.77880859 C155.03964889 30.2274794 155.08895695 33.67443914 155.15258789 37.12255859 C155.17558344 38.60617348 155.19011973 40.08994734 155.19555664 41.57373047 C155.2345684 50.47441349 155.45304121 58.55859318 161 66 C169.18512678 73.81582083 177.3886876 74.36323499 188.3125 74.375 C189.49779297 74.39949219 190.68308594 74.42398438 191.90429688 74.44921875 C200.60005011 74.47815636 207.0179201 73.27415458 213.8125 67.6875 C219.20117676 61.06712569 221.06487806 55.52696834 221.31640625 47.046875 C221.33718735 46.38665344 221.35796844 45.72643188 221.37937927 45.04620361 C221.44450147 42.94756985 221.50358502 40.84881628 221.5625 38.75 C221.60572079 37.32290453 221.6493362 35.89582095 221.69335938 34.46875 C221.80014411 30.97929278 221.90151566 27.48970247 222 24 C226.09702992 23.04866819 230.04740825 22.77934757 234.24609375 22.60546875 C235.71870004 22.53935173 237.19127367 22.47250439 238.66381836 22.4050293 C239.44014618 22.37017426 240.216474 22.33531921 241.0163269 22.29940796 C285.18970717 20.2576899 330.65711865 15.87717794 372.5078125 0.84765625 C375 0 375 0 377 0 C377.20920934 9.99682241 377.36878465 19.99311802 377.46630955 29.99168968 C377.51313568 34.63538712 377.57656682 39.2775791 377.67895508 43.92041016 C377.77727967 48.40743247 377.8306671 52.893014 377.85389519 57.38103104 C377.87043113 59.08672377 377.90272412 60.79234408 377.95157051 62.49741745 C378.36403488 77.50211873 378.36403488 77.50211873 372.63256836 84.00244141 C370.1797132 86.29922803 367.79865303 88.13423131 365 90 C361.98924769 89.08287347 359.23221327 88.06103951 356.34106445 86.84643555 C355.45614822 86.48745178 354.57123199 86.12846802 353.65950012 85.75860596 C351.73358871 84.97514711 349.81028804 84.18524744 347.88930702 83.38977623 C344.84633252 82.12970039 341.79707087 80.88615434 338.74565125 79.64668274 C333.36324636 77.45715575 327.98703061 75.25286582 322.61260986 73.04382324 C314.02862025 69.51586051 305.43958734 66.00051269 296.84294701 62.50348854 C293.8438762 61.27930951 290.85000456 60.04301044 287.85627747 58.80583191 C286.0063646 58.05062214 284.15625182 57.29590181 282.3059082 56.54174805 C281.0657193 56.02346184 281.0657193 56.02346184 279.80047607 55.4947052 C273.66589509 53.01507714 267.68766418 51.06878234 261.0859375 52.8828125 C255.59229709 55.2495104 251.71453606 59.63724352 247.625 63.875 C246.81933594 64.67808594 246.01367188 65.48117187 245.18359375 66.30859375 C240.31144512 71.26235291 236.72631233 75.17959396 236.6875 82.4375 C236.66236328 83.51837891 236.66236328 83.51837891 236.63671875 84.62109375 C237.47913625 90.13756965 240.21424417 93.63649542 244.5 97 C245.48226562 97.77214844 246.46453125 98.54429687 247.4765625 99.33984375 C252.38213489 103.06950067 257.35005365 106.71610781 262.32421875 110.35351562 C268.44039288 114.82888099 274.48349303 119.39170646 280.5 124 C289.630082 130.98877242 298.85371354 137.84178703 308.13500977 144.62817383 C310.0994117 146.07312402 312.05123988 147.53404203 314 149 C309.63046961 157.91425495 309.63046961 157.91425495 306 161 C301.96664455 162.17744524 298.05629791 162.06363738 293.87826538 161.98895264 C292.03108506 162.00343913 292.03108506 162.00343913 290.14658797 162.01821828 C286.7346814 162.03685313 283.3263786 162.01964238 279.91480255 161.98716116 C276.23375461 161.96081851 272.55291656 161.98065409 268.87184143 161.99468994 C261.6640376 162.01484663 254.45696841 161.99230822 247.24925588 161.95528874 C238.85785531 161.91373943 230.46661332 161.91403379 222.07512923 161.91597906 C207.10526958 161.91798119 192.13575188 161.88134349 177.16601562 161.82324219 C162.63502779 161.76687287 148.10434086 161.73855997 133.57324219 161.74121094 C132.67799447 161.74137076 131.78274676 161.74153059 130.86037032 161.74169526 C129.96668013 161.74185667 129.07298994 161.74201809 128.15221822 161.7421844 C111.61426476 161.74494265 95.0764393 161.72139265 78.5385273 161.68557154 C72.68684787 161.67349929 66.83519194 161.66925251 60.98350143 161.66744232 C53.85550489 161.66471575 46.72772412 161.64688467 39.59981917 161.61011109 C35.9618279 161.59162468 32.32411283 161.57946221 28.6860714 161.58448792 C24.74641917 161.58966647 20.80732411 161.56391578 16.86776733 161.53485107 C15.71233598 161.54104548 14.55690463 161.54723989 13.3664602 161.55362201 C11.7873111 161.53427533 11.7873111 161.53427533 10.17625999 161.51453781 C9.26666476 161.51172011 8.35706952 161.50890241 7.41991079 161.50599933 C4.23910204 160.8408975 3.04723875 159.46382174 1 157 C-0.38731931 154.22536139 -0.12276339 151.98107663 -0.12025452 148.87509155 C-0.12162918 147.56814835 -0.12300385 146.26120514 -0.12442017 144.91465759 C-0.12088077 143.45791603 -0.11724596 142.0011747 -0.11352539 140.54443359 C-0.11324345 139.01706443 -0.11340139 137.48969513 -0.1139679 135.96232605 C-0.1142556 131.80760651 -0.1083632 127.65291566 -0.10139394 123.4982028 C-0.09515594 119.15933597 -0.09455625 114.82046853 -0.09336853 110.4815979 C-0.09025654 102.26161213 -0.08204491 94.04163961 -0.07201904 85.82165968 C-0.06085383 76.46508214 -0.05534642 67.10850396 -0.05032361 57.75192142 C-0.0398622 38.50127342 -0.02226529 19.25063778 0 0 Z " fill="#000000" transform="translate(25,206)"/>
<path d="M0 0 C4.14209674 2.93789955 7.28721191 6.52179198 8.89453125 11.34375 C10.26025719 24.39650774 5.40987126 34.95911066 -2.10546875 45.34375 C-5.08768719 48.77223554 -8.27320045 51.94085189 -11.54296875 55.09375 C-12.35056641 55.89167969 -13.15816406 56.68960938 -13.99023438 57.51171875 C-18.27111496 61.71325989 -22.6504703 65.75532611 -27.19165039 69.67285156 C-30.40697908 72.48006033 -33.50011557 75.41612381 -36.60546875 78.34375 C-40.6084146 82.10583517 -44.61388958 85.83874339 -48.79296875 89.40625 C-52.91318188 92.96683028 -52.91318188 92.96683028 -56.10546875 97.34375 C-55.80333244 103.9725876 -53.18018407 109.71377843 -50.6875 115.79296875 C-50.2379747 116.90758987 -49.7884494 118.022211 -49.32530212 119.17060852 C-48.3618598 121.55739521 -47.39496043 123.94278884 -46.42492676 126.3269043 C-44.9112443 130.04777979 -43.40632426 133.77206468 -41.90527344 137.49804688 C-41.65625841 138.11610262 -41.40724339 138.73415836 -41.15068245 139.37094307 C-40.64822541 140.61811116 -40.14580492 141.86529399 -39.64342117 143.11249161 C-38.89069468 144.98029586 -38.13703066 146.84771943 -37.38314819 148.71505737 C-33.44378802 158.47944378 -29.55666611 168.26298902 -25.7383728 178.0753479 C-25.15516329 179.5737595 -24.57057393 181.07163485 -23.98452759 182.56893921 C-23.18290988 184.61757598 -22.38559489 186.66782852 -21.58984375 188.71875 C-21.15381836 189.84023438 -20.71779297 190.96171875 -20.26855469 192.1171875 C-19.04890141 195.50067568 -18.05467864 198.87611619 -17.10546875 202.34375 C-17.94851563 203.11460937 -18.7915625 203.88546875 -19.66015625 204.6796875 C-20.76694907 205.69268432 -21.87371869 206.70570647 -22.98046875 207.71875 C-23.53605469 208.22664062 -24.09164062 208.73453125 -24.6640625 209.2578125 C-26.84558656 211.2553526 -29.01362968 213.25191093 -31.10546875 215.34375 C-32.09546875 215.34375 -33.08546875 215.34375 -34.10546875 215.34375 C-35.47729492 213.93286133 -35.47729492 213.93286133 -36.8984375 211.92578125 C-37.43791016 211.17683594 -37.97738281 210.42789063 -38.53320312 209.65625 C-39.11392578 208.83125 -39.69464844 208.00625 -40.29296875 207.15625 C-41.55556254 205.40109859 -42.81995195 203.64723778 -44.0859375 201.89453125 C-44.74513184 200.97881348 -45.40432617 200.0630957 -46.08349609 199.11962891 C-49.34891522 194.63667606 -52.72762938 190.24224329 -56.10546875 185.84375 C-61.18987492 179.20167222 -66.21739364 172.5236692 -71.16796875 165.78125 C-71.72935547 165.02013916 -72.29074219 164.25902832 -72.86914062 163.47485352 C-75.97383812 159.26266607 -79.04959149 155.03181593 -82.1015625 150.78125 C-83.43585329 148.94766583 -84.77048049 147.11432642 -86.10546875 145.28125 C-86.71656494 144.41749756 -87.32766113 143.55374512 -87.95727539 142.66381836 C-90.57410806 139.09580322 -92.34764706 136.72815231 -96.33984375 134.703125 C-99.63640657 134.27475808 -101.37876668 135.01796663 -104.13671875 136.8203125 C-107.40095852 139.34621232 -110.41620009 142.12510869 -113.4453125 144.92578125 C-116.9189933 148.08320917 -120.550657 151.01710454 -124.19921875 153.96875 C-127.30939416 156.51039872 -130.36452123 159.10964917 -133.41796875 161.71875 C-137.89828225 165.53805551 -142.4578576 169.23015824 -147.10546875 172.84375 C-152.94792434 177.38706864 -158.63979219 182.07730796 -164.23828125 186.91796875 C-167.10546875 189.34375 -167.10546875 189.34375 -169.47265625 191.05078125 C-171.6740405 192.56201839 -171.6740405 192.56201839 -174.10546875 195.34375 C-174.9282735 203.38255237 -172.72181847 210.46594802 -170.54296875 218.15625 C-169.8662096 220.55613225 -169.19784251 222.95840149 -168.5390625 225.36328125 C-168.24056396 226.41620361 -167.94206543 227.46912598 -167.63452148 228.55395508 C-167.10510406 231.3456731 -167.04851803 232.74101329 -168.10546875 235.34375 C-170.28515625 237.921875 -170.28515625 237.921875 -172.98046875 240.59375 C-173.86476563 241.48578125 -174.7490625 242.3778125 -175.66015625 243.296875 C-178.10546875 245.34375 -178.10546875 245.34375 -181.10546875 245.34375 C-181.41774414 244.68777832 -181.73001953 244.03180664 -182.05175781 243.35595703 C-183.47371494 240.38731893 -184.91429629 237.42810414 -186.35546875 234.46875 C-187.09216797 232.91994141 -187.09216797 232.91994141 -187.84375 231.33984375 C-188.32714844 230.35371094 -188.81054688 229.36757813 -189.30859375 228.3515625 C-189.74848633 227.44035645 -190.18837891 226.52915039 -190.64160156 225.59033203 C-192.27245577 223.08747673 -193.30236458 222.29286467 -196.10546875 221.34375 C-199.82811083 221.46604442 -201.576957 221.8867796 -204.4140625 224.33984375 C-205.46787109 225.54833984 -205.46787109 225.54833984 -206.54296875 226.78125 C-210.33987809 230.78874423 -212.57168184 232.8116551 -218.10546875 233.34375 C-221.15758332 232.6500876 -222.64136315 231.77584832 -224.91796875 229.65625 C-226.70450481 226.17720609 -226.75178288 224.22163477 -226.10546875 220.34375 C-224.05442423 217.396074 -221.62677209 214.89204802 -219.10546875 212.34375 C-216.43343248 209.46617248 -215.23829773 208.15732753 -214.60546875 204.28125 C-215.22897419 200.61815556 -216.34115671 199.75552591 -219.10546875 197.34375 C-221.38921509 195.93066367 -221.38921509 195.93066367 -223.87109375 194.765625 C-224.76054687 194.32734375 -225.65 193.8890625 -226.56640625 193.4375 C-227.48679687 192.9940625 -228.4071875 192.550625 -229.35546875 192.09375 C-230.29132813 191.63484375 -231.2271875 191.1759375 -232.19140625 190.703125 C-234.49263564 189.57599224 -236.79726846 188.45651873 -239.10546875 187.34375 C-237.46908628 183.9205806 -235.61806504 181.34251032 -233.04296875 178.53125 C-231.97369141 177.31501953 -231.97369141 177.31501953 -230.8828125 176.07421875 C-226.73844326 173.49200276 -223.73841059 174.33066258 -219.10546875 175.34375 C-213.97501039 176.55882399 -208.89255538 177.93826974 -203.8125 179.34765625 C-195.98726807 181.51194406 -195.98726807 181.51194406 -188.10546875 180.34375 C-185.86986322 178.30241501 -184.18724245 176.50923975 -182.35546875 174.15625 C-181.58686523 173.21555664 -181.58686523 173.21555664 -180.80273438 172.25585938 C-179.21532282 170.3013711 -177.65707462 168.32674184 -176.10546875 166.34375 C-175.63560547 165.74739746 -175.16574219 165.15104492 -174.68164062 164.53662109 C-172.86598964 162.2308993 -171.05431712 159.92230175 -169.25537109 157.60351562 C-165.46492142 152.73454905 -161.48488496 148.04994957 -157.44750977 143.38500977 C-153.68287884 139.03301565 -150.02302209 134.60637952 -146.3984375 130.13671875 C-144.23342962 127.49961375 -142.03282053 124.89855452 -139.81567383 122.30541992 C-137.56300656 119.6648163 -135.33512192 117.0038109 -133.10546875 114.34375 C-132.49703125 113.63992188 -131.88859375 112.93609375 -131.26171875 112.2109375 C-128.98870007 109.39491991 -128.11569228 107.70285142 -128.01171875 104.05078125 C-129.56139097 98.79849933 -132.50616874 97.00117214 -136.85546875 93.90625 C-137.65388184 93.31279785 -138.45229492 92.7193457 -139.27490234 92.10791016 C-140.98802579 90.8345756 -142.70682653 89.56885047 -144.43066406 88.31005859 C-148.01402682 85.6758487 -151.5393465 82.96909013 -155.06738281 80.26147461 C-162.66478412 74.43387498 -170.31264991 68.67366728 -177.98193359 62.94116211 C-186.35753918 56.67276775 -194.6639278 50.31287935 -202.97753906 43.96264648 C-205.01339742 42.41379647 -207.05708141 40.87597855 -209.10546875 39.34375 C-207.03562483 34.69424839 -203.76160081 31.78481546 -200.10546875 28.34375 C-199.28046875 27.51875 -198.45546875 26.69375 -197.60546875 25.84375 C-194.0396247 23.70424357 -192.15297682 24.50316722 -188.10546875 25.34375 C-184.99575828 26.36992432 -181.98469479 27.59979891 -178.96069336 28.85375977 C-177.62762398 29.39530197 -177.62762398 29.39530197 -176.2676239 29.94778442 C-174.34725186 30.7289859 -172.42832992 31.51375966 -170.51072502 32.3017292 C-167.47459237 33.54880121 -164.4344227 34.78550621 -161.39295959 36.01951599 C-153.84298171 39.08491241 -146.2991697 42.16534641 -138.75714111 45.25024414 C-132.37617605 47.86020135 -125.99203428 50.46203778 -119.60290718 53.05195427 C-116.60940702 54.2692585 -113.62102174 55.49857066 -110.6325531 56.72816467 C-108.79558133 57.4738023 -106.95835998 58.21882545 -105.12084961 58.96313477 C-104.29315063 59.30754105 -103.46545166 59.65194733 -102.6126709 60.00679016 C-98.30147666 61.73676645 -94.83766848 62.87724441 -90.10546875 62.34375 C-87.94629115 61.15512231 -87.94629115 61.15512231 -86.16796875 59.34375 C-85.14316406 58.37501953 -85.14316406 58.37501953 -84.09765625 57.38671875 C-81.65167881 54.87839286 -79.33515031 52.29411066 -77.06640625 49.625 C-73.34860306 45.29990624 -69.44475459 41.13948462 -65.57910156 36.94677734 C-64.12157274 35.36126803 -62.67135936 33.76935467 -61.22265625 32.17578125 C-58.21176342 28.87172121 -55.1706759 25.59747155 -52.10546875 22.34375 C-51.5336084 21.73644043 -50.96174805 21.12913086 -50.37255859 20.50341797 C-38.53509646 8.03186384 -18.35246535 -10.13548382 0 0 Z " fill="#000000" transform="translate(486.10546875,249.65625)"/>
<path d="M0 0 C15.8668941 12.69351528 25.78299604 29.1634353 30 49 C30 49.99 30 50.98 30 52 C24.06 52 18.12 52 12 52 C11.01 49.36 10.02 46.72 9 44 C2.6381888 28.05652212 -6.31921286 16.66475183 -22 9 C-35.42184114 3.25876465 -48.734451 1.65202701 -63.25 1.6875 C-64.55324219 1.67138672 -65.85648437 1.65527344 -67.19921875 1.63867188 C-86.98210387 1.62886866 -107.32470813 6.67632452 -122.34765625 20.25 C-130.83260612 29.23642445 -135.80254805 40.21991389 -139 52 C-144.94 52 -150.88 52 -157 52 C-154.43260882 31.46087056 -144.58715832 14.49726 -129 1 C-94.37603903 -23.88053477 -34.82100649 -25.98264705 0 0 Z " fill="#000000" transform="translate(277,17)"/>
<path d="M0 0 C1.12792969 -0.02771484 2.25585938 -0.05542969 3.41796875 -0.08398438 C4.50722656 -0.08076172 5.59648437 -0.07753906 6.71875 -0.07421875 C7.70810547 -0.07381592 8.69746094 -0.07341309 9.71679688 -0.07299805 C12.93162861 0.80544062 14.56111653 2.13845115 16.54794312 4.81263733 C18.35062721 8.36261965 18.19147318 11.93882684 18.12890625 15.84765625 C18.13131821 16.71514999 18.13373016 17.58264374 18.13621521 18.47642517 C18.13523938 20.3027709 18.12190901 22.12914718 18.09692383 23.95532227 C18.06255755 26.74532746 18.07629164 29.53217216 18.09570312 32.32226562 C18.08880553 34.10157593 18.07913392 35.8808781 18.06640625 37.66015625 C18.07136612 38.49047867 18.07632599 39.32080109 18.08143616 40.17628479 C17.99991942 44.19688746 17.79928485 46.21724988 15.58959961 49.68920898 C11.14532797 53.93928064 6.0379976 52.90897838 0.1875 52.9375 C-0.85857422 52.958125 -1.90464844 52.97875 -2.98242188 53 C-3.99498047 53.00515625 -5.00753906 53.0103125 -6.05078125 53.015625 C-6.97544189 53.0249707 -7.90010254 53.03431641 -8.8527832 53.04394531 C-12.03599124 52.61532927 -13.91080431 51.55720597 -16.5 49.6875 C-17.62237281 47.44275437 -17.64877721 46.17559601 -17.69287109 43.68432617 C-17.70893402 42.85974411 -17.72499695 42.03516205 -17.74154663 41.18559265 C-17.78602528 37.41271801 -17.82706263 33.64001891 -17.85009766 29.86694336 C-17.86665551 27.87756653 -17.89394328 25.88824915 -17.93212891 23.89916992 C-17.98692264 21.03012245 -18.00877517 18.16246913 -18.0234375 15.29296875 C-18.04610687 14.40635056 -18.06877625 13.51973236 -18.09213257 12.60624695 C-18.07729069 8.26290102 -17.90662874 6.25990745 -15.32861328 2.63085938 C-10.48152003 -0.69926856 -5.70971718 -0.075042 0 0 Z " fill="#000000" transform="translate(213.5,212.3125)"/>
</svg>
