<?xml version="1.0" encoding="UTF-8"?>
<svg version="1.1" xmlns="http://www.w3.org/2000/svg" width="512" height="512">
<path d="M0 0 C1.81643761 -0.00856522 1.81643761 -0.00856522 3.66957092 -0.01730347 C4.98500381 -0.01842133 6.30043671 -0.01953918 7.6557312 -0.02069092 C9.06570057 -0.02532421 10.47566869 -0.03034956 11.88563538 -0.03573608 C15.70621144 -0.048815 19.52676997 -0.0552965 23.3473649 -0.05974674 C25.73919692 -0.06268547 28.13102422 -0.06679182 30.52285385 -0.07125092 C38.02038681 -0.08491553 45.51790891 -0.09458659 53.01545346 -0.09845281 C61.64379965 -0.10292764 70.27198697 -0.12045314 78.90028489 -0.1494534 C85.58674091 -0.17113965 92.27315246 -0.18116082 98.95964324 -0.18249393 C102.94505237 -0.18353723 106.93031194 -0.18934272 110.91568375 -0.20731354 C114.67010805 -0.22391429 118.42427232 -0.22589225 122.17872047 -0.21717453 C124.19456007 -0.21604934 126.21039151 -0.22967453 128.22618103 -0.243927 C142.79834672 -0.17783358 156.27793395 3.30198471 167.23336792 13.39044189 C175.50625993 22.32117833 180.95441504 33.0958353 181.00163269 45.34918213 C181.01236565 47.26246559 181.01236565 47.26246559 181.02331543 49.21440125 C181.02615557 50.6259458 181.02886731 52.03749062 181.03146362 53.44903564 C181.0377312 54.93752704 181.04437826 56.42601687 181.05137634 57.914505 C181.07239256 62.80230627 181.08277972 67.69010775 181.09274292 72.57794189 C181.09679205 74.26413997 181.10090902 75.95033789 181.105093 77.63653564 C181.12414308 85.56335714 181.13837181 93.49016937 181.14670497 101.41700935 C181.15646266 110.54688074 181.18274443 119.67650874 181.22320586 128.80629444 C181.2534495 135.87487135 181.26818183 142.94337884 181.27148598 150.01201916 C181.273828 154.22777808 181.28267645 158.44327695 181.30794716 162.65896606 C181.33137636 166.6317372 181.33540218 170.60407984 181.32518578 174.57690239 C181.32469381 176.02640656 181.33091292 177.47593289 181.34474182 178.92537117 C181.48738824 194.77757175 177.33956621 206.25245775 166.54196167 217.89044189 C155.263482 228.56471729 142.88025745 230.5968654 127.86471558 230.54449463 C126.3753356 230.55020783 124.88596 230.55717574 123.39659119 230.56529236 C119.37784684 230.58313519 115.3593219 230.58207211 111.34054995 230.57634997 C107.97354375 230.57324486 104.60657889 230.57936528 101.2395786 230.58538872 C93.28988178 230.59940353 85.34029249 230.59789841 77.39059448 230.58648682 C69.21644496 230.57501159 61.04262378 230.58907811 52.86851752 230.61588329 C45.8252758 230.6381068 38.78213665 230.64466266 31.7388624 230.63880688 C27.54334353 230.63545159 23.34803498 230.63775643 19.15254593 230.65505791 C15.20427721 230.67063133 11.25649125 230.66645775 7.30824089 230.64775276 C5.86842243 230.64409526 4.42856736 230.64709141 2.98878288 230.65763855 C-10.27142966 230.7472775 -20.51197716 228.15414017 -31.14553833 220.14044189 C-32.01178833 219.56294189 -32.87803833 218.98544189 -33.77053833 218.39044189 C-42.93540596 209.70793571 -48.56640232 197.60616909 -49.3353672 185.03777122 C-49.4120094 181.35679411 -49.42718793 177.68037453 -49.42019653 173.99859619 C-49.42455148 172.5881829 -49.42973723 171.17777198 -49.4356842 169.7673645 C-49.44900275 165.95933496 -49.44966078 162.15140511 -49.4471209 158.34335685 C-49.44604611 155.15286688 -49.45094762 151.96239667 -49.45572633 148.77191097 C-49.46679728 141.23791972 -49.46727284 133.70397834 -49.46121216 126.16998291 C-49.45517687 118.42477527 -49.46747758 110.6797495 -49.48878223 102.93457288 C-49.50645772 96.26078667 -49.51239016 89.58705804 -49.50914448 82.91324931 C-49.5073406 78.93795718 -49.50987746 74.96279474 -49.52385902 70.98752403 C-49.53652972 67.24535533 -49.53440708 63.50346784 -49.52144814 59.76130295 C-49.51799411 57.75266012 -49.52919243 55.74400834 -49.54101562 53.73539734 C-49.45124236 38.07579568 -45.55474372 24.9691456 -34.66897583 13.46856689 C-24.77936925 4.34440974 -13.37073322 0.03794583 0 0 Z " fill="#000000" transform="translate(331.1455383300781,280.85955810546875)"/>
<path d="M0 0 C1.27552231 -0.0071553 2.55104462 -0.01431061 3.86521912 -0.02168274 C5.27676367 -0.02452288 6.68830849 -0.02723462 8.09985352 -0.02983093 C9.58834491 -0.03609851 11.07683474 -0.04274557 12.56532288 -0.04974365 C17.45312415 -0.07075987 22.34092562 -0.08114703 27.22875977 -0.09111023 C28.91495785 -0.09515936 30.60115576 -0.09927633 32.28735352 -0.10346031 C40.21417502 -0.12251039 48.14098724 -0.13673912 56.06782722 -0.14507228 C65.19769862 -0.15482997 74.32732661 -0.18111174 83.45711231 -0.22157317 C90.52568922 -0.25181681 97.59419672 -0.26654914 104.66283703 -0.26985329 C108.87859595 -0.27219531 113.09409482 -0.28104376 117.30978394 -0.30631447 C121.28255507 -0.32974366 125.25489771 -0.33376949 129.22772026 -0.32355309 C130.67722443 -0.32306112 132.12675076 -0.32928023 133.57618904 -0.34310913 C149.42838962 -0.48575555 160.90327562 3.66206648 172.54125977 14.45967102 C183.21553517 25.73815069 185.24768327 38.12137524 185.1953125 53.13691711 C185.2010257 54.62629709 185.20799361 56.11567269 185.21611023 57.6050415 C185.23395306 61.62378585 185.23288998 65.64231079 185.22716784 69.66108274 C185.22406273 73.02808894 185.23018315 76.3950538 185.23620659 79.76205409 C185.2502214 87.71175091 185.24871628 95.6613402 185.23730469 103.61103821 C185.22582946 111.78518773 185.23989599 119.95900891 185.26670116 128.13311517 C185.28892467 135.17635689 185.29548053 142.21949604 185.28962475 149.2627703 C185.28626946 153.45828917 185.2885743 157.65359771 185.30587578 161.84908676 C185.3214492 165.79735548 185.31727562 169.74514144 185.29857063 173.6933918 C185.29491313 175.13321026 185.29790928 176.57306533 185.30845642 178.01284981 C185.39809537 191.27306235 182.80495804 201.51360985 174.79125977 212.14717102 C174.21375977 213.01342102 173.63625977 213.87967102 173.04125977 214.77217102 C164.35875359 223.93703866 152.25698696 229.56803501 139.6885891 230.33699989 C136.00761198 230.41364209 132.3311924 230.42882062 128.64941406 230.42182922 C127.23900077 230.42618418 125.82858985 230.43136992 124.41818237 230.43731689 C120.61015284 230.45063544 116.80222299 230.45129348 112.99417472 230.4487536 C109.80368475 230.4476788 106.61321454 230.45258031 103.42272884 230.45735902 C95.88873759 230.46842997 88.35479621 230.46890553 80.82080078 230.46284485 C73.07559314 230.45680956 65.33056737 230.46911027 57.58539075 230.49041492 C50.91160454 230.50809041 44.23787591 230.51402285 37.56406718 230.51077718 C33.58877505 230.50897329 29.61361262 230.51151015 25.6383419 230.52549171 C21.89617321 230.53816241 18.15428572 230.53603977 14.41212082 230.52308083 C12.403478 230.5196268 10.39482621 230.53082512 8.38621521 230.54264832 C-7.27338645 230.45287505 -20.38003653 226.55637641 -31.88061523 215.67060852 C-41.00477239 205.78100194 -45.3112363 194.37236591 -45.34918213 181.00163269 C-45.35489227 179.79067429 -45.36060242 178.57971588 -45.3664856 177.33206177 C-45.36760345 176.01662888 -45.36872131 174.70119598 -45.36987305 173.34590149 C-45.37450634 171.93593212 -45.37953169 170.525964 -45.38491821 169.11599731 C-45.39799713 165.29542125 -45.40447863 161.47486273 -45.40892887 157.65426779 C-45.4118676 155.26243577 -45.41597394 152.87060847 -45.42043304 150.47877884 C-45.43409766 142.98124588 -45.44376872 135.48372378 -45.44763494 127.98617923 C-45.45210977 119.35783304 -45.46963527 110.72964572 -45.49863553 102.1013478 C-45.52032178 95.41489178 -45.53034295 88.72848023 -45.53167605 82.04198945 C-45.53271935 78.05658032 -45.53852485 74.07132075 -45.55649567 70.08594894 C-45.57309642 66.33152464 -45.57507438 62.57736037 -45.56635666 58.82291222 C-45.56523147 56.80707262 -45.57885666 54.79124118 -45.59310913 52.77545166 C-45.52701571 38.20328597 -42.04719742 24.72369874 -31.95874023 13.76826477 C-23.0280038 5.49537276 -12.25334683 0.04721765 0 0 Z " fill="#000000" transform="translate(327.208740234375,-0.1471710205078125)"/>
<path d="M0 0 C1.41041329 -0.00435495 2.82082422 -0.00954069 4.23123169 -0.01548767 C8.03926123 -0.02880621 11.84719108 -0.02946425 15.65523934 -0.02692437 C18.84572931 -0.02584957 22.03619952 -0.03075109 25.22668523 -0.03552979 C32.76067647 -0.04660074 40.29461785 -0.0470763 47.82861328 -0.04101562 C55.57382092 -0.03498033 63.31884669 -0.04728105 71.06402332 -0.06858569 C77.73780952 -0.08626119 84.41153816 -0.09219363 91.08534688 -0.08894795 C95.06063901 -0.08714406 99.03580145 -0.08968093 103.01107216 -0.10366249 C106.75324086 -0.11633318 110.49512835 -0.11421054 114.23729324 -0.1012516 C116.24593607 -0.09779758 118.25458786 -0.1089959 120.26319885 -0.12081909 C135.92280051 -0.03104583 149.0294506 3.86545281 160.5300293 14.7512207 C169.65418645 24.64082729 173.96065036 36.04946331 173.99859619 49.42019653 C174.00430634 50.63115494 174.01001648 51.84211334 174.01589966 53.08976746 C174.01757645 55.06291679 174.01757645 55.06291679 174.01928711 57.07592773 C174.0239204 58.4858971 174.02894575 59.89586522 174.03433228 61.30583191 C174.04741119 65.12640797 174.05389269 68.9469665 174.05834293 72.76756144 C174.06128166 75.15939345 174.06538801 77.55122076 174.06984711 79.94305038 C174.08351172 87.44058335 174.09318278 94.93810544 174.097049 102.43564999 C174.10152384 111.06399619 174.11904933 119.6921835 174.14804959 128.32048142 C174.16973584 135.00693744 174.17975701 141.693349 174.18109012 148.37983978 C174.18213342 152.3652489 174.18793891 156.35050847 174.20590973 160.33588028 C174.22251049 164.09030459 174.22448844 167.84446885 174.21577072 171.59891701 C174.21464553 173.6147566 174.22827073 175.63058804 174.24252319 177.64637756 C174.17642977 192.21854325 170.69661148 205.69813048 160.6081543 216.65356445 C151.67741786 224.92645646 140.9027609 230.37461157 128.64941406 230.42182922 C126.7361306 230.43256218 126.7361306 230.43256218 124.78419495 230.44351196 C123.37265039 230.4463521 121.96110557 230.44906384 120.54956055 230.45166016 C119.06106916 230.45792773 117.57257932 230.46457479 116.08409119 230.47157288 C111.19628992 230.4925891 106.30848844 230.50297625 101.4206543 230.51293945 C99.73445622 230.51698859 98.0482583 230.52110556 96.36206055 230.52528954 C88.43523905 230.54433961 80.50842682 230.55856835 72.58158684 230.5669015 C63.45171545 230.5766592 54.32208745 230.60294096 45.19230175 230.6434024 C38.12372484 230.67364603 31.05521735 230.68837836 23.98657703 230.69168252 C19.77081811 230.69402453 15.55531924 230.70287299 11.33963013 230.72814369 C7.36685899 230.75157289 3.39451635 230.75559871 -0.5783062 230.74538231 C-2.02781037 230.74489034 -3.4773367 230.75110945 -4.92677498 230.76493835 C-20.77897556 230.90758477 -32.25386156 226.75976275 -43.8918457 215.9621582 C-54.5661211 204.68367854 -56.59826921 192.30045398 -56.54589844 177.28491211 C-56.55161164 175.79553214 -56.55857955 174.30615653 -56.56669617 172.81678772 C-56.584539 168.79804337 -56.58347592 164.77951843 -56.57775378 160.76074648 C-56.57464867 157.39374028 -56.58076909 154.02677543 -56.58679253 150.65977514 C-56.60080734 142.71007832 -56.59930222 134.76048903 -56.58789062 126.81079102 C-56.5764154 118.6366415 -56.59048192 110.46282032 -56.6172871 102.28871405 C-56.63951061 95.24547234 -56.64606647 88.20233318 -56.64021069 81.15905893 C-56.6368554 76.96354006 -56.63916024 72.76823152 -56.65646172 68.57274246 C-56.67203514 64.62447375 -56.66786156 60.67668778 -56.64915657 56.72843742 C-56.64549906 55.28861896 -56.64849522 53.84876389 -56.65904236 52.40897942 C-56.7486813 39.14876688 -54.15554398 28.90821938 -46.1418457 18.2746582 C-45.2755957 16.9752832 -45.2755957 16.9752832 -44.3918457 15.6496582 C-32.19345596 2.77358014 -16.97235891 -0.03222911 0 0 Z " fill="#000000" transform="translate(56.141845703125,280.725341796875)"/>
<path d="M0 0 C1.48937997 -0.0057132 2.97875558 -0.01268111 4.46812439 -0.02079773 C8.48686874 -0.03864056 12.50539367 -0.03757748 16.52416563 -0.03185534 C19.89117183 -0.02875023 23.25813668 -0.03487065 26.62513697 -0.04089409 C34.57483379 -0.0549089 42.52442308 -0.05340378 50.47412109 -0.04199219 C58.64827061 -0.03051696 66.82209179 -0.04458349 74.99619806 -0.07138866 C82.03943977 -0.09361217 89.08257893 -0.10016803 96.12585318 -0.09431225 C100.32137205 -0.09095696 104.51668059 -0.0932618 108.71216965 -0.11056328 C112.66043836 -0.1261367 116.60822432 -0.12196312 120.55647469 -0.10325813 C121.99629315 -0.09960063 123.43614822 -0.10259678 124.87593269 -0.11314392 C138.13614523 -0.20278287 148.37669273 2.39035446 159.01025391 10.40405273 C159.87650391 10.98155273 160.74275391 11.55905273 161.63525391 12.15405273 C170.80012154 20.83655891 176.43111789 32.93832554 177.20008278 45.5067234 C177.27672498 49.18770052 177.2919035 52.8641201 177.28491211 56.54589844 C177.28926706 57.95631173 177.2944528 59.36672265 177.30039978 60.77713013 C177.31371832 64.58515966 177.31437636 68.39308951 177.31183648 72.20113778 C177.31076168 75.39162775 177.3156632 78.58209796 177.3204419 81.77258366 C177.33151285 89.30657491 177.33198841 96.84051629 177.32592773 104.37451172 C177.31989244 112.11971936 177.33219316 119.86474513 177.3534978 127.60992175 C177.3711733 134.28370796 177.37710574 140.95743659 177.37386006 147.63124532 C177.37205617 151.60653745 177.37459303 155.58169988 177.3885746 159.5569706 C177.40124529 163.29913929 177.39912265 167.04102678 177.38616371 170.78319168 C177.38270969 172.7918345 177.39390801 174.80048629 177.4057312 176.80909729 C177.31595794 192.46869895 173.4194593 205.57534903 162.53369141 217.07592773 C152.64408482 226.20008489 141.2354488 230.5065488 127.86471558 230.54449463 C126.04827797 230.55305984 126.04827797 230.55305984 124.19514465 230.5617981 C122.22199532 230.56347488 122.22199532 230.56347488 120.20898438 230.56518555 C118.79901501 230.56981884 117.38904689 230.57484419 115.9790802 230.58023071 C112.15850414 230.59330963 108.33794561 230.59979113 104.51735067 230.60424137 C102.12551866 230.6071801 99.73369135 230.61128644 97.34186172 230.61574554 C89.84432876 230.62941016 82.34680666 230.63908122 74.84926212 230.64294744 C66.22091592 230.64742227 57.59272861 230.66494777 48.96443069 230.69394803 C42.27797467 230.71563428 35.59156311 230.72565545 28.90507233 230.72698855 C24.91966321 230.72803185 20.93440364 230.73383735 16.94903183 230.75180817 C13.19460752 230.76840892 9.44044326 230.77038688 5.6859951 230.76166916 C3.67015551 230.76054397 1.65432407 230.77416916 -0.36146545 230.78842163 C-14.93363114 230.72232821 -28.41321837 227.24250992 -39.36865234 217.15405273 C-47.64154435 208.2233163 -53.08969946 197.44865933 -53.13691711 185.1953125 C-53.14407242 183.91979019 -53.15122772 182.64426788 -53.15859985 181.33009338 C-53.16143999 179.91854883 -53.16415174 178.50700401 -53.16674805 177.09545898 C-53.17301562 175.60696759 -53.17966268 174.11847776 -53.18666077 172.62998962 C-53.20767699 167.74218835 -53.21806414 162.85438688 -53.22802734 157.96655273 C-53.23207648 156.28035465 -53.23619345 154.59415674 -53.24037743 152.90795898 C-53.2594275 144.98113748 -53.27365624 137.05432526 -53.2819894 129.12748528 C-53.29174709 119.99761388 -53.31802885 110.86798589 -53.35849029 101.73820019 C-53.38873392 94.66962328 -53.40346625 87.60111578 -53.40677041 80.53247547 C-53.40911242 76.31671655 -53.41796088 72.10121768 -53.44323158 67.88552856 C-53.46666078 63.91275743 -53.4706866 59.94041479 -53.4604702 55.96759224 C-53.45997823 54.51808807 -53.46619735 53.06856174 -53.48002625 51.61912346 C-53.62267266 35.76692288 -49.47485064 24.29203688 -38.67724609 12.65405273 C-27.39876643 1.97977733 -15.01554187 -0.05237077 0 0 Z " fill="#000000" transform="translate(52.98974609375,-0.404052734375)"/>
</svg>
