<?xml version="1.0" encoding="UTF-8"?>
<svg version="1.1" xmlns="http://www.w3.org/2000/svg" width="512" height="512">
<path d="M0 0 C0.67675781 0.1556543 1.35351562 0.31130859 2.05078125 0.47167969 C25.07642475 5.90286961 45.01733211 17.74061439 62 34 C62.74636719 34.68320313 63.49273437 35.36640625 64.26171875 36.0703125 C89.38094203 59.83055512 100.31013423 95.23464499 102.22265625 128.921875 C102.77713001 152.93299941 96.82421146 178.49984748 84 199 C83.01 199.66 82.02 200.32 81 201 C80.50371094 200.0821875 80.00742187 199.164375 79.49609375 198.21875 C65.77633531 173.24742787 45.25026413 167.2443955 19.43603516 158.85766602 C16.60934324 157.93744126 13.78507435 157.01006205 10.9609375 156.08203125 C9.65484024 155.66169365 9.65484024 155.66169365 8.32235718 155.23286438 C7.11937485 154.83686287 7.11937485 154.83686287 5.89208984 154.43286133 C5.18660004 154.20367508 4.48111023 153.97448883 3.75424194 153.73835754 C2 153 2 153 0 151 C0.845625 150.39414062 1.69125 149.78828125 2.5625 149.1640625 C16.81319776 138.73528619 26.75071471 125.7755019 30 108 C32.46247814 90.43432258 28.97931317 72.82404198 19 58 C8.35253598 44.46105214 -5.77295963 34.83915974 -23.10546875 32.28515625 C-41.19464839 30.50309132 -58.17102441 34.39010761 -73 45.18359375 C-85.09532973 55.41422681 -93.70913848 70.21346912 -96 86 C-97.31632003 106.15355253 -93.93709115 122.77854962 -81 138.86328125 C-78.02656857 142.0399746 -74.70190806 144.6566346 -71.234375 147.2734375 C-69.31919893 148.75334628 -67.68599097 150.27467327 -66 152 C-67.16345947 152.39268066 -68.32691895 152.78536133 -69.52563477 153.18994141 C-73.91621992 154.67305652 -78.30491708 156.16169416 -82.69311523 157.65185547 C-84.57868644 158.29134214 -86.46474073 158.92940653 -88.35131836 159.56591797 C-110.1449574 166.02668901 -110.1449574 166.02668901 -129.265625 177.58203125 C-131 179 -131 179 -134 180 C-135.05431843 181.86331724 -135.05431843 181.86331724 -136 184 C-136.93473639 185.24720542 -137.89454693 186.47590384 -138.875 187.6875 C-142.05669328 191.82838023 -144.09507979 196.15926157 -146 201 C-149.99608845 199.66797052 -150.8899385 197.28880915 -152.75 193.75 C-153.09635498 193.09322266 -153.44270996 192.43644531 -153.79956055 191.75976562 C-162.13363053 175.27771334 -167.10785431 156.42838446 -168 138 C-168.04125 137.17886719 -168.0825 136.35773438 -168.125 135.51171875 C-169.02102385 98.60673645 -155.21401355 62.30932211 -130.03100586 35.50878906 C-97.17604898 1.88368473 -45.41773227 -11.08779276 0 0 Z " fill="#000000" transform="translate(289,141)"/>
<path d="M0 0 C0.92425781 -0.00644531 1.84851563 -0.01289063 2.80078125 -0.01953125 C18.5326098 0.21784888 34.16740631 6.91482503 48.94189453 11.80541992 C52.37743284 12.93830224 55.81935705 14.05016141 59.26171875 15.16210938 C61.48219644 15.89454429 63.70226337 16.62822594 65.921875 17.36328125 C67.43947418 17.8480468 67.43947418 17.8480468 68.98773193 18.34260559 C80.60381481 22.25020445 91.21584564 28.35783557 97.125 39.4375 C100.17548556 45.95444642 102.91913242 52.26831362 101.625 59.625 C99.92032886 62.02689699 98.5780658 63.58883948 96.4375 65.5 C95.62381958 66.26352783 95.62381958 66.26352783 94.79370117 67.04248047 C93.09851226 68.60498549 91.37269861 70.12158199 89.625 71.625 C89.10679687 72.07166016 88.58859375 72.51832031 88.0546875 72.97851562 C58.34123771 98.08257128 22.86432675 106.45160848 -15.375 104.625 C-46.05022071 101.72577444 -72.82383386 86.96348451 -95.375 66.625 C-96.1690625 65.93535156 -96.963125 65.24570312 -97.78125 64.53515625 C-100.53074594 61.86749055 -102.16379421 59.94554882 -102.77734375 56.109375 C-102.46797039 46.69366409 -97.62147001 37.02366112 -91.13433838 30.26123047 C-84.95157366 24.51109841 -77.8809082 21.34882725 -69.953125 18.75 C-68.97245056 18.41758301 -67.99177612 18.08516602 -66.98138428 17.74267578 C-64.91269188 17.04424041 -62.84186113 16.35210971 -60.76904297 15.66601562 C-57.6706283 14.64010786 -54.57910107 13.59541378 -51.48828125 12.546875 C-12.91532395 -0.46192146 -12.91532395 -0.46192146 0 0 Z " fill="#000000" transform="translate(256.375,301.375)"/>
<path d="M0 0 C1.71972852 0.64253225 3.4330715 1.3023408 5.140625 1.9765625 C6.05948486 2.33524414 6.97834473 2.69392578 7.92504883 3.06347656 C28.45975589 11.29075427 47.80308486 22.93080477 64.390625 37.6015625 C65.15318604 38.27372803 65.15318604 38.27372803 65.93115234 38.95947266 C104.94011623 73.54437763 128.6105926 120.19242072 136.390625 171.6015625 C136.50116211 172.30547119 136.61169922 173.00937988 136.72558594 173.73461914 C141.05283643 205.8232605 137.51096708 242.63152441 124.078125 272.17578125 C123.1581349 274.55860773 123.1581349 274.55860773 124.0859375 276.7109375 C125.39909592 278.61383772 126.78527043 280.38840404 128.265625 282.1640625 C135.48376726 291.8059437 136.35961372 301.94977222 135.390625 313.6015625 C133.69531706 324.10966955 127.82595868 332.08489582 119.83203125 338.875 C115.97558005 341.60228229 111.88773896 343.22679709 107.390625 344.6015625 C106.48957031 344.88773437 106.48957031 344.88773437 105.5703125 345.1796875 C93.34061387 347.54672595 82.09160033 345.30322578 71.578125 338.7890625 C62.81001203 332.49040024 57.90433079 324.17009145 55.7734375 313.515625 C54.38050677 302.91229515 55.76432104 292.24094611 62.078125 283.2890625 C63.14528422 282.02763239 64.25194758 280.79882958 65.390625 279.6015625 C66.03902344 278.91320312 66.68742187 278.22484375 67.35546875 277.515625 C76.57346198 268.54766775 85.8208369 266.09366642 98.33569336 266.2578125 C101.57371908 266.35916577 104.30270524 266.57225591 107.390625 267.6015625 C108.39614982 264.26987009 109.39515513 260.93627292 110.390625 257.6015625 C110.64199219 256.76028809 110.89335937 255.91901367 111.15234375 255.05224609 C126.05390982 204.56234994 121.10132395 151.90575487 96.11352539 105.26708984 C88.12864519 90.88116603 78.54021317 77.6865648 67.390625 65.6015625 C66.85598633 65.02164551 66.32134766 64.44172852 65.77050781 63.84423828 C44.91977919 41.52176597 18.16064272 24.82999735 -10.9921875 15.63671875 C-13.64101345 14.58904878 -14.97468658 13.91645684 -16.609375 11.6015625 C-17.28752192 8.53294769 -17.19358682 5.68397536 -16.609375 2.6015625 C-12.09499129 -3.00721726 -6.28900035 -2.12385172 0 0 Z " fill="#000000" transform="translate(327.609375,74.3984375)"/>
<path d="M0 0 C11.46022682 6.30802228 18.01234922 14.74119258 21.87109375 27.140625 C23.98436927 37.94624131 22.37278679 48.67378164 16.53515625 57.9453125 C9.63261587 67.53781346 1.15699136 74.04441951 -10.71484375 76.2578125 C-21.37969017 77.20353558 -32.07117187 75.85012833 -41.02734375 69.5703125 C-47.47936992 64.1571719 -52.97502299 58.30603599 -55.71484375 50.2578125 C-84.82545751 51.84566416 -114.57745311 69.37827359 -136.71484375 87.2578125 C-137.32312012 87.74507813 -137.93139648 88.23234375 -138.55810547 88.734375 C-158.29889483 104.67619464 -173.57780874 124.04148828 -185.71484375 146.2578125 C-186.07030273 146.90153809 -186.42576172 147.54526367 -186.79199219 148.20849609 C-201.56465371 175.2639668 -209.12412591 205.85505353 -209.08984375 236.6328125 C-209.09062927 237.31537109 -209.09141479 237.99792969 -209.09222412 238.70117188 C-209.0718724 253.62461209 -207.33772693 268.27527525 -203.57421875 282.7421875 C-202.66111053 286.47763022 -202.55305375 288.6064725 -203.71484375 292.2578125 C-205.33984375 294.6328125 -205.33984375 294.6328125 -207.71484375 296.2578125 C-211.60314935 296.82338422 -213.81834487 296.7567813 -217.26953125 294.8359375 C-220.77859095 291.1362899 -221.37599079 287.41032322 -222.40234375 282.5078125 C-222.60150391 281.65832031 -222.80066406 280.80882812 -223.00585938 279.93359375 C-226.1091484 266.0756277 -227.09847201 252.29006397 -227.02734375 238.1328125 C-227.02460953 236.99294388 -227.02460953 236.99294388 -227.02182007 235.83004761 C-226.80516489 181.89702131 -205.37825398 130.70842858 -168.15820312 91.76855469 C-167.18057537 90.74528667 -166.20805151 89.71712223 -165.24023438 88.68457031 C-141.0906942 62.98858481 -108.96372865 44.95881364 -75.15234375 35.3828125 C-74.43900879 35.17954346 -73.72567383 34.97627441 -72.99072266 34.7668457 C-67.91569651 33.39949035 -62.94818171 32.74152319 -57.71484375 32.2578125 C-57.61308838 31.59297852 -57.51133301 30.92814453 -57.40649414 30.24316406 C-55.70146102 19.62870162 -51.37049125 10.86269384 -42.71484375 4.2578125 C-29.73684986 -3.30170424 -14.29086955 -6.31713863 0 0 Z " fill="#000000" transform="translate(273.71484375,34.7421875)"/>
<path d="M0 0 C9.11672506 6.41611028 15.2774645 15.16462416 17.37890625 26.1640625 C18.83600576 37.58700309 17.521871 47.48797236 10.5859375 56.85546875 C9.54659617 58.59657675 9.54659617 58.59657675 9.734375 60.5546875 C18.97306706 80.64696494 55.45259649 96.28427035 74.6953125 103.64453125 C93.72505802 110.64793684 113.93086681 115.72797637 134.3046875 115.84765625 C135.50550964 115.85817772 135.50550964 115.85817772 136.73059082 115.86891174 C139.30222246 115.8863335 141.873624 115.89276457 144.4453125 115.89453125 C145.76154602 115.89554337 145.76154602 115.89554337 147.10437012 115.89657593 C159.86136724 115.8809631 172.21866849 115.5477231 184.6953125 112.64453125 C185.46568848 112.4729248 186.23606445 112.30131836 187.02978516 112.12451172 C213.46676405 106.11537514 238.1458281 95.17917553 259.6953125 78.64453125 C260.90367128 77.7193328 262.11869023 76.80277527 263.33984375 75.89453125 C263.89260986 75.47816406 264.44537598 75.06179688 265.01489258 74.6328125 C267.99548085 72.8798819 270.37840671 73.0812831 273.6953125 73.64453125 C276.85131506 75.72084872 277.58691655 77.34786864 278.8828125 80.89453125 C278.6479569 85.59164333 277.50773256 87.11237119 274.2890625 90.4140625 C251.3372922 110.15120232 221.78185282 122.5888207 192.5703125 129.39453125 C191.3023584 129.69266724 191.3023584 129.69266724 190.00878906 129.99682617 C175.32491251 133.24953069 160.80290781 134.05549365 145.8203125 134.01953125 C144.923125 134.01865509 144.0259375 134.01777893 143.1015625 134.01687622 C91.42977102 133.85115858 41.90308358 115.77691557 3.6953125 80.64453125 C1.40852707 78.14147619 -0.85655822 75.64854805 -3.01171875 73.03125 C-5.40698973 71.23029824 -5.40698973 71.23029824 -9.01953125 72.38671875 C-10.06210083 72.70950806 -10.06210083 72.70950806 -11.12573242 73.03881836 C-20.58682177 75.66884219 -32.00668304 74.47580731 -40.69140625 70.1875 C-51.20753884 63.97842321 -57.73253718 56.33563116 -61.609375 44.65625 C-64.14037386 33.69332797 -62.51297124 22.11485742 -56.984375 12.30078125 C-51.12078788 3.97000173 -43.98768305 -1.29248036 -34.3046875 -4.35546875 C-33.70140625 -4.54753906 -33.098125 -4.73960937 -32.4765625 -4.9375 C-21.44795227 -7.0599124 -9.70929149 -5.71037991 0 0 Z " fill="#000000" transform="translate(111.3046875,346.35546875)"/>
<path d="M0 0 C12.33316438 9.36578648 19.42245424 20.70494075 22 36 C23.2444418 50.93330164 18.79626984 64.24509888 9.3125 75.75 C0.12405753 85.49637446 -11.62187819 90.96802013 -24.95727539 91.47045898 C-39.59041246 91.64474874 -52.67959336 87.90659563 -63.6875 77.875 C-74.49055278 66.28023413 -77.83952098 52.82052018 -77.34765625 37.4453125 C-76.54283772 23.95090001 -70.25787781 12.23780743 -60.5390625 3.0390625 C-43.34306923 -10.77064287 -18.45747163 -11.8423138 0 0 Z " fill="#000000" transform="translate(284,195)"/>
</svg>
