<?xml version="1.0" standalone="no"?>
<!DOCTYPE svg PUBLIC "-//W3C//DTD SVG 20010904//EN"
 "http://www.w3.org/TR/2001/REC-SVG-20010904/DTD/svg10.dtd">
<svg version="1.0" xmlns="http://www.w3.org/2000/svg"
 width="512.000000pt" height="512.000000pt" viewBox="0 0 512.000000 512.000000"
 preserveAspectRatio="xMidYMid meet">

<g transform="translate(0.000000,512.000000) scale(0.100000,-0.100000)"
fill="#000000" stroke="none">
<path d="M2465 4981 c-174 -80 -181 -327 -12 -414 l28 -15 -1 -241 -1 -241 81
0 80 0 0 245 c0 196 3 245 13 245 24 0 95 69 116 113 55 115 -2 262 -121 311
-50 21 -134 20 -183 -3z"/>
<path d="M1055 4613 c-129 -30 -198 -109 -198 -228 -1 -207 246 -311 391 -165
17 16 36 43 44 60 l13 30 160 -2 160 -3 3 -325 2 -324 75 74 75 74 0 308 0
307 -26 20 c-25 20 -39 21 -240 21 -206 0 -213 1 -219 21 -10 32 -64 88 -104
108 -39 20 -105 32 -136 24z"/>
<path d="M3935 4591 c-42 -19 -99 -76 -110 -110 -6 -20 -13 -21 -219 -21 -201
0 -215 -1 -240 -21 l-26 -20 0 -307 0 -308 75 -74 75 -74 2 324 3 325 156 3
156 2 29 -45 c114 -182 380 -135 425 74 21 98 -33 206 -125 250 -54 27 -145
28 -201 2z"/>
<path d="M500 3958 c-91 -55 -130 -160 -100 -268 22 -81 128 -160 214 -160 88
0 176 52 210 125 l17 36 122 -3 122 -3 5 -450 c3 -247 7 -451 8 -453 12 -16
85 -32 147 -32 l75 0 0 80 0 80 -40 0 -40 0 0 440 0 441 -25 24 c-24 25 -27
25 -198 25 l-174 0 -31 48 c-67 104 -204 135 -312 70z"/>
<path d="M4385 3961 c-32 -18 -61 -46 -79 -75 l-29 -46 -174 0 c-171 0 -174 0
-198 -25 l-25 -24 0 -441 0 -440 -40 0 -40 0 0 -81 0 -81 96 4 c146 5 134 -38
134 489 l0 438 126 3 125 3 16 -33 c21 -43 83 -96 132 -110 88 -27 166 -7 233
59 89 89 92 229 6 321 -70 74 -193 91 -283 39z"/>
<path d="M2401 3823 c-19 -162 -13 -150 -91 -173 -38 -11 -103 -38 -144 -58
l-76 -38 -96 74 -96 74 -105 -105 -105 -105 71 -90 71 -90 -49 -93 c-27 -52
-57 -120 -67 -152 -13 -42 -23 -59 -38 -62 -23 -4 -184 -25 -198 -25 -5 0 -7
-66 -6 -147 l3 -148 104 -15 103 -15 18 -70 c22 -84 53 -165 85 -220 l23 -41
-60 -78 -61 -78 105 -105 104 -104 74 57 c67 51 75 55 94 43 60 -38 196 -100
256 -115 l68 -18 6 -43 c3 -24 9 -63 12 -88 l6 -45 148 0 148 0 5 43 c4 23 9
62 12 88 l7 45 68 18 c60 15 196 77 256 115 19 13 27 9 94 -44 l72 -58 105
106 106 105 -61 77 -60 78 38 76 c34 68 74 181 82 236 3 17 17 22 108 35 l105
15 3 148 c1 81 -1 147 -6 147 -14 0 -175 21 -198 25 -15 3 -25 20 -38 62 -10
32 -40 100 -67 151 l-49 93 70 92 71 91 -104 104 -105 105 -96 -74 -96 -75
-88 43 c-48 23 -112 49 -142 56 -63 16 -63 16 -80 165 l-12 102 -148 0 -148 0
-11 -97z m251 -574 c89 -19 158 -58 229 -128 184 -184 185 -460 3 -647 -92
-95 -217 -140 -360 -131 -283 17 -481 295 -409 572 23 86 61 149 130 214 117
109 259 151 407 120z"/>
<path d="M852 3284 c-66 -17 -134 -63 -173 -117 -61 -84 -59 -57 -59 -1014 l0
-873 1940 0 1940 0 0 873 c0 959 2 930 -61 1015 -41 56 -104 98 -175 117 -32
8 -61 15 -66 15 -4 0 -8 -121 -10 -268 l-3 -269 -30 -49 c-19 -30 -49 -60 -79
-79 -46 -28 -57 -30 -162 -33 l-113 -4 -3 -26 c-3 -26 -5 -27 -113 -40 -60 -8
-113 -17 -117 -20 -6 -6 -49 -115 -64 -162 -3 -9 24 -53 65 -105 l70 -90 -201
-202 -202 -202 -83 66 -84 65 -82 -35 c-45 -19 -89 -37 -98 -40 -13 -4 -20
-28 -28 -94 -7 -48 -13 -95 -14 -103 -2 -13 -43 -15 -288 -18 l-286 -2 -7 67
c-13 132 -17 144 -45 154 -14 5 -58 24 -98 41 l-71 31 -85 -66 -84 -65 -201
201 -202 202 70 89 c39 49 70 92 70 95 0 3 -16 44 -35 91 l-34 85 -103 13
c-130 17 -128 17 -128 46 0 24 -1 24 -113 28 -106 3 -117 5 -163 33 -30 19
-60 49 -79 79 l-30 49 -3 269 c-2 199 -6 268 -15 267 -7 0 -36 -7 -65 -15z"/>
<path d="M622 1008 c3 -90 8 -123 26 -163 29 -63 82 -119 147 -153 l50 -27
1715 0 1715 0 50 27 c65 34 118 90 147 153 18 40 23 73 26 163 l4 112 -1942 0
-1942 0 4 -112z"/>
<path d="M1860 385 l0 -115 -166 0 c-91 0 -174 -4 -184 -10 -43 -23 -44 -106
-1 -129 28 -15 2074 -15 2102 0 43 23 42 106 -1 129 -10 6 -93 10 -184 10
l-166 0 0 115 0 115 -700 0 -700 0 0 -115z"/>
</g>
</svg>
