<?xml version="1.0" encoding="UTF-8"?>
<svg version="1.1" xmlns="http://www.w3.org/2000/svg" width="512" height="512">
<path d="M0 0 C1.29523039 -0.00623996 2.59046079 -0.01247993 3.92494059 -0.01890898 C7.51843063 -0.03561748 11.11149613 -0.02734934 14.70498776 -0.0149641 C18.58099838 -0.00592204 22.45693546 -0.01987912 26.33293152 -0.03088379 C33.92533034 -0.04868267 41.51757112 -0.04482297 49.10997617 -0.03323323 C55.2797363 -0.02420455 61.44945209 -0.02297245 67.61921692 -0.02732849 C68.49688537 -0.02794142 69.37455382 -0.02855436 70.27881828 -0.02918586 C72.06171097 -0.03046475 73.84460364 -0.0317616 75.6274963 -0.03307623 C92.35091088 -0.04448603 109.0742378 -0.03136205 125.797638 -0.00987476 C140.15122803 0.00799659 154.50468867 0.0048926 168.85827637 -0.0135498 C185.52130245 -0.03494945 202.18425166 -0.04338736 218.84728956 -0.03110075 C220.62367216 -0.02982654 222.40005476 -0.02856905 224.17643738 -0.02732849 C225.05048183 -0.02671139 225.92452629 -0.02609429 226.82505694 -0.02545848 C232.98835525 -0.02200286 239.15160486 -0.02783849 245.31489563 -0.0372467 C252.8245626 -0.04845801 260.33406229 -0.045445 267.84371006 -0.02412373 C271.67626219 -0.01360152 275.50853529 -0.00951117 279.34108543 -0.02272034 C283.49285197 -0.03681343 287.64391225 -0.02000163 291.7956543 0 C293.0111101 -0.00892289 294.2265659 -0.01784577 295.4788537 -0.02703905 C303.58328814 0.04904469 303.58328814 0.04904469 307.56046295 2.28968048 C310.50368061 5.84303403 311.64961701 8.27409108 311.63833618 12.89923096 C311.64246017 14.20746574 311.64246017 14.20746574 311.64666748 15.54212952 C311.63947693 16.49087448 311.63228638 17.43961945 311.62487793 18.41711426 C311.62516998 19.42231613 311.62546204 20.42751801 311.62576294 21.46318054 C311.62436968 24.78547805 311.60880848 28.10755124 311.59313965 31.42980957 C311.58940951 33.73337685 311.58656254 36.03694571 311.58456421 38.34051514 C311.57692785 44.40354798 311.55727924 50.466485 311.53515625 56.52947998 C311.51469794 62.71629541 311.50556252 68.90312632 311.4954834 75.08996582 C311.47403342 87.22933761 311.43885116 99.36861313 311.39782715 111.50793457 C303.14782715 112.49793457 294.89782715 113.48793457 286.39782715 114.50793457 C286.39782715 85.13793457 286.39782715 55.76793457 286.39782715 25.50793457 C187.39782715 26.00293457 187.39782715 26.00293457 86.39782715 26.50793457 C109.16782715 33.10793457 131.93782715 39.70793457 155.39782715 46.50793457 C164.66313327 51.14058763 164.66313327 51.14058763 166.39782715 54.50793457 C167.28081862 58.11496255 167.53172557 61.48930838 167.55604553 65.19636536 C167.57072876 66.8979203 167.57072876 66.8979203 167.58570862 68.6338501 C167.59146408 69.86887268 167.59721954 71.10389526 167.60314941 72.37634277 C167.61304901 73.68405136 167.62294861 74.99175995 167.63314819 76.33909607 C167.66012614 79.91717889 167.68117407 83.4952748 167.70115018 87.07340264 C167.72305372 90.81569811 167.75042099 94.55795354 167.77720642 98.30021667 C167.82707433 105.38322169 167.872035 112.466249 167.91522878 119.54929751 C167.96465166 127.61458267 168.01955103 135.67982765 168.07490838 143.74507391 C168.1886378 160.33265707 168.29549644 176.9202771 168.39782715 193.50793457 C168.94201797 192.82589462 169.4862088 192.14385468 170.04689026 191.44114685 C170.76348312 190.54400467 171.48007599 189.64686249 172.21838379 188.72253418 C172.92757462 187.83424423 173.63676544 186.94595428 174.3674469 186.03074646 C176.80779273 182.99853933 179.30703998 180.0297235 181.83532715 177.07043457 C185.26782572 173.03704011 188.67077029 168.98379296 192.02282715 164.88293457 C192.74599121 164.00250488 193.46915527 163.1220752 194.2142334 162.21496582 C195.72824932 160.33801943 197.21349122 158.43763781 198.6751709 156.51965332 C199.42927246 155.54641113 200.18337402 154.57316895 200.96032715 153.57043457 C201.95226074 152.25752441 201.95226074 152.25752441 202.9642334 150.91809082 C208.43907739 145.49597406 215.25390799 143.79685862 222.65612793 142.50915527 C223.54498688 142.34436676 224.43384583 142.17957825 225.34963989 142.00979614 C228.26214761 141.47280921 231.17745458 140.95314763 234.09313965 140.43371582 C236.13018753 140.06173859 238.16704003 139.68868993 240.20370483 139.31462097 C245.54891461 138.33589865 250.89668312 137.37193414 256.24511719 136.41101074 C261.68440405 135.4309627 267.12105222 134.43649874 272.5579834 133.44348145 C280.50343246 131.9944449 288.44981951 130.55076582 296.39831543 129.11853027 C297.22444336 128.96944717 298.05057129 128.82036407 298.9017334 128.66676331 C311.90259573 126.32841883 311.90259573 126.32841883 318.39782715 126.19543457 C319.57345215 126.15805176 320.74907715 126.12066895 321.96032715 126.08215332 C334.41175159 126.74964321 346.98615912 132.78998626 358.47668457 137.2611084 C361.21746786 138.3232017 363.96640438 139.36197781 366.71618652 140.4005127 C388.64475328 148.81780175 388.64475328 148.81780175 394.52282715 160.49230957 C400.05324898 173.2320313 394.04529059 185.51196434 389.39782715 197.50793457 C388.89946314 198.80928369 388.40178053 200.1108939 387.90466309 201.41271973 C378.06150253 227.1805838 378.06150253 227.1805838 376.39782715 230.50793457 C377.48047852 230.61444336 378.56312988 230.72095215 379.67858887 230.83068848 C385.20672126 231.52596623 390.52200413 232.93862208 395.90563965 234.34387207 C396.98989227 234.62389069 398.0741449 234.9039093 399.19125366 235.19241333 C401.47284857 235.78332483 403.75377366 236.37682799 406.03405762 236.97277832 C409.51639576 237.88125674 413.00182572 238.77708233 416.4876709 239.67199707 C418.71052548 240.24935904 420.93318852 240.82745905 423.15563965 241.40637207 C424.19326447 241.67211029 425.23088928 241.93784851 426.29995728 242.2116394 C433.8879139 244.2107972 440.11420186 246.24810296 445.2064209 252.45715332 C447.23260028 255.94483914 447.37983351 259.54033648 447.39782715 263.50793457 C448.97563965 263.44605957 448.97563965 263.44605957 450.58532715 263.38293457 C455.52362635 263.54484602 458.07109041 264.12512778 461.51794434 267.71765137 C463.71425071 270.97759754 463.86814544 272.57991776 463.78845215 276.46496582 C463.76911621 278.13269043 463.76911621 278.13269043 463.74938965 279.83410645 C463.71587402 280.98459473 463.6823584 282.13508301 463.64782715 283.32043457 C463.62978027 284.49025879 463.6117334 285.66008301 463.59313965 286.86535645 C463.54609155 289.74705237 463.48036424 292.62707254 463.39782715 295.50793457 C464.61599121 295.47312988 465.83415527 295.4383252 467.0892334 295.40246582 C468.71291743 295.37430945 470.3366165 295.34701128 471.96032715 295.32043457 C473.16012207 295.28272949 473.16012207 295.28272949 474.38415527 295.2442627 C479.82428707 295.17764884 483.72303747 295.60166558 488.39782715 298.50793457 C491.00698019 303.45252309 491.77517073 307.16041323 491.78601074 312.81677246 C491.7912677 313.51041397 491.79652466 314.20405548 491.80194092 314.91871643 C491.81504131 317.18957684 491.80643993 319.45972449 491.79626465 321.73059082 C491.79828803 323.32047153 491.80120167 324.91035133 491.80496216 326.50022888 C491.8093718 329.8229562 491.8029977 333.14544068 491.78894043 336.46813965 C491.77183519 340.71726555 491.78170654 344.96582345 491.79965782 349.21492863 C491.81052067 352.49470771 491.80703813 355.77435307 491.79927444 359.05413628 C491.79728007 360.62055975 491.79970481 362.18699555 491.8067131 363.75340462 C491.81437071 365.94542548 491.80266515 368.13653767 491.78601074 370.32849121 C491.78243057 372.19544395 491.78243057 372.19544395 491.77877808 374.10011292 C491.23838601 378.9342258 489.96935519 382.14388062 486.26216125 385.36164856 C482.29734391 386.94834009 478.80118224 386.90394266 474.56848145 386.84851074 C473.25065422 386.84916786 473.25065422 386.84916786 471.90620422 386.84983826 C469.01125629 386.8477534 466.11689228 386.82443658 463.2220459 386.80090332 C461.21137305 386.79530629 459.20069611 386.7910367 457.1900177 386.78804016 C451.9045375 386.77659984 446.61930561 386.74713951 441.33392334 386.71392822 C435.93794107 386.6832099 430.54191858 386.66953105 425.14587402 386.65441895 C414.56308279 386.62226916 403.98047564 386.5710825 393.39782715 386.50793457 C393.71179986 385.0619439 394.02777691 383.61638834 394.34460449 382.17102051 C394.52035004 381.36598083 394.69609558 380.56094116 394.87716675 379.73150635 C395.43759427 377.33810209 396.18791824 375.06869257 397.02282715 372.75793457 C400.56264867 361.14515274 398.32594495 350.95627694 392.89782715 340.50793457 C387.51063735 330.95731167 381.29306839 321.87931425 375.24157715 312.74230957 C374.73392822 311.97032227 374.2262793 311.19833496 373.70324707 310.4029541 C372.72504979 308.91558235 371.74103425 307.4320171 370.75061035 305.95275879 C367.39782715 300.84591926 367.39782715 300.84591926 367.39782715 297.50793457 C372.50951055 295.43386495 376.86576096 295.26473018 382.27282715 295.38293457 C384.95407715 295.42418457 387.63532715 295.46543457 390.39782715 295.50793457 C390.39782715 287.91793457 390.39782715 280.32793457 390.39782715 272.50793457 C387.81970215 271.90980957 385.24157715 271.31168457 382.58532715 270.69543457 C375.81256171 269.11282428 369.09189355 267.39858211 362.39782715 265.50793457 C362.23999756 266.09131592 362.08216797 266.67469727 361.91955566 267.27575684 C360.54450961 272.12244909 358.94223984 276.72868277 356.9251709 281.34777832 C356.50171387 282.34873535 356.07825684 283.34969238 355.64196777 284.38098145 C354.7667742 286.43356547 353.86002176 288.47296199 352.92321777 290.49816895 C350.50885468 296.3563683 350.50885468 296.3563683 351.32946777 302.4654541 C352.85247519 305.3053294 354.52276114 307.88918685 356.39782715 310.50793457 C357.18358648 311.73588421 357.96770556 312.96488671 358.74938965 314.19543457 C359.50322148 315.30232272 360.26110257 316.40646306 361.02282715 317.50793457 C365.02056391 323.40333609 368.90118427 329.36389825 372.71032715 335.38293457 C373.20162109 336.15508301 373.69291504 336.92723145 374.19909668 337.72277832 C385.0109663 354.85718535 385.0109663 354.85718535 384.39782715 363.50793457 C381.38751128 376.54359668 375.97610983 389.2915306 371.52282715 401.88293457 C370.89487747 403.66075317 370.89487747 403.66075317 370.25424194 405.4744873 C368.12020176 411.51626384 365.9833631 417.55703986 363.84362793 423.59680176 C361.94599184 428.95473464 360.05740943 434.31578133 358.17333984 439.67849731 C356.90294381 443.28954017 355.62551977 446.89806314 354.34576416 450.50579834 C353.76048754 452.15971817 353.17795864 453.81461319 352.59832764 455.47052002 C351.80100096 457.74625604 350.99336459 460.01807041 350.1829834 462.28918457 C349.84508034 463.26518112 349.84508034 463.26518112 349.50035095 464.26089478 C346.91931374 471.41542779 342.91534541 477.4780187 336.39782715 481.50793457 C329.90633505 483.95836536 323.87715911 483.93302043 317.39782715 481.50793457 C311.59385182 478.33217449 308.04324637 474.54286798 305.52282715 468.44543457 C302.66459054 458.66230439 307.3045297 448.03203961 310.61657715 438.85168457 C311.03395142 437.66989624 311.45132568 436.48810791 311.88134766 435.27050781 C312.98830165 432.14204327 314.1036973 429.01687029 315.22351074 425.89300537 C316.32534451 422.81279755 317.41564261 419.72851419 318.50720215 416.64465332 C325.16825643 397.85706431 325.16825643 397.85706431 328.56154633 388.57657623 C329.27406618 386.62646056 329.98344136 384.67522912 330.69189453 382.72363281 C331.57996042 380.28083486 332.47443304 377.84035365 333.3762207 375.40258789 C333.77329224 374.30748901 334.17036377 373.21239014 334.57946777 372.08410645 C334.93158325 371.12500366 335.28369873 370.16590088 335.64648438 369.17773438 C336.64174811 365.64119283 337.01847369 362.82084071 335.42663574 359.45349121 C334.97111328 358.78180908 334.51559082 358.11012695 334.04626465 357.41809082 C333.53200928 356.64545898 333.01775391 355.87282715 332.48791504 355.07678223 C331.63894653 353.83614014 331.63894653 353.83614014 330.77282715 352.57043457 C329.56982401 350.76783624 328.36804272 348.96442201 327.1673584 347.16027832 C326.54296875 346.228125 325.9185791 345.29597168 325.27526855 344.33557129 C322.27053202 339.81010204 319.3660844 335.22233628 316.46032715 330.63293457 C315.60084473 329.28171509 315.60084473 329.28171509 314.72399902 327.90319824 C311.64835139 323.06728238 308.5883849 318.22193827 305.5423584 313.36730957 C304.91128174 312.36554688 304.28020508 311.36378418 303.63000488 310.33166504 C302.42068989 308.41157743 301.21555307 306.4888499 300.01525879 304.56311035 C299.19529419 303.26349365 299.19529419 303.26349365 298.35876465 301.93762207 C297.88229492 301.17691406 297.4058252 300.41620605 296.91491699 299.63244629 C295.24929975 297.29993885 293.57187351 295.37874891 291.39782715 293.50793457 C290.40782715 293.50793457 289.41782715 293.50793457 288.39782715 293.50793457 C288.18786606 294.23138062 287.97790497 294.95482666 287.76158142 295.70019531 C285.74780781 302.6387864 283.73387758 309.57733201 281.71978664 316.51583099 C280.68522071 320.07990701 279.65070797 323.64399844 278.61633301 327.20812988 C278.41713729 327.89446786 278.21794157 328.58080584 278.01270962 329.28794193 C277.61207717 330.66837703 277.21147607 332.04882124 276.81090641 333.42927456 C275.8169554 336.85420879 274.82210434 340.27887708 273.82542419 343.70301819 C271.99091081 350.00739445 270.16461762 356.3138036 268.36682129 362.62878418 C267.89678429 364.26931763 267.89678429 364.26931763 267.41725159 365.94299316 C266.84295798 367.94855809 266.27302712 369.95538033 265.70860291 371.96374512 C263.79102516 378.63465671 261.35467937 384.74719507 257.9486084 390.81652832 C255.81037519 394.70948308 253.77184677 398.64965315 251.7532959 402.60559082 C245.25909819 415.31817205 238.69676279 427.98193207 231.77697754 440.46960449 C229.09602198 445.32527012 226.51295976 450.21541518 224.01501465 455.16809082 C223.15686157 456.86022705 223.15686157 456.86022705 222.28137207 458.58654785 C221.18388558 460.76003556 220.09734588 462.93910027 219.02404785 465.12463379 C215.5057358 472.07540408 211.85044499 478.17561094 204.77282715 481.88293457 C203.98907715 482.08918457 203.20532715 482.29543457 202.39782715 482.50793457 C201.61407715 482.73480957 200.83032715 482.96168457 200.02282715 483.19543457 C196.68031125 483.59335313 193.71136925 483.02397801 190.39782715 482.50793457 C190.11567399 475.06606492 189.90455935 467.62476907 189.77608109 460.17871666 C189.71430468 456.71796931 189.63107216 453.26096159 189.49255371 449.80236816 C188.79137644 431.76211942 190.48745752 419.0888727 200.38830566 403.72695923 C216.12479989 378.5188869 225.79716891 352.23018245 233.41992188 323.6574707 C234.64703309 319.08548852 235.91343984 314.52445288 237.17907715 309.9630127 C237.42654757 309.07067743 237.67401798 308.17834217 237.9289875 307.25896645 C238.42130257 305.48416703 238.91382409 303.70942487 239.40655899 301.93474197 C240.123823 299.34676137 240.83697382 296.75767317 241.5496521 294.16842651 C244.70047429 282.75972062 248.15880162 271.56468605 252.39782715 260.50793457 C253.04764133 258.77830793 253.69669263 257.04839454 254.34509277 255.3182373 C256.45933954 249.70381507 258.614237 244.10542463 260.77282715 238.50793457 C261.55088032 236.48384964 262.328708 234.45967802 263.10632324 232.4354248 C265.53208999 226.12443327 267.9642895 219.81593301 270.39782715 213.50793457 C270.80863525 212.44278625 271.21944336 211.37763794 271.6427002 210.2802124 C276.88594177 196.68617583 282.13769167 183.09544271 287.39782715 169.50793457 C286.7204248 169.67881592 286.04302246 169.84969727 285.34509277 170.02575684 C278.16037442 171.76483245 270.9622581 173.15727054 263.67907715 174.41027832 C262.7261377 174.57573151 261.77319824 174.74118469 260.79138184 174.91165161 C256.81559737 175.60088523 252.83967394 176.28808167 248.85974121 176.95300293 C245.92197304 177.44588035 242.98802625 177.95771936 240.05407715 178.47277832 C239.15821899 178.61771225 238.26236084 178.76264618 237.33935547 178.91197205 C229.74963745 180.27121773 226.03793363 183.42110794 221.27282715 189.44543457 C217.92018354 193.63068834 214.51001203 197.7469034 211.02282715 201.82043457 C207.23927524 206.25589116 203.59247394 210.77397437 200.02282715 215.38293457 C195.57306124 221.12079061 190.90665813 226.63292351 186.11120605 232.08435059 C182.02492005 236.73766547 178.16257517 241.51454311 174.39782715 246.43371582 C172.175469 248.73854429 170.36595847 249.42020964 167.39782715 250.50793457 C167.40059253 251.79506883 167.40335791 253.08220308 167.40620708 254.40834141 C167.47118604 284.96495869 167.5206514 315.52155732 167.55102314 346.07822711 C167.55477524 349.83954573 167.55865821 353.60086421 167.56262207 357.36218262 C167.563409 358.11099075 167.56419593 358.85979889 167.56500671 359.63129818 C167.57805925 371.75456226 167.60171225 383.87778365 167.62928554 396.00102241 C167.65734398 408.44136006 167.67400433 420.88167536 167.68009263 433.32204336 C167.68420817 440.9979065 167.69720495 448.67364896 167.72157655 456.34947496 C167.7393148 462.23613426 167.74119165 468.12273168 167.73715019 474.00941849 C167.73797617 476.42370916 167.74395213 478.83800437 167.75544357 481.25226784 C167.77035982 484.54742109 167.76678352 487.84205717 167.7585907 491.13722229 C167.76732922 492.09346042 167.77606775 493.04969855 167.78507107 494.0349136 C167.73981001 500.76571131 166.80906208 505.65829329 162.33532715 510.94543457 C154.18893252 515.2786232 144.44518488 511.46139873 136.21032715 508.97668457 C134.90183089 508.59264805 133.59297591 508.20983204 132.28379822 507.828125 C128.72766307 506.7877205 125.17658652 505.73093638 121.62617111 504.67120361 C117.86289616 503.55106067 114.09514848 502.44617424 110.32775879 501.33996582 C104.67513708 499.67872145 99.02408091 498.01230701 93.37466908 496.34017944 C82.53948256 493.13352334 71.69466925 489.96061024 60.84589767 486.80024719 C53.41731784 484.63613296 45.9895131 482.46935719 38.56158447 480.30300903 C36.7460546 479.77353538 34.93050289 479.24413661 33.1149292 478.71481323 C27.9085938 477.19674503 22.70295162 475.67634044 17.49830818 474.15248108 C15.91640602 473.68970468 14.33427521 473.22770894 12.75189018 472.7665863 C-14.74337981 464.75260692 -14.74337981 464.75260692 -18.60217285 460.50793457 C-20.71753056 456.36225681 -20.88541162 452.53939196 -20.85664845 447.97813606 C-20.85985492 447.2248261 -20.8630614 446.47151614 -20.86636505 445.6953786 C-20.87468827 443.16277833 -20.86873266 440.63041312 -20.86286926 438.09780884 C-20.86588889 436.26706946 -20.86977742 434.43633134 -20.87446183 432.60559547 C-20.88477495 427.5680861 -20.88255159 422.53064763 -20.87828124 417.49313235 C-20.87582001 412.06289823 -20.88482066 406.63268144 -20.89231873 401.20245361 C-20.90508464 390.56138869 -20.90685706 379.92034898 -20.90451846 369.2792777 C-20.90273723 360.63195126 -20.90448075 351.98463249 -20.9087429 343.33730698 C-20.90933809 342.1077451 -20.90993328 340.87818322 -20.91054651 339.61136188 C-20.91175823 337.11370167 -20.91297236 334.61604146 -20.91418888 332.11838125 C-20.92476134 309.3501867 -20.92329356 286.58200548 -20.91732094 263.8138101 C-20.91196357 243.02872934 -20.91989404 222.24369101 -20.93835449 201.45861816 C-20.95906714 178.11035147 -20.9697675 154.76211087 -20.96577901 131.41383445 C-20.96386441 119.04994391 -20.9663796 106.68609202 -20.98049355 94.3222084 C-20.99238715 83.79661537 -20.99383498 73.27108478 -20.98170338 62.74549092 C-20.97580045 57.37354153 -20.97475426 52.00170645 -20.98670578 46.62976456 C-20.99751639 41.71356743 -20.99451888 36.79758074 -20.9804441 31.88139366 C-20.97778383 30.10148429 -20.98020517 28.3215587 -20.98817996 26.54166521 C-20.99826168 24.12399375 -20.98988519 21.70705722 -20.97690296 19.28941536 C-20.98421231 18.59690432 -20.99152165 17.90439327 -20.99905249 17.19089705 C-20.9329338 11.25846648 -19.39384001 6.77668125 -15.70230865 2.10218048 C-10.65771214 -0.49200502 -5.58819544 -0.04102398 0 0 Z M111.39782715 239.50793457 C108.84267924 244.50561223 108.01817006 248.20271751 107.99377441 253.8927002 C107.98691116 254.59448898 107.98004791 255.29627777 107.97297668 256.01933289 C107.9548131 258.31782797 107.95853037 260.61563377 107.9642334 262.91418457 C107.95966706 264.52409077 107.95436014 266.13399503 107.948349 267.74389648 C107.93943881 271.10949652 107.9418176 274.47485899 107.95178223 277.8404541 C107.96327845 282.14116067 107.94304038 286.44104694 107.91386509 290.74164581 C107.89547099 294.06350867 107.89580173 297.385176 107.90150261 300.70707703 C107.90165538 302.29222262 107.89564745 303.87738183 107.88321114 305.46247864 C107.86823837 307.68322456 107.87902127 309.90246823 107.89611816 312.12316895 C107.89628433 313.38334839 107.8964505 314.64352783 107.8966217 315.94189453 C108.52885058 320.44015672 109.84510774 322.76263336 112.39782715 326.50793457 C116.42484772 329.19261495 119.66626345 329.18981194 124.39782715 328.50793457 C127.98984391 326.36800969 129.91210895 324.38046907 131.39782715 320.50793457 C131.59743952 318.02541091 131.69162999 315.65466129 131.68835449 313.17248535 C131.69507172 312.44026764 131.70178894 311.70804993 131.70870972 310.9536438 C131.7276834 308.53677556 131.73161357 306.12018512 131.73376465 303.70324707 C131.74019309 302.01939785 131.74692149 300.33554976 131.75393677 298.65170288 C131.76590799 295.12279674 131.76961776 291.59398849 131.76843262 288.06506348 C131.76822945 283.55011031 131.79552945 279.03578675 131.82997704 274.52098274 C131.85224931 271.04305151 131.85627006 267.5652717 131.85521317 264.08727646 C131.85756871 262.42314357 131.8663897 260.75900648 131.8818779 259.094944 C131.90154506 256.76357591 131.89569813 254.43356428 131.88366699 252.10217285 C131.90052551 251.07797241 131.90052551 251.07797241 131.91772461 250.03308105 C131.8532984 245.10304532 130.44268696 242.32519563 127.39782715 238.50793457 C122.48582277 234.78158642 115.90562085 235.62622333 111.39782715 239.50793457 Z M411.39782715 284.50793457 C411.39782715 288.13793457 411.39782715 291.76793457 411.39782715 295.50793457 C421.62782715 295.50793457 431.85782715 295.50793457 442.39782715 295.50793457 C442.39782715 291.87793457 442.39782715 288.24793457 442.39782715 284.50793457 C432.16782715 284.50793457 421.93782715 284.50793457 411.39782715 284.50793457 Z " fill="#000000" transform="translate(20.6021728515625,-0.5079345703125)"/>
<path d="M0 0 C8.75598193 5.54458137 14.47820079 13.5133705 17.69921875 23.34375 C20.09947271 34.91893921 19.18764065 46.48499594 13.0390625 56.7265625 C6.10684082 66.6703231 -2.96327249 72.65102745 -14.640625 75.52734375 C-28.57669642 76.68742753 -38.87841772 74.57121541 -49.640625 65.52734375 C-56.95733078 58.53240515 -62.10020437 49.83015641 -62.9765625 39.609375 C-63.26293739 26.17792325 -60.59234357 15.96795185 -51.640625 5.52734375 C-37.6111887 -8.28998445 -16.62073276 -9.26925481 0 0 Z " fill="#000000" transform="translate(424.640625,53.47265625)"/>
<path d="M0 0 C3.076843 2.94998956 5.6826299 5.72340733 7.859375 9.390625 C8.33503906 10.18210937 8.81070313 10.97359375 9.30078125 11.7890625 C9.77902344 12.60117187 10.25726563 13.41328125 10.75 14.25 C11.72291147 15.88083332 12.69681618 17.51107465 13.671875 19.140625 C14.30754395 20.21618652 14.30754395 20.21618652 14.95605469 21.31347656 C15.89029991 22.96665929 15.89029991 22.96665929 17 24 C20.90404864 53.42745787 14.86245843 78.47051187 4.2902832 105.640625 C3.83473557 106.81541916 3.37918793 107.99021332 2.90983582 109.2006073 C2.05186709 111.38643527 1.1754115 113.56515131 0.27558899 115.73408508 C-3.1199433 124.21550253 -3.71185603 130.33892025 -5 140 C-22.49 140 -39.98 140 -58 140 C-57.1666443 136.66657719 -56.26849309 134.29120035 -54.75 131.26953125 C-54.08484375 129.94211914 -54.08484375 129.94211914 -53.40625 128.58789062 C-52.9421875 127.67201172 -52.478125 126.75613281 -52 125.8125 C-51.5359375 124.88501953 -51.071875 123.95753906 -50.59375 123.00195312 C-47.14037187 116.14037187 -47.14037187 116.14037187 -46 115 C-43.1883662 114.91138008 -40.40141745 114.88477645 -37.58984375 114.90234375 C-36.74780899 114.9037587 -35.90577423 114.90517365 -35.03822327 114.90663147 C-32.33794665 114.91224737 -29.63775172 114.92480252 -26.9375 114.9375 C-25.11132932 114.94251295 -23.28515734 114.94707621 -21.45898438 114.95117188 C-16.97262458 114.96222196 -12.48632616 114.97949721 -8 115 C-8.01776489 113.95748581 -8.03552979 112.91497162 -8.05383301 111.84086609 C-8.2179028 101.8867034 -8.33681989 91.9328241 -8.41449738 81.97760296 C-8.45577906 76.86265753 -8.51151347 71.74882598 -8.60351562 66.63452148 C-9.01463 43.18571239 -9.10908226 21.98765766 0 0 Z " fill="#000000" transform="translate(315,325)"/>
</svg>
