<?xml version="1.0" standalone="no"?>
<!DOCTYPE svg PUBLIC "-//W3C//DTD SVG 20010904//EN"
 "http://www.w3.org/TR/2001/REC-SVG-20010904/DTD/svg10.dtd">
<svg version="1.0" xmlns="http://www.w3.org/2000/svg"
 width="512.000000pt" height="512.000000pt" viewBox="0 0 512.000000 512.000000"
 preserveAspectRatio="xMidYMid meet">

<g transform="translate(0.000000,512.000000) scale(0.100000,-0.100000)"
fill="#000000" stroke="none">
<path d="M435 5102 c-62 -21 -114 -60 -150 -111 -58 -85 -55 62 -55 -2351 0
-1466 3 -2235 10 -2271 34 -180 179 -325 359 -359 74 -14 3558 -14 3632 0 180
34 325 179 359 359 5 30 10 199 10 377 l0 324 -150 0 -150 0 0 -328 c0 -370
-1 -376 -76 -419 l-39 -23 -1770 0 -1770 0 -39 23 c-49 28 -76 77 -76 139 l0
48 1653 2 1652 3 49 24 c63 31 122 90 150 150 l21 46 0 2080 0 2080 -21 46
c-31 66 -78 114 -142 146 l-57 28 -1675 2 c-1568 2 -1678 1 -1725 -15z m1139
-1122 c55 -26 390 -363 411 -412 17 -43 19 -95 5 -134 -6 -15 -65 -82 -130
-149 -75 -76 -120 -130 -120 -143 0 -83 229 -383 418 -549 130 -112 327 -242
371 -243 7 0 70 56 140 124 135 132 175 155 244 141 55 -12 87 -39 273 -227
158 -160 182 -189 192 -228 22 -88 6 -118 -147 -273 -75 -77 -152 -147 -171
-157 -198 -100 -557 1 -963 270 -396 263 -733 661 -915 1080 -74 172 -95 258
-96 400 -1 168 7 184 170 350 167 171 223 197 318 150z"/>
<path d="M4310 4160 l0 -441 233 3 234 3 37 29 c74 56 77 75 74 419 l-3 304
-25 36 c-13 20 -43 46 -65 59 -38 22 -52 23 -262 26 l-223 4 0 -442z"/>
<path d="M4310 2991 l0 -441 218 0 c270 0 304 12 347 113 12 30 15 88 15 329
0 277 -1 294 -21 336 -13 26 -38 54 -62 70 l-40 27 -229 3 -228 3 0 -440z"/>
<path d="M4310 1819 l0 -440 223 3 c210 3 224 4 262 26 22 13 52 39 65 59 l25
36 3 296 c3 310 0 346 -40 396 -45 57 -81 65 -320 65 l-218 0 0 -441z"/>
</g>
</svg>
