<?xml version="1.0" encoding="UTF-8"?>
<svg version="1.1" xmlns="http://www.w3.org/2000/svg" width="512" height="512">
<path d="M0 0 C1.57201172 0.00845947 1.57201172 0.00845947 3.17578125 0.01708984 C26.98878912 0.3864255 48.3604686 8.55263085 66.3125 24.3125 C67.07304687 24.97765625 67.83359375 25.6428125 68.6171875 26.328125 C82.16653735 38.98668714 90.03849272 56.53838319 94.3125 74.3125 C94.539375 75.25222656 94.76625 76.19195312 95 77.16015625 C99.97622839 101.7302839 94.74722841 127.27865314 81.3125 148.3125 C78.77207456 151.75986233 76.07355214 155.04100125 73.3125 158.3125 C72.549375 159.323125 71.78625 160.33375 71 161.375 C56.40886758 177.32344706 37.81896656 185.18588336 17.3125 190.3125 C16.9825 254.6625 16.6525 319.0125 16.3125 385.3125 C23.2425 385.3125 30.1725 385.3125 37.3125 385.3125 C42.53779676 388.29838386 45.51853401 390.14174722 49.55761719 394.16943359 C50.03174545 394.6383049 50.50587372 395.10717621 50.99436951 395.59025574 C52.54027356 397.12308879 54.07509723 398.66647405 55.609375 400.2109375 C56.69033852 401.28987692 57.77174677 402.36837093 58.85357666 403.44644165 C61.11090415 405.69936354 63.36276049 407.95757747 65.61083984 410.21972656 C68.48441401 413.11041201 71.3712767 415.98739038 74.26237106 418.86054039 C76.49493436 421.08223569 78.72026946 423.31106079 80.94351959 425.5420723 C82.00499939 426.60554469 83.06868834 427.66681705 84.13466644 428.72578049 C85.62550113 430.20894866 87.10630461 431.70148022 88.58496094 433.19677734 C89.42766541 434.04186859 90.27036987 434.88695984 91.13861084 435.75765991 C94.43848417 439.63580091 96.74051449 443.58039702 96.75 448.75 C96.76933594 449.44996094 96.78867188 450.14992188 96.80859375 450.87109375 C95.0295981 459.62599362 87.47846503 465.58496698 81.4140625 471.609375 C80.33512308 472.69033852 79.25662907 473.77174677 78.17855835 474.85357666 C75.92563646 477.11090415 73.66742253 479.36276049 71.40527344 481.61083984 C68.51458799 484.48441401 65.63760962 487.3712767 62.76445961 490.26237106 C60.54276431 492.49493436 58.31393921 494.72026946 56.0829277 496.94351959 C55.01945531 498.00499939 53.95818295 499.06868834 52.89921951 500.13466644 C51.41605134 501.62550113 49.92351978 503.10630461 48.42822266 504.58496094 C47.58313141 505.42766541 46.73804016 506.27036987 45.86734009 507.13861084 C39.34258583 512.69046225 33.77144558 512.74999327 25.52734375 512.71655273 C24.34616974 512.72341599 23.16499573 512.73027924 21.94802856 512.73735046 C18.72069683 512.75248173 15.49372856 512.75412204 12.2663765 512.74840808 C9.56755473 512.74531046 6.86878488 512.7514149 4.16997051 512.75744683 C-2.19825399 512.77147571 -8.56634429 512.76994398 -14.93457031 512.75854492 C-21.49556029 512.74706007 -28.05614167 512.76114885 -34.61707783 512.7879414 C-40.25973793 512.81011782 -45.90226994 512.81673159 -51.54497051 512.81086498 C-54.9109495 512.80749941 -58.27666648 512.80988365 -61.64260864 512.82711601 C-65.39616357 512.84198401 -69.14881713 512.83137855 -72.90234375 512.81420898 C-74.01213593 512.82387695 -75.1219281 512.83354492 -76.26535034 512.84350586 C-82.21379661 512.78649619 -86.13739678 512.55523922 -90.6875 508.3125 C-95.34942196 503.13946951 -95.26037576 498.52567257 -95.20507812 491.90429688 C-95.2120874 490.86942642 -95.21909668 489.83455597 -95.22631836 488.76832581 C-95.24388897 485.35569232 -95.23227829 481.94389157 -95.21875 478.53125 C-95.22144517 476.15523113 -95.22532779 473.77921334 -95.23034668 471.40319824 C-95.23624049 466.42673223 -95.22768215 461.45055366 -95.20898438 456.47412109 C-95.18619537 450.09838734 -95.19931901 443.72332715 -95.22327423 437.3476181 C-95.23773508 432.44222955 -95.23312479 427.53700043 -95.22276306 422.63160706 C-95.22009659 420.28088806 -95.22336269 417.93015455 -95.23268127 415.57945251 C-95.2428511 412.29281323 -95.2273383 409.00726151 -95.20507812 405.72070312 C-95.21722351 404.26640648 -95.21722351 404.26640648 -95.22961426 402.7827301 C-95.15890466 397.14133529 -94.61817942 393.67411838 -90.6875 389.3125 C-69.57971799 375.24064532 -40.05589679 385.3125 -14.6875 385.3125 C-15.1825 288.7875 -15.1825 288.7875 -15.6875 190.3125 C-20.6375 188.9925 -25.5875 187.6725 -30.6875 186.3125 C-56.6105734 176.62407863 -76.47728599 158.68247273 -88 133.5 C-98.08081551 108.08735924 -97.45943869 80.50558723 -87.02734375 55.265625 C-82.95355512 46.2866623 -78.03562982 38.84287262 -71.6875 31.3125 C-71.07777344 30.50167969 -70.46804687 29.69085937 -69.83984375 28.85546875 C-53.16320799 9.15222033 -25.06195945 -0.14276832 0 0 Z M13.56176758 69.68847656 C12.70220459 70.60081055 11.8426416 71.51314453 10.95703125 72.453125 C9.99550072 73.45057676 9.03391049 74.44797097 8.07226562 75.4453125 C6.58758307 77.01125617 5.1073571 78.58126304 3.62915039 80.15332031 C2.18633511 81.6802544 0.72883269 83.19196637 -0.73046875 84.703125 C-2.01473755 86.0648584 -2.01473755 86.0648584 -3.32495117 87.45410156 C-5.6875 89.3125 -5.6875 89.3125 -7.8815918 89.18652344 C-10.0222261 88.15049926 -11.55965923 86.91862723 -13.3125 85.3125 C-17.55593164 81.45820401 -20.34783883 80.85309579 -26.07421875 80.89453125 C-30.37978003 81.58316362 -33.00215822 83.98633803 -35.6875 87.3125 C-37.95355341 91.13741565 -38.56378461 94.95335536 -37.6875 99.3125 C-34.77634977 105.49962492 -30.6065778 109.81660081 -25.75 114.5625 C-25.04681641 115.26890625 -24.34363281 115.9753125 -23.61914062 116.703125 C-18.50137037 121.76813474 -14.18307126 125.85358747 -6.6875 126.3125 C1.95901132 124.8087589 8.58811967 116.1981257 14.5859375 110.2421875 C15.56066513 109.27600998 15.56066513 109.27600998 16.55508423 108.29031372 C17.91260488 106.94215401 19.26874406 105.59260189 20.62353516 104.24169922 C22.69640861 102.17863354 24.77971377 100.12647646 26.86328125 98.07421875 C28.18815549 96.75586674 29.51239713 95.43687862 30.8359375 94.1171875 C31.45673187 93.50873993 32.07752625 92.90029236 32.71713257 92.27340698 C36.39810934 88.57320638 39.09659361 85.49573529 39.46484375 80.06640625 C38.91169631 74.42430231 37.64626845 71.26941902 33.3125 67.3125 C25.86130049 62.99864765 19.90474438 64.20965786 13.56176758 69.68847656 Z " fill="#000000" transform="translate(94.6875,-0.3125)"/>
<path d="M0 0 C0.85078125 0.60457031 1.7015625 1.20914062 2.578125 1.83203125 C21.63256691 16.18131189 32.56048444 38.90529993 36.59204102 61.99316406 C40.09862391 87.8382119 34.86740261 112.81622452 19.44140625 133.90625 C3.42570905 154.20134149 -16.6547133 166.93094266 -42 172 C-42.33 236.35 -42.66 300.7 -43 367 C-36.07 367 -29.14 367 -22 367 C-16.91981038 369.54009481 -14.51120821 371.11374976 -10.66894531 374.95874023 C-10.17384964 375.45018524 -9.67875397 375.94163025 -9.1686554 376.44796753 C-7.54768047 378.06089112 -5.93774001 379.68433963 -4.328125 381.30859375 C-3.19857042 382.43866746 -2.06849617 383.56822196 -0.93792725 384.69728088 C1.42358141 387.05887901 3.77985853 389.42553709 6.13232422 391.79614258 C9.14559953 394.83214305 12.16986449 397.8569043 15.19788742 400.87818813 C17.52999392 403.20695181 19.8570815 405.54067764 22.1825943 407.87602425 C23.29602155 408.99329542 24.4107941 410.10922762 25.52693939 411.22378349 C27.08513052 412.78160326 28.63665659 414.34576916 30.18652344 415.91186523 C31.06999451 416.7999437 31.95346558 417.68802216 32.8637085 418.60301208 C36.30743939 422.46698913 37.30287577 425.22533007 37.375 430.375 C37.40335938 431.29023438 37.43171875 432.20546875 37.4609375 433.1484375 C36.51311108 439.0121094 32.09427388 443.1587469 28.03540039 447.23925781 C27.55516922 447.72459991 27.07493805 448.20994202 26.58015442 448.70999146 C25.00774164 450.29618741 23.42813037 451.87496409 21.84765625 453.453125 C20.74412012 454.56055261 19.64080642 455.66820191 18.53770447 456.77606201 C16.2320563 459.08914689 13.9226038 461.39835093 11.6105957 463.70507812 C8.65203455 466.65783038 5.7050298 469.62182717 2.76097965 472.58903885 C0.48851048 474.87624976 -1.79085846 477.15648569 -4.07226753 479.43477631 C-5.16183217 480.52485335 -6.24904389 481.6172876 -7.33381462 482.71213531 C-8.85079875 484.2414828 -10.37705445 485.76094957 -11.90600586 487.27832031 C-12.77108261 488.14402649 -13.63615936 489.00973267 -14.52745056 489.90167236 C-18.44710819 493.22808752 -21.95034857 494.2514493 -27.04304504 494.24050903 C-28.53003906 494.24463303 -28.53003906 494.24463303 -30.04707336 494.24884033 C-31.12313339 494.24164978 -32.19919342 494.23445923 -33.30786133 494.22705078 C-34.44975922 494.22734283 -35.5916571 494.22763489 -36.76815796 494.22793579 C-40.53952656 494.22654334 -44.31069719 494.21098582 -48.08203125 494.1953125 C-50.6980529 494.19158208 -53.31407594 494.18873524 -55.93009949 494.18673706 C-62.11005333 494.18052709 -68.2899362 494.16412284 -74.46985883 494.14403808 C-81.50731575 494.12166403 -88.54477612 494.11068187 -95.58225977 494.10064721 C-110.05487642 494.07975616 -124.52743721 494.04458958 -139 494 C-138.0672807 492.89883727 -137.13265724 491.79928729 -136.19726562 490.70039368 C-135.67700806 490.08790425 -135.15675049 489.47541483 -134.62072754 488.84436512 C-132.05798782 485.9280034 -129.28726304 483.24250624 -126.5 480.54296875 C-125.27038595 479.33574197 -124.04123343 478.12804495 -122.8125 476.91992188 C-120.90826716 475.0526668 -119.00122253 473.18868464 -117.0859375 471.33276367 C-105.11161365 459.71107873 -95.47175345 448.35398569 -94.75 430.875 C-95.08620676 408.6853538 -111.48918637 395.34908047 -126.0625 380.9375 C-128.51456024 378.51195876 -130.9633177 376.08315102 -133.41015625 373.65234375 C-134.25369408 372.82125343 -134.25369408 372.82125343 -135.11427307 371.97337341 C-136.42844101 370.66769208 -137.71716104 369.33647496 -139 368 C-139 367.67 -139 367.34 -139 367 C-117.55 367 -96.1 367 -74 367 C-74.495 270.475 -74.495 270.475 -75 172 C-79.95 170.68 -84.9 169.36 -90 168 C-100.79062301 164.1568925 -109.9633853 158.99451097 -119 152 C-120.19689453 151.07960937 -120.19689453 151.07960937 -121.41796875 150.140625 C-138.70047058 135.82520755 -150.62282405 113.55402794 -153.71875 91.40625 C-156.0067374 63.69618037 -150.42580893 36.09153675 -132.09375 14.33984375 C-118.49116604 -0.86155138 -101.89181427 -11.13584979 -82 -16 C-81.13246094 -16.22429688 -80.26492188 -16.44859375 -79.37109375 -16.6796875 C-51.7952766 -22.54005039 -22.77379574 -16.30235999 0 0 Z M-46.55004883 52.31494141 C-49.81075143 55.60025868 -53.00077331 58.94591401 -56.16552734 62.32299805 C-57.532033 63.77357814 -58.91423419 65.20932232 -60.296875 66.64453125 C-61.10479492 67.50409424 -61.91271484 68.36365723 -62.74511719 69.24926758 C-65 71 -65 71 -67.20507812 70.85595703 C-69.27667208 69.86806144 -70.28805969 68.8211282 -71.75 67.0625 C-75.07404418 63.60482591 -78.17686922 62.13573539 -83 62 C-87.60915978 62.75825364 -90.46681141 64.5235336 -93.9375 67.625 C-96.42524941 71.69586267 -97.5097807 75.22080592 -97 80 C-95.11652977 84.3213371 -93.00065939 87.36852737 -89.65625 90.671875 C-88.82222656 91.50074219 -87.98820312 92.32960937 -87.12890625 93.18359375 C-86.26136719 94.03050781 -85.39382813 94.87742188 -84.5 95.75 C-83.19869141 97.04357422 -83.19869141 97.04357422 -81.87109375 98.36328125 C-75.10036852 105.37323321 -75.10036852 105.37323321 -66 108 C-60.83559946 106.89929251 -57.79909708 105.45132267 -54 101.8125 C-53.52433594 101.35907227 -53.04867187 100.90564453 -52.55859375 100.43847656 C-50.69026655 98.64105576 -48.84646509 96.81988206 -47 95 C-45.59455649 93.63250749 -44.18910095 92.26502733 -42.78344727 90.89775085 C-40.7048134 88.87068157 -38.63534415 86.83444257 -36.56835938 84.79550171 C-35.53002429 83.77229959 -34.48968401 82.751128 -33.44726562 81.73208618 C-24.57251356 73.49036123 -24.57251356 73.49036123 -19.46875 62.77734375 C-19.57734699 56.38369616 -21.91719647 53.08280353 -26.3125 48.6875 C-33.9713837 43.87843349 -40.36219609 46.69759151 -46.55004883 52.31494141 Z " fill="#000000" transform="translate(475,18)"/>
<path d="M0 0 C22.58755061 18.67704443 34.01971123 41.97262828 37 71 C39.12767004 98.77629515 27.83437544 123.19441452 10.29296875 144.02734375 C-2.22017431 157.49085211 -21.0715884 167.43775351 -39 171 C-40.65 171 -42.3 171 -44 171 C-44 182.55 -44 194.1 -44 206 C-37.0293857 205.84247911 -37.0293857 205.84247911 -30.06005859 205.63964844 C-29.18172363 205.6296582 -28.30338867 205.61966797 -27.3984375 205.609375 C-26.50817871 205.58842773 -25.61791992 205.56748047 -24.70068359 205.54589844 C-18.8909339 206.5227683 -14.71106239 211.0352838 -10.66894531 215.05639648 C-10.17384964 215.54638123 -9.67875397 216.03636597 -9.1686554 216.54119873 C-7.54999254 218.14607451 -5.93875076 219.7581551 -4.328125 221.37109375 C-3.19827724 222.49705021 -2.06820771 223.62278418 -0.93792725 224.74830627 C1.42223626 227.10103221 3.77851854 229.45756442 6.13232422 231.81665039 C9.14560952 234.83574439 12.17014184 237.84328575 15.19788742 240.84786892 C17.53142069 243.16666164 19.857981 245.49235362 22.1825943 247.82008553 C23.29500001 248.93197876 24.4097635 250.04151841 25.52693939 251.1486187 C27.08741662 252.69673506 28.63802233 254.25412579 30.18652344 255.81420898 C31.06999451 256.69705063 31.95346558 257.57989227 32.8637085 258.48948669 C35.89926109 262.05678787 36.89129829 264.80428118 37.3125 269.4375 C36.73842356 275.98197147 33.48454275 279.89092568 28.94946289 284.42285156 C28.44826431 284.92770081 27.94706573 285.43255005 27.43067932 285.95269775 C25.78529291 287.60613745 24.12937359 289.24854503 22.47265625 290.890625 C21.3201623 292.04259984 20.16818752 293.19509429 19.01670837 294.3480835 C16.60803247 296.75666992 14.19429403 299.1600256 11.77661133 301.55957031 C8.68007778 304.63337944 5.59478015 307.71817981 2.51296329 310.80673599 C0.13787659 313.18516531 -2.2421724 315.55857667 -4.62384224 317.93041229 C-5.76344235 319.06616805 -6.9017029 320.20326957 -8.03858757 321.34174347 C-9.62753922 322.93106642 -11.22283916 324.51372823 -12.82006836 326.09472656 C-13.72591171 326.99596252 -14.63175507 327.89719849 -15.56504822 328.82574463 C-19.29609258 332.15732734 -21.92472 333.25123451 -26.92279053 333.24050903 C-28.40772255 333.24463303 -28.40772255 333.24463303 -29.9226532 333.24884033 C-31.0023085 333.24164978 -32.08196381 333.23445923 -33.19433594 333.22705078 C-34.3360878 333.22734283 -35.47783966 333.22763489 -36.65419006 333.22793579 C-40.43099547 333.22654159 -44.20760402 333.21097587 -47.984375 333.1953125 C-50.60182589 333.1915827 -53.21927817 333.18873557 -55.83673096 333.18673706 C-62.0238012 333.18052306 -68.21080069 333.16411334 -74.39783978 333.14403808 C-81.44252856 333.12167658 -88.48722073 333.11068502 -95.53193617 333.10064721 C-110.02132726 333.07974703 -124.51066264 333.0445726 -139 333 C-137.57766123 330.03282917 -136.21954386 327.99252168 -133.83886719 325.70703125 C-133.19769958 325.08538086 -132.55653198 324.46373047 -131.89593506 323.82324219 C-131.20324524 323.15969727 -130.51055542 322.49615234 -129.796875 321.8125 C-128.32622233 320.37691709 -126.85619038 318.94069806 -125.38671875 317.50390625 C-123.07837716 315.25712043 -120.76589641 313.01525746 -118.44189453 310.78466797 C-105.98800514 298.97824656 -105.98800514 298.97824656 -98 284 C-97.73880371 283.29262695 -97.47760742 282.58525391 -97.20849609 281.85644531 C-93.77063772 271.65506807 -95.38677634 259.51014824 -100 250 C-103.87221385 243.50474457 -108.38891068 238.21787017 -113.8046875 232.97265625 C-114.5286673 232.25766464 -115.25264709 231.54267303 -115.99856567 230.80601501 C-118.28355636 228.55076307 -120.57831991 226.30584189 -122.875 224.0625 C-125.19209377 221.79319869 -127.50685375 219.52169209 -129.81570435 217.2440033 C-131.24627158 215.83324404 -132.68175276 214.42744726 -134.12252808 213.02711487 C-134.76384674 212.39563034 -135.40516541 211.76414581 -136.06591797 211.11352539 C-136.63406219 210.558871 -137.20220642 210.00421661 -137.78756714 209.43275452 C-139 208 -139 208 -139 206 C-117.55 206 -96.1 206 -74 206 C-74 194.45 -74 182.9 -74 171 C-76.97 170.67 -79.94 170.34 -83 170 C-106.55370424 164.27141178 -127.30353255 148.9827196 -140.25 128.5625 C-154.78706686 103.90140443 -158.24685825 77.64722713 -151.49609375 49.93115234 C-147.68683476 35.84042116 -140.796115 22.8120084 -131 12 C-130.26265625 11.16984375 -129.5253125 10.3396875 -128.765625 9.484375 C-96.37286366 -25.02556028 -37.34523082 -28.20170823 0 0 Z M-49.3984375 54.10546875 C-49.8782608 54.5895369 -50.35808411 55.07360504 -50.85244751 55.57234192 C-52.36722348 57.10376667 -53.87116699 58.64533589 -55.375 60.1875 C-56.40685086 61.23441556 -57.43939667 62.28064664 -58.47265625 63.32617188 C-60.9898519 65.87625299 -63.49744903 68.43553614 -66 71 C-68.92213893 69.60333702 -70.90327453 68.2330056 -73.1875 65.9375 C-76.57739019 62.98314174 -79.31122053 61.9756764 -83.79296875 61.76953125 C-89.03154586 62.31656851 -92.06135547 64.88844727 -95.375 68.8125 C-97.24885016 72.48812917 -98 74.86153803 -98 79 C-95.18247568 86.01399573 -90.99697297 90.58359504 -85.625 95.8125 C-84.51125 96.93688477 -84.51125 96.93688477 -83.375 98.08398438 C-78.39821487 103.00361562 -74.308341 106.51188411 -67.1875 107.5625 C-56.63475823 106.99238105 -48.06747182 95.49307661 -41.15063477 88.48681641 C-39.18343421 86.49588516 -37.20310117 84.51875636 -35.22070312 82.54296875 C-33.95232927 81.26902092 -32.68472388 79.99430743 -31.41796875 78.71875 C-30.83250778 78.13420044 -30.24704681 77.54965088 -29.6438446 76.9473877 C-24.45010642 71.66384137 -20 66.7721296 -20 59 C-21.64751054 53.83456989 -24.18568963 49.67461687 -29 47 C-37.90226989 44.62606136 -43.05652875 47.65164397 -49.3984375 54.10546875 Z " fill="#000000" transform="translate(315,179)"/>
</svg>
