<?xml version="1.0" encoding="UTF-8"?>
<svg version="1.1" xmlns="http://www.w3.org/2000/svg" width="512" height="512">
<path d="M0 0 C1.68647739 0.00113058 3.37295673 0.00049051 5.05943298 -0.00177002 C9.60214197 -0.00290988 14.14442181 0.02048035 18.68703175 0.04852581 C23.44756156 0.07366193 28.20810302 0.07589104 32.96868896 0.08062744 C41.9675807 0.09302153 50.96627627 0.12579449 59.96508193 0.1660254 C70.21664888 0.2108546 80.46822558 0.2327581 90.71986628 0.25280714 C111.79349657 0.29453055 132.86695073 0.36481271 153.94042969 0.45410156 C153.94185471 1.738461 153.94327972 3.02282043 153.94474792 4.34609985 C153.96147546 16.49744649 154.00442458 28.64846071 154.07252026 40.79963112 C154.10669392 47.04550528 154.1318853 53.29113733 154.13598633 59.53710938 C154.14028985 65.57388137 154.16892297 71.61010806 154.21386147 77.64670944 C154.22677092 79.94054351 154.23116763 82.23444305 154.22658348 84.52830887 C154.19872999 102.71129491 155.5753845 116.78125307 168.81542969 130.37988281 C180.72818524 141.59612644 195.18304064 143.55622387 210.86645508 143.65942383 C211.81386566 143.66932343 212.76127625 143.67922302 213.73739624 143.68942261 C216.8376016 143.72075653 219.93782222 143.74568269 223.03808594 143.77050781 C225.1999906 143.79110168 227.36189145 143.81209875 229.52378845 143.83348083 C235.19046937 143.88845043 240.8571851 143.93796959 246.52392578 143.98632812 C252.31578641 144.03672747 258.10759701 144.09231695 263.89941406 144.14746094 C275.24637645 144.25473497 286.59338243 144.35624716 297.94042969 144.45410156 C297.98624192 177.38932001 298.02146655 210.32453016 298.04256035 243.25977321 C298.04506166 247.15112816 298.04765031 251.04248304 298.05029297 254.93383789 C298.0510799 256.09584953 298.0510799 256.09584953 298.05188273 257.28133615 C298.06057715 269.8125095 298.07634181 282.34366444 298.09473528 294.87482689 C298.11346114 307.74007003 298.12455209 320.60530356 298.12860668 333.47055978 C298.13134617 341.4043409 298.13998788 349.33806996 298.15626262 357.27183505 C298.16811864 363.36308116 298.16933425 369.4542828 298.16664505 375.54554176 C298.16719425 378.03877584 298.17115887 380.53201192 298.17884064 383.02523422 C298.18883526 386.43712655 298.186382 389.84879866 298.18093872 393.26069641 C298.18967725 394.73010436 298.18967725 394.73010436 298.19859231 396.22919732 C298.13499342 411.04383648 294.55620637 424.03315039 284.12792969 434.95410156 C273.18943106 445.0320829 262.07195497 448.9271755 247.33387756 448.84178162 C246.20603409 448.84716715 245.07819061 448.85255269 243.91617006 448.85810143 C240.15860013 448.87234334 236.40138435 448.86528637 232.64379883 448.8581543 C229.94098504 448.86221846 227.23818902 448.87072475 224.53538513 448.87895203 C217.96905881 448.89610101 211.40282834 448.89698823 204.83648545 448.89173912 C199.49689616 448.88768912 194.15733508 448.88915081 188.81774712 448.89448738 C187.67554384 448.89561001 187.67554384 448.89561001 186.51026575 448.89675533 C184.96309213 448.89828688 183.41591851 448.89982523 181.8687449 448.90137029 C167.37747815 448.91508106 152.88626547 448.90966753 138.39499997 448.89818508 C125.15310047 448.8882528 111.9113407 448.90119578 98.66946275 448.92511927 C85.05355911 448.9495321 71.43772049 448.95911287 57.8217954 448.95246655 C50.18511639 448.94897935 42.54854481 448.95117336 34.9118824 448.96871758 C28.41150956 448.98346686 21.91131984 448.98403948 15.41095049 448.96664666 C12.09801764 448.95815662 8.78567886 448.95812064 5.4727211 448.97129822 C1.87282968 448.98452139 -1.72618055 448.97294731 -5.32603455 448.95530701 C-6.36107382 448.96491201 -7.3961131 448.97451702 -8.4625172 448.98441309 C-21.18391469 448.85664225 -32.70859692 443.46524565 -42.18457031 435.07910156 C-49.42163228 427.50303262 -55.19037057 415.73116112 -55.17982483 405.2276001 C-55.18119949 404.17033218 -55.18257416 403.11306427 -55.18399048 402.02375793 C-55.1803952 400.86929672 -55.17679993 399.71483551 -55.1730957 398.52539062 C-55.17324173 397.3056102 -55.17338776 396.08582977 -55.17353821 394.8290863 C-55.17296111 391.48849635 -55.16794739 388.14796827 -55.16096425 384.80738926 C-55.15471103 381.31468958 -55.15412535 377.82198908 -55.15293884 374.32928467 C-55.14983134 367.71724884 -55.14162577 361.10522956 -55.13158935 354.49320102 C-55.1204102 346.96483783 -55.11491322 339.43647384 -55.10989392 331.90810442 C-55.09944268 316.42342722 -55.08185447 300.93876653 -55.05957031 285.45410156 C-54.36148758 285.51763321 -53.66340485 285.58116486 -52.94416809 285.6466217 C-49.71897465 285.93552228 -46.49285383 286.21244211 -43.26660156 286.48925781 C-42.16900513 286.58936157 -41.07140869 286.68946533 -39.94055176 286.79260254 C-6.71510818 289.59460064 27.97547163 278.95475351 53.61230469 257.47753906 C54.38058594 256.80980469 55.14886719 256.14207031 55.94042969 255.45410156 C57.18566406 254.390625 57.18566406 254.390625 58.45605469 253.30566406 C84.82236652 230.25536078 100.43163211 197.55984831 103.69042969 162.82910156 C103.79240025 161.03839894 103.87758281 159.24660377 103.94042969 157.45410156 C103.98039063 156.69097656 104.02035156 155.92785156 104.06152344 155.14160156 C105.0816002 119.61892829 90.75137551 84.82886673 66.60009766 59.14160156 C40.14800813 31.81250875 5.62035645 18.66958307 -32.05957031 17.45410156 C-36.06164389 17.39163423 -40.05766606 17.38470438 -44.05957031 17.45410156 C-32.52505476 2.66626111 -17.91365974 -0.16973303 0 0 Z M203.80871582 247.8659668 C200.80713323 252.54026466 201.38367946 257.87019519 201.42285156 263.23925781 C201.41584229 264.42043182 201.40883301 265.60160583 201.40161133 266.818573 C201.3870555 270.04601369 201.39042062 273.27279468 201.40312767 276.50022507 C201.4132859 279.88468516 201.40385419 283.26910256 201.39758301 286.65356445 C201.39031475 292.33618022 201.3998725 298.01858775 201.41894531 303.70117188 C201.44071274 310.26217748 201.43366077 316.82268583 201.41163969 323.38367939 C201.39346203 329.02635345 201.39093883 334.66887819 201.40139437 340.31157207 C201.40761641 343.67753431 201.40850083 347.04326315 201.39524841 350.40921021 C201.38508904 354.16279712 201.40057759 357.91542948 201.42285156 361.66894531 C201.41475464 362.77873749 201.40665771 363.88852966 201.39831543 365.0319519 C201.4657117 371.16314663 201.82569289 374.79860311 205.94042969 379.45410156 C210.29226041 383.39147221 213.85775867 384.08833198 219.54199219 383.84082031 C224.35882951 383.06416413 227.04541456 380.42168549 230.25292969 376.95410156 C232.77917122 373.21152151 233.06514988 370.06993019 233.08087158 365.61637878 C233.08658173 364.64495438 233.09229187 363.67352997 233.09817505 362.67266846 C233.09929291 361.61336121 233.10041077 360.55405396 233.1015625 359.46264648 C233.1065274 358.34189224 233.11149231 357.221138 233.11660767 356.06642151 C233.13122229 352.35579822 233.13803002 348.64521767 233.14355469 344.93457031 C233.14930653 342.35630797 233.15506426 339.77804564 233.16082764 337.19978333 C233.1699926 332.48307927 233.17629384 327.76639231 233.17932439 323.04968089 C233.18380315 316.11807304 233.20134594 309.18666258 233.23032498 302.25511473 C233.2545877 296.24193036 233.26227069 290.22883904 233.26399994 284.21560097 C233.26702613 281.66194903 233.27505347 279.10829793 233.28818512 276.55467796 C233.30525164 272.98088018 233.30336359 269.40756231 233.296875 265.83374023 C233.30608978 264.78050568 233.31530457 263.72727112 233.32479858 262.64212036 C233.28806702 256.17925737 232.86109438 250.76864724 228.40527344 245.71191406 C219.73261959 239.27951095 211.25445214 239.44170646 203.80871582 247.8659668 Z M77.94042969 293.45410156 C74.31456716 298.02489339 73.43724416 301.02969216 73.42285156 306.83300781 C73.41584229 307.54601044 73.40883301 308.25901306 73.40161133 308.99362183 C73.38410085 311.33501903 73.39562812 313.67519349 73.40917969 316.01660156 C73.40648275 317.65275299 73.40259864 319.28890286 73.39758301 320.92504883 C73.39169741 324.3479748 73.40022025 327.7704822 73.41894531 331.19335938 C73.44173473 335.57157207 73.42860654 339.94880385 73.40465546 344.32698059 C73.39017182 347.70372858 73.39481513 351.08024563 73.40516663 354.45700073 C73.40782684 356.07087318 73.40458902 357.68476689 73.39524841 359.2986145 C73.38503987 361.55803621 73.40064113 363.81588982 73.42285156 366.07519531 C73.42603394 367.35837646 73.42921631 368.64155762 73.43249512 369.96362305 C74.20264511 375.25602123 76.66772585 378.30260762 80.56542969 381.82910156 C85.13887518 384.03113087 88.94996445 384.25875312 93.94042969 383.45410156 C98.57623335 381.13619973 102.80301436 377.78703164 104.53582764 372.70942688 C105.06868048 369.73920838 105.08406766 366.88723318 105.1015625 363.86889648 C105.1065274 363.21631363 105.11149231 362.56373077 105.11660767 361.89137268 C105.13117507 359.73909436 105.13802241 357.58688977 105.14355469 355.43457031 C105.14931089 353.93247985 105.15506856 352.4303894 105.16082764 350.92829895 C105.1713224 347.78023945 105.17717494 344.63220538 105.18066406 341.48413086 C105.18614364 337.46262856 105.21016636 333.4414657 105.23863602 329.42006969 C105.25731806 326.31699155 105.26247096 323.21399425 105.26399994 320.11086464 C105.26701478 318.62898212 105.27500361 317.14710063 105.28818512 315.66527367 C105.30536211 313.58575454 105.30333767 311.50705275 105.296875 309.42749023 C105.30052063 308.24708664 105.30416626 307.06668304 105.30792236 305.85050964 C104.81212548 301.26829983 103.51443022 297.24037189 100.40527344 293.71191406 C93.12523436 288.31239659 85.20785651 286.87881063 77.94042969 293.45410156 Z M139.80957031 311.78613281 C136.61347636 316.75699716 137.37137823 322.82607167 137.40917969 328.51660156 C137.40535278 329.78125244 137.40152588 331.04590332 137.39758301 332.34887695 C137.39486466 335.01895305 137.40019393 337.68755693 137.41894531 340.35742188 C137.44173539 343.76718429 137.42860307 347.17568716 137.40465546 350.58540344 C137.38666661 353.85418032 137.39928814 357.1228082 137.40917969 360.39160156 C137.40108276 361.61049072 137.39298584 362.82937988 137.38464355 364.08520508 C137.45534668 370.48553185 137.53987084 374.63809123 141.94042969 379.45410156 C146.29226041 383.39147221 149.85775867 384.08833198 155.54199219 383.84082031 C160.35882951 383.06416413 163.04541456 380.42168549 166.25292969 376.95410156 C168.83528636 373.12838798 169.06677609 369.89115161 169.1015625 365.33764648 C169.11117004 364.31946335 169.12077759 363.30128021 169.13067627 362.25224304 C169.13492615 361.15741104 169.13917603 360.06257904 169.14355469 358.93457031 C169.14925476 357.80263748 169.15495483 356.67070465 169.16082764 355.50447083 C169.17027101 353.10967949 169.17680898 350.71487521 169.18066406 348.32006836 C169.19036506 344.66594649 169.22139367 341.01238823 169.25292969 337.35839844 C169.25946052 335.02962573 169.26471068 332.70084901 169.26855469 330.37207031 C169.28090149 329.283311 169.29324829 328.1945517 169.30596924 327.07279968 C169.28660348 320.44155321 168.98112604 314.90486638 164.40527344 309.71191406 C155.704394 303.25857637 147.37198591 303.50975864 139.80957031 311.78613281 Z M11.80761719 343.79003906 C8.60902618 348.73826087 9.36502901 354.78648395 9.44042969 360.45410156 C9.42496094 361.61683594 9.40949219 362.77957031 9.39355469 363.97753906 C9.42297979 370.4069233 9.52730585 374.62068022 13.94042969 379.45410156 C18.29104314 383.39037088 21.85819975 384.09294075 27.54199219 383.83691406 C32.62730374 383.02525196 35.20715497 380.40537687 38.25292969 376.45410156 C41.18409906 371.24313379 41.15219019 366.55474431 41.19042969 360.70410156 C41.21105469 359.93066406 41.23167969 359.15722656 41.25292969 358.36035156 C41.29240135 352.47907403 40.68312456 346.40979443 36.48803711 341.88891602 C31.69639987 337.80494438 28.60826733 337.09727802 22.47949219 337.17675781 C17.58714331 337.71115284 15.00639111 340.28662001 11.80761719 343.79003906 Z " fill="#000000" transform="translate(168.0595703125,31.5458984375)"/>
<path d="M0 0 C0.00546844 1.73314957 0.00546844 1.73314957 0.01104736 3.50131226 C0.04807165 14.41774357 0.1059256 25.33389473 0.18390274 36.25011253 C0.22332465 41.86157739 0.25553915 47.47288656 0.27099609 53.08447266 C0.28619734 58.50522785 0.32070479 63.92555487 0.36830902 69.34611893 C0.38308702 71.40880221 0.39103895 73.47154664 0.39188385 75.53428268 C0.39426604 78.43526006 0.42144623 81.33506607 0.45410156 84.23583984 C0.4490712 85.07885651 0.44404083 85.92187317 0.43885803 86.79043579 C0.57135475 94.45366618 2.94232734 100.85297123 7.125 107.25 C19.67446703 119.25383803 34.81429285 118.31387437 51.10546875 118.4140625 C53.04031678 118.43280178 54.97515687 118.45237719 56.9099884 118.4727478 C61.96834608 118.52378365 67.02673017 118.56356104 72.08520508 118.60089111 C77.26064433 118.64111104 82.43597642 118.69212076 87.61132812 118.7421875 C97.74080983 118.83860819 107.87035244 118.9231199 118 119 C117.85475462 120.59070811 117.70554674 122.18105471 117.5546875 123.77124023 C117.47202637 124.6569017 117.38936523 125.54256317 117.30419922 126.45506287 C115.29336723 143.27772606 105.03400049 159.65040714 94 172 C93.5359375 172.60585937 93.071875 173.21171875 92.59375 173.8359375 C78.1800505 192.55616917 52.64639389 203.32604714 30 207 C25.23988085 207.40398207 20.52548003 207.47806293 15.75 207.4375 C14.48655762 207.42992676 13.22311523 207.42235352 11.92138672 207.41455078 C1.84495284 207.2380876 -7.42273091 206.13949665 -17 203 C-17.96800537 202.68651611 -17.96800537 202.68651611 -18.95556641 202.36669922 C-34.63062374 197.0969431 -47.32444593 188.53717714 -59 177 C-60.07314453 176.03513672 -60.07314453 176.03513672 -61.16796875 175.05078125 C-77.27612024 160.22870972 -87.88061483 135.75626347 -89.17700195 114.03417969 C-89.46815847 99.24667643 -89.60678974 85.16984982 -85 71 C-84.68651611 70.02981934 -84.68651611 70.02981934 -84.36669922 69.04003906 C-79.0964387 53.36742913 -70.53556112 40.67391868 -59 29 C-58.35675781 28.28457031 -57.71351562 27.56914063 -57.05078125 26.83203125 C-43.7666706 12.39528627 -19.83133567 -0.27768699 0 0 Z " fill="#000000" transform="translate(122,81)"/>
<path d="M0 0 C1.42576283 0.1335638 2.8508558 0.27428906 4.27563477 0.41796875 C5.06929947 0.4955542 5.86296417 0.57313965 6.68067932 0.65307617 C21.91117084 2.93125205 32.98006757 16.69662648 42.60009766 27.44287109 C44.92009771 30.0234362 47.27488852 32.57188886 49.625 35.125 C53.67442337 39.5370583 57.68763383 43.98050627 61.6875 48.4375 C64.27615003 51.30600409 66.88585146 54.1547665 69.5 57 C73.59356877 61.4554312 77.65341216 65.93945814 81.69140625 70.4453125 C83.78914847 72.76667191 85.90913873 75.06578441 88.03662109 77.35986328 C108.66025321 99.66559018 108.66025321 99.66559018 111 112 C97.9349208 112.09269069 84.86991986 112.16376058 71.80457878 112.20724869 C65.73776508 112.22812109 59.67117639 112.25643301 53.60449219 112.30175781 C47.74952102 112.34522702 41.89476624 112.36913972 36.03964615 112.37950897 C33.80611896 112.38689833 31.57260359 112.40132799 29.33916855 112.42292023 C26.21006448 112.45196775 23.08185397 112.45595534 19.95263672 112.45410156 C19.02978378 112.46848267 18.10693085 112.48286377 17.15611267 112.49768066 C11.59415491 112.46203901 8.41118608 111.71935294 4 108 C0.89524159 104.46699905 -0.1260503 101.47049011 -0.12025452 96.80488586 C-0.12162918 95.95093231 -0.12300385 95.09697876 -0.12442017 94.21714783 C-0.12082489 93.28350906 -0.11722961 92.3498703 -0.11352539 91.38793945 C-0.11367142 90.40239075 -0.11381744 89.41684204 -0.1139679 88.40142822 C-0.11327035 85.1386903 -0.10548527 81.87600922 -0.09765625 78.61328125 C-0.09579151 76.3531243 -0.09436787 74.09296695 -0.09336853 71.83280945 C-0.08954776 65.8799427 -0.07972119 59.92710029 -0.06866455 53.97424316 C-0.058441 47.90145192 -0.05386888 41.82865674 -0.04882812 35.75585938 C-0.03809856 23.83722888 -0.02102738 11.91861646 0 0 Z " fill="#000000" transform="translate(353,32)"/>
<path d="M0 0 C6.45537028 0.71726336 11.74148041 1.56597486 17.75 3.625 C18.92006592 4.02368286 18.92006592 4.02368286 20.11376953 4.43041992 C32.10366308 8.66048193 42.12708683 15.05146821 52 23 C52.76828125 23.59039062 53.5365625 24.18078125 54.328125 24.7890625 C69.85448528 37.46706172 81.27790021 57.6454708 86 77 C86.495 81.95 86.495 81.95 87 87 C58.29 87 29.58 87 0 87 C0 58.29 0 29.58 0 0 Z " fill="#000000" transform="translate(153,81)"/>
</svg>
