<?xml version="1.0" encoding="UTF-8"?>
<svg version="1.1" xmlns="http://www.w3.org/2000/svg" width="512" height="512">
<path d="M0 0 C3.55762336 0.0112293 7.11518446 -0.00087166 10.67280376 -0.00984204 C17.62002129 -0.02369483 24.56705568 -0.01627831 31.51426431 -0.00116646 C39.61988421 0.01578709 47.72545969 0.01247178 55.83109186 0.00873946 C70.30024704 0.00287576 84.7693149 0.01697524 99.23844707 0.04168689 C113.25150117 0.06561661 127.2644387 0.07268403 141.27750957 0.06219471 C156.57280476 0.05076594 171.86804619 0.04887857 187.16334075 0.0632928 C188.79646245 0.0648185 190.42958416 0.06633885 192.06270587 0.06785381 C193.26770875 0.06899053 193.26770875 0.06899053 194.49705511 0.07015022 C200.13623483 0.07487687 205.7753904 0.07305323 211.41456974 0.06878841 C218.29204603 0.06384405 225.1694125 0.06992494 232.04686376 0.08968271 C235.5503241 0.0995023 239.0536178 0.10471803 242.55708683 0.09679019 C246.36602276 0.09080106 250.17447353 0.10341258 253.98336589 0.12055957 C255.62026639 0.11154451 255.62026639 0.11154451 257.29023558 0.10234731 C267.87798299 0.18854791 278.19277647 2.13003255 287.62492168 7.07073963 C288.62761089 7.58845935 288.62761089 7.58845935 289.65055645 8.11663806 C305.82444231 16.8070842 316.74721842 30.37269982 322.63508022 47.65714252 C326.34774691 60.51941158 326.09814934 73.16738477 326.01652324 86.467224 C326.01539312 89.06068391 326.01603184 91.65414509 326.01829326 94.24760425 C326.02037656 99.80063152 326.00797582 105.35346876 325.98534191 110.90644825 C325.95263997 118.93479332 325.94239645 126.96304783 325.93738994 134.99145228 C325.92866558 148.02135126 325.90212823 161.05114927 325.86417949 174.08099353 C325.82738496 186.72779834 325.79910978 199.37457559 325.78214824 212.02142322 C325.78109735 212.80279948 325.78004645 213.58417574 325.77896371 214.38923007 C325.77374304 218.30971049 325.76868833 222.2301911 325.7637161 226.15067184 C325.72234324 258.60326777 325.65197346 291.0557396 325.56242168 323.50823963 C326.69035137 323.48729236 327.81828105 323.4663451 328.98039043 323.44476306 C333.24457943 323.37127814 337.50871509 323.32605395 341.77335918 323.28851306 C343.60418469 323.26864066 345.43494886 323.241533 347.26554668 323.20648181 C369.27557527 322.79620716 388.90873383 326.95706073 405.56242168 342.50823963 C418.39527894 355.20310917 425.62123965 371.21492777 425.79679668 389.29730213 C425.80195293 390.3981615 425.80710918 391.49902088 425.81242168 392.63323963 C425.83304668 393.71089588 425.85367168 394.78855213 425.87492168 395.89886463 C425.91032309 403.24465654 424.88316156 409.54601998 422.56242168 416.50823963 C422.03261699 418.13052478 422.03261699 418.13052478 421.49210918 419.78558338 C414.56376535 437.26040615 401.8234823 449.15846667 385.18742168 457.25823963 C374.60007361 461.75022847 364.17967556 462.95232931 352.76852214 462.89591968 C351.42814088 462.90010374 350.08776316 462.90558708 348.74739188 462.91223949 C345.10206963 462.92657263 341.4569758 462.92248786 337.81164169 462.91507268 C333.86535765 462.91031289 329.91912106 462.92287558 325.97285259 462.93309009 C318.25623295 462.95022913 310.53969491 462.95112825 302.82306119 462.94587719 C296.5463263 462.94182483 290.26961541 462.94329166 283.99288166 462.94862545 C283.09727019 462.94937387 282.20165872 462.95012229 281.27890751 462.95089339 C279.45907415 462.95242498 277.63924079 462.95396332 275.81940744 462.95550836 C258.7780318 462.96921588 241.73670214 462.96380819 224.69532756 462.95232315 C209.13228834 462.94239427 193.56936807 462.95532858 178.0063472 462.97925734 C161.99583034 463.00368716 145.98536878 463.01324658 129.97483367 463.00660461 C120.99833029 463.0031208 112.02191832 463.00528882 103.04542911 463.02285564 C95.40342985 463.03762635 87.76158637 463.03814986 80.11959001 463.02078473 C76.22688275 463.01231191 72.33445318 463.01003306 68.4417609 463.02543628 C42.48266278 463.12062859 21.41817403 461.30584843 1.56242168 442.50823963 C-13.61830612 426.94663336 -18.62097072 406.7761258 -18.55783284 385.66923511 C-18.55868726 384.61207233 -18.55954169 383.55490955 -18.560422 382.46571153 C-18.5620622 378.94202824 -18.55657942 375.41839311 -18.55110371 371.89471424 C-18.5508215 369.36139922 -18.55098024 366.82808413 -18.55154622 364.29476917 C-18.55177355 358.85027892 -18.54894681 353.40580403 -18.54330838 347.96131694 C-18.5351616 340.08962415 -18.5325749 332.21793714 -18.53132039 324.34624059 C-18.52913485 311.57316992 -18.5224883 298.80010565 -18.51301777 286.02703846 C-18.50383075 273.62339295 -18.49675623 261.21974918 -18.49250996 248.81610096 C-18.49224724 248.0508076 -18.49198451 247.28551425 -18.49171383 246.49703019 C-18.49040874 242.6575596 -18.48914504 238.818089 -18.48790193 234.97861838 C-18.47754484 203.1551541 -18.45986547 171.33169786 -18.43757832 139.50823963 C-19.32852192 139.44661136 -20.21946553 139.3849831 -21.13740742 139.32148731 C-22.89184163 139.19458766 -22.89184163 139.19458766 -24.68171895 139.06512439 C-25.84078755 138.98287113 -26.99985615 138.90061786 -28.19404805 138.81587207 C-44.6283492 137.25716171 -59.34983234 127.20012561 -70.43757832 115.50823963 C-84.63831199 98.24143846 -87.4349087 80.1883024 -86.43757832 58.50823963 C-84.73129301 42.70803765 -75.60069357 29.24786796 -64.43757832 18.50823963 C-63.86652363 17.917849 -63.29546895 17.32745838 -62.70710957 16.71917713 C-45.53566112 0.20986679 -22.22723099 -0.09786885 0 0 Z M-41.81257832 48.75823963 C-48.25916446 57.16444144 -49.64491466 66.09343931 -48.43757832 76.50823963 C-47.52215158 79.82727346 -46.22168057 82.57386093 -44.43757832 85.50823963 C-44.08695332 86.13214588 -43.73632832 86.75605213 -43.37507832 87.39886463 C-39.08435167 94.25210858 -32.68953261 98.1911461 -24.93362629 100.15882862 C-15.52832755 102.19360672 -6.08039203 101.90352939 3.49918926 101.8488158 C5.58975005 101.84796819 7.68031172 101.84844728 9.770872 101.85014331 C15.41049768 101.85099946 21.04992958 101.83343558 26.68951046 101.81242144 C32.59649346 101.79359089 38.50348154 101.79189919 44.41048992 101.78834522 C55.58029563 101.77904344 66.75001261 101.754455 77.91977936 101.72429675 C90.64292178 101.6906945 103.36606857 101.6742521 116.08924437 101.65921044 C142.24701921 101.62790373 168.40471546 101.5751797 194.56242168 101.50823963 C193.5509237 96.25270202 192.03197478 91.20417094 190.49992168 86.07855213 C186.65933729 71.45232657 188.45435254 56.81323154 193.62785137 42.76239002 C194.17055675 41.28422557 194.17055675 41.28422557 194.72422588 39.77619922 C195.00083049 39.02777256 195.27743511 38.27934589 195.56242168 37.50823963 C167.98065681 37.46148612 140.3988979 37.42623434 112.81710136 37.40461528 C100.0099453 37.39430967 87.20281388 37.38026297 74.39567363 37.35736072 C63.23092044 37.337405 52.0661851 37.32451799 40.90141457 37.32006264 C34.99164852 37.31745897 29.08193353 37.31135401 23.17218387 37.29677951 C17.60480818 37.28316117 12.0375044 37.27902559 6.47011364 37.28202426 C4.43162 37.281476 2.39312384 37.277524 0.35464466 37.26982868 C-22.75441337 36.87705762 -22.75441337 36.87705762 -41.81257832 48.75823963 Z M25.56242168 168.50823963 C25.56242168 180.38823963 25.56242168 192.26823963 25.56242168 204.50823963 C108.06242168 204.50823963 190.56242168 204.50823963 275.56242168 204.50823963 C275.56242168 192.62823963 275.56242168 180.74823963 275.56242168 168.50823963 C193.06242168 168.50823963 110.56242168 168.50823963 25.56242168 168.50823963 Z M25.56242168 242.50823963 C25.56242168 254.38823963 25.56242168 266.26823963 25.56242168 278.50823963 C108.06242168 278.50823963 190.56242168 278.50823963 275.56242168 278.50823963 C275.56242168 266.62823963 275.56242168 254.74823963 275.56242168 242.50823963 C193.06242168 242.50823963 110.56242168 242.50823963 25.56242168 242.50823963 Z M25.56242168 315.50823963 C25.56242168 327.38823963 25.56242168 339.26823963 25.56242168 351.50823963 C108.06242168 351.50823963 190.56242168 351.50823963 275.56242168 351.50823963 C275.56242168 339.62823963 275.56242168 327.74823963 275.56242168 315.50823963 C193.06242168 315.50823963 110.56242168 315.50823963 25.56242168 315.50823963 Z M326.56242168 361.50823963 C326.46286663 366.75517351 326.39063208 372.0015466 326.34269512 377.24920642 C326.32269263 379.03087949 326.29548145 380.81248786 326.26066387 382.59393299 C325.69530437 396.14915734 325.69530437 396.14915734 330.56242168 408.50823963 C330.94100322 409.15438221 331.31958477 409.80052478 331.70963848 410.46624744 C335.84693382 417.3445859 342.96776369 421.43954547 350.56242168 423.50823963 C359.04415269 424.36337312 366.21362533 423.97630781 373.56242168 419.50823963 C374.18632793 419.15761463 374.81023418 418.80698963 375.45304668 418.44573963 C382.32600883 414.14266767 386.45821834 407.22365187 388.56242168 399.50823963 C389.63234554 389.00805662 388.41946891 380.10799102 381.81242168 371.69573963 C376.81137533 366.34108394 369.99370471 361.9819192 362.55930889 361.33354175 C360.25827061 361.27793316 357.96550013 361.28323893 355.66398418 361.31292713 C354.82902416 361.31575702 353.99406414 361.31858692 353.13380229 361.32150257 C350.48485876 361.33263662 347.83626184 361.35772836 345.18742168 361.38323963 C343.38404117 361.3932782 341.58065532 361.40240251 339.77726543 361.41058338 C335.37218535 361.43255372 330.96736215 361.46703641 326.56242168 361.50823963 Z " fill="#000000" transform="translate(86.43757832050323,24.49176037311554)"/>
</svg>
