<?xml version="1.0" standalone="no"?>
<!DOCTYPE svg PUBLIC "-//W3C//DTD SVG 20010904//EN"
 "http://www.w3.org/TR/2001/REC-SVG-20010904/DTD/svg10.dtd">
<svg version="1.0" xmlns="http://www.w3.org/2000/svg"
 width="512.000000pt" height="512.000000pt" viewBox="0 0 512.000000 512.000000"
 preserveAspectRatio="xMidYMid meet">

<g transform="translate(0.000000,512.000000) scale(0.100000,-0.100000)"
fill="#000000" stroke="none">
<path d="M2405 5110 c-417 -66 -754 -370 -862 -779 -34 -127 -39 -361 -9 -485
45 -192 123 -341 263 -498 103 -117 172 -252 215 -425 32 -126 32 -381 0 -497
-23 -81 -95 -244 -132 -296 l-21 -30 701 0 701 0 -20 29 c-38 53 -111 215
-133 296 -32 118 -32 373 0 498 44 177 111 306 221 432 124 140 206 294 252
470 20 77 23 113 23 250 -1 139 -4 173 -27 256 -102 384 -402 674 -789 764
-86 20 -297 28 -383 15z"/>
<path d="M905 1783 c-140 -30 -261 -96 -369 -201 -159 -155 -226 -330 -226
-587 0 -150 15 -192 80 -225 39 -20 54 -20 2170 -20 2116 0 2131 0 2170 20 65
33 80 75 80 225 0 199 -34 327 -125 465 -109 167 -281 284 -477 324 -69 14
-249 16 -1655 15 -1362 -1 -1588 -3 -1648 -16z"/>
<path d="M610 285 c0 -192 10 -224 78 -263 l40 -22 1831 0 c1816 0 1832 0
1871 20 69 35 80 71 80 265 l0 165 -1950 0 -1950 0 0 -165z"/>
</g>
</svg>
