<?xml version="1.0" standalone="no"?>
<!DOCTYPE svg PUBLIC "-//W3C//DTD SVG 20010904//EN"
 "http://www.w3.org/TR/2001/REC-SVG-20010904/DTD/svg10.dtd">
<svg version="1.0" xmlns="http://www.w3.org/2000/svg"
 width="207.000000pt" height="131.000000pt" viewBox="0 0 207.000000 131.000000"
 preserveAspectRatio="xMidYMid meet">

<g transform="translate(0.000000,131.000000) scale(0.100000,-0.100000)"
fill="#DA251A" stroke="none">
<path d="M960 1124 c-270 -20 -493 -108 -633 -250 -81 -83 -133 -219 -113
-298 l6 -26 313 0 312 0 33 59 c17 33 32 62 32 65 0 3 -123 6 -274 6 -151 0
-277 4 -280 9 -10 16 51 96 105 137 135 103 293 152 522 161 81 3 147 2 147
-2 0 -4 -49 -93 -109 -199 -148 -261 -145 -254 -132 -282 6 -15 20 -24 41 -26
l30 -3 -61 -107 c-33 -60 -65 -108 -71 -108 -36 0 -187 48 -258 82 -64 31
-101 57 -148 105 l-63 64 -64 -3 -64 -3 22 -45 c29 -60 128 -158 202 -201 90
-53 206 -97 319 -121 140 -30 388 -30 526 -1 309 66 528 235 559 430 4 29 6
65 3 82 l-4 31 -316 -2 -316 -3 -33 -59 c-18 -32 -33 -60 -33 -62 0 -2 126 -4
280 -4 230 0 280 -2 280 -14 0 -25 -80 -114 -136 -151 -130 -87 -359 -145
-561 -145 -73 0 -81 9 -51 61 230 407 235 418 206 447 -7 7 -22 12 -35 12 -13
0 -23 2 -23 4 0 6 110 200 118 208 12 11 190 -40 270 -78 56 -27 96 -56 146
-106 l68 -68 59 0 c71 0 74 8 25 83 -94 148 -315 268 -561 305 -82 13 -221 20
-285 16z"/>
</g>
</svg>
