<?xml version="1.0" encoding="UTF-8"?>
<svg version="1.1" xmlns="http://www.w3.org/2000/svg" width="512" height="512">
<path d="M0 0 C5.95217109 3.05155858 11.26370287 7.20529141 16.59814453 11.20849609 C19.53370053 13.39807832 22.52428358 15.50012258 25.52661133 17.59667969 C27.63124781 19.06686438 29.72693958 20.54898589 31.8203125 22.03515625 C36.04168603 25.03081042 40.27029623 28.0161239 44.5 31 C45.91669823 31.99995528 47.33336492 32.99995526 48.75 34 C49.45125 34.495 50.1525 34.99 50.875 35.5 C53 37 55.125 38.5 57.25 40 C58.30175415 40.74237915 58.30175415 40.74237915 59.37475586 41.49975586 C60.79232654 42.50044188 62.20980692 43.50125583 63.62719727 44.50219727 C67.15430572 46.99275451 70.68292217 49.48111592 74.21484375 51.96484375 C81.47235112 57.07232086 88.69579586 62.22045023 95.875 67.4375 C102.01501705 71.89601308 108.22241488 76.23752933 114.5 80.5 C122.35283093 85.83229827 130.07352504 91.32461726 137.7421875 96.91796875 C140.51468792 98.93714084 143.30819193 100.91771725 146.1328125 102.86328125 C146.77694092 103.31034424 147.42106934 103.75740723 148.0847168 104.21801758 C149.27598393 105.04228213 150.47240006 105.85918047 151.67504883 106.66674805 C155.10243278 109.05071997 157.29995427 111.16622341 159 115 C159.43359375 117.90234375 159.43359375 117.90234375 159.4375 120.9375 C159.46650391 122.43603516 159.46650391 122.43603516 159.49609375 123.96484375 C158.47362113 130.22044394 155.22131027 133.02280967 150.28125 136.59375 C148.36153164 137.90666758 146.43396561 139.20816092 144.5 140.5 C142.40988005 141.92407387 140.3200412 143.34856039 138.23046875 144.7734375 C136.65724854 145.83836426 136.65724854 145.83836426 135.05224609 146.92480469 C130.60739446 149.94682027 126.20905595 153.03334185 121.8125 156.125 C120.17336016 157.27369879 118.53403754 158.42213679 116.89453125 159.5703125 C116.08838379 160.13524414 115.28223633 160.70017578 114.45166016 161.28222656 C110.30213572 164.1896209 106.15097694 167.09468001 102 170 C100.33332569 171.16665575 98.66665902 172.33332241 97 173.5 C80.33333333 185.16666667 63.66666667 196.83333333 47 208.5 C46.17435547 209.0779834 45.34871094 209.6559668 44.49804688 210.25146484 C42.83801305 211.41342362 41.17785757 212.57520862 39.51757812 213.73681641 C34.37132329 217.33777987 29.22974838 220.94530425 24.09179688 224.55810547 C21.56679621 226.3281747 19.03389752 228.08645074 16.5 229.84375 C13.78815533 231.72848204 11.12093101 233.64728165 8.5 235.65625 C2.51960722 240.07924883 -1.81806518 242.08953632 -9.36328125 241.52734375 C-14.0123732 240.59752536 -16.61549829 238.62404347 -19.6340332 235.08325195 C-21.76681871 230.26914147 -21.36690607 225.55918931 -21.29296875 220.35546875 C-21.28872391 219.2305452 -21.28447906 218.10562164 -21.28010559 216.9466095 C-21.2633369 213.35999438 -21.22568688 209.77394479 -21.1875 206.1875 C-21.17245087 203.75326333 -21.15876287 201.31901784 -21.14648438 198.88476562 C-21.11343925 192.92298471 -21.06325728 186.96153277 -21 181 C-35.94237329 181.10719399 -50.8846969 181.21994728 -65.82697773 181.33933926 C-72.76476164 181.39464365 -79.7025507 181.44812108 -86.64038086 181.49731445 C-93.33177305 181.54476555 -100.02310768 181.59728551 -106.71443748 181.65294075 C-109.2713714 181.67337106 -111.82831962 181.692083 -114.3852787 181.70907402 C-117.95783299 181.73310294 -121.53028826 181.76315978 -125.1027832 181.79467773 C-126.16733231 181.8004332 -127.23188141 181.80618866 -128.32868958 181.81211853 C-129.78631714 181.82680176 -129.78631714 181.82680176 -131.27339172 181.84178162 C-132.11867589 181.84823417 -132.96396006 181.85468672 -133.83485889 181.8613348 C-136.18292847 181.91933861 -136.18292847 181.91933861 -139 183 C-139.00135653 183.66137671 -139.00271306 184.32275342 -139.00411069 185.00417185 C-139.08475874 224.20171518 -139.17571251 263.39922249 -139.28005161 302.59671023 C-139.2925705 307.30308006 -139.30500327 312.00945012 -139.31738281 316.71582031 C-139.3210818 318.12125214 -139.3210818 318.12125214 -139.32485552 319.55507654 C-139.36458046 334.7265999 -139.39732898 349.89813072 -139.42749982 365.06967574 C-139.45861256 380.63678758 -139.49722123 396.20386782 -139.54279006 411.77094412 C-139.57067267 421.37683949 -139.59270671 430.98271173 -139.60726251 440.5886367 C-139.61780368 447.17555178 -139.63562518 453.76242208 -139.65916704 460.34930342 C-139.67253503 464.14970722 -139.68269744 467.95004826 -139.68421364 471.75047684 C-139.68594226 475.87283621 -139.70300358 479.9949915 -139.7215271 484.11730957 C-139.71959237 485.3157646 -139.71765763 486.51421964 -139.71566427 487.74899149 C-139.81437601 502.42208453 -139.81437601 502.42208453 -144.4375 507.875 C-147.82390596 510.68323909 -149.80500592 512.24759584 -154.19270325 512.26742554 C-155.04639999 512.27595551 -155.90009674 512.28448547 -156.77966309 512.29327393 C-157.71322632 512.29236755 -158.64678955 512.29146118 -159.60864258 512.29052734 C-161.08713936 512.30060318 -161.08713936 512.30060318 -162.59550476 512.31088257 C-165.86189788 512.32991805 -169.12808608 512.33378974 -172.39453125 512.3359375 C-174.66273585 512.34236216 -176.93093962 512.34909027 -179.19914246 512.35610962 C-183.95805787 512.3680967 -188.71690062 512.37178903 -193.47583008 512.37060547 C-199.57247988 512.37040234 -205.66866323 512.39769241 -211.76520252 512.43214989 C-216.45181923 512.45439472 -221.13832332 512.45844372 -225.82498741 512.45738602 C-228.07245172 512.45974608 -230.31991893 512.46859231 -232.56733131 512.48405075 C-235.71294345 512.50365882 -238.85754523 512.49789224 -242.00317383 512.48583984 C-242.93066437 512.49707886 -243.85815491 512.50831787 -244.81375122 512.51989746 C-250.35118173 512.466017 -253.69813349 511.83089961 -258 508 C-260.69953832 504.25070759 -261.37534907 501.67873316 -261.37752342 497.08551979 C-261.38534666 495.89349374 -261.39316991 494.7014677 -261.40123022 493.47331965 C-261.39119197 491.51445718 -261.39119197 491.51445718 -261.38095093 489.51602173 C-261.3844078 488.11171142 -261.38917257 486.70740382 -261.39513266 485.3031019 C-261.40766986 481.44394584 -261.40145982 477.58501202 -261.39217401 473.72585511 C-261.38539433 469.56336595 -261.3958598 465.40091537 -261.40411377 461.23843384 C-261.41746837 453.0812225 -261.41456466 444.92409388 -261.40587585 436.76687928 C-261.39910186 430.13239437 -261.39818137 423.49793265 -261.4014473 416.86344528 C-261.401907 415.91928003 -261.40236669 414.97511478 -261.40284032 414.00233846 C-261.40379952 412.08417809 -261.40477216 410.16601773 -261.4057581 408.24785738 C-261.41431825 390.24846725 -261.40447049 372.24912291 -261.388357 354.24974029 C-261.37497499 338.82483639 -261.3772632 323.4000003 -261.39111328 307.97509766 C-261.40719561 290.05580256 -261.41347132 272.13654772 -261.40427649 254.21724641 C-261.40332088 252.30306841 -261.40237777 250.38889039 -261.4014473 248.47471237 C-261.40098447 247.53297228 -261.40052164 246.59123219 -261.40004479 245.62095452 C-261.39746123 239.0040032 -261.40181267 232.38707751 -261.40888596 225.77013016 C-261.41733161 217.69168304 -261.41495763 209.61332329 -261.39904372 201.53488608 C-261.39119869 197.41760246 -261.38800417 193.30046407 -261.39799118 189.18318176 C-261.40701886 185.40393181 -261.40187444 181.62495985 -261.38605852 177.84573464 C-261.38119032 175.85186076 -261.39083509 173.85796713 -261.40123022 171.8641144 C-261.20881662 141.90470899 -248.03494648 114.66738442 -227.625 93.25 C-205.46289185 72.14137234 -177.10324338 60.39597951 -146.44555664 60.65942383 C-145.0640515 60.66027313 -143.68254501 60.65978906 -142.30104065 60.65809631 C-138.60357648 60.65724675 -134.90641314 60.67470079 -131.20901799 60.69581819 C-127.32535084 60.71476139 -123.44167437 60.71634916 -119.55796814 60.71989441 C-112.227297 60.72916366 -104.89676247 60.75370692 -97.56615108 60.78394288 C-89.21047976 60.81764779 -80.85480141 60.83401306 -72.49907887 60.84902918 C-55.33264066 60.88026199 -38.16633484 60.93292113 -21 61 C-21.00888245 60.36186371 -21.01776489 59.72372742 -21.0269165 59.06625366 C-21.11551746 52.41519135 -21.17578744 45.76429713 -21.21972656 39.11279297 C-21.23982241 36.63160389 -21.26710384 34.15046205 -21.30175781 31.66943359 C-21.35036294 28.09981618 -21.37298972 24.53082584 -21.390625 20.9609375 C-21.42159271 19.30123428 -21.42159271 19.30123428 -21.45318604 17.60800171 C-21.45498325 11.41772367 -21.2063985 7.67753058 -17 3 C-11.54937689 -1.06605969 -6.54272642 -1.63395073 0 0 Z " fill="#000000" transform="translate(307,0)"/>
</svg>
