<?xml version="1.0" encoding="UTF-8"?>
<svg version="1.1" xmlns="http://www.w3.org/2000/svg" width="512" height="512">
<path d="M0 0 C4.31594212 2.26117837 6.57603887 5.10573475 8.859375 9.31640625 C9.39367682 12.18710388 9.36700678 14.97907862 9.31347656 17.89208984 C9.31406067 18.73177307 9.31464478 19.5714563 9.31524658 20.43658447 C9.31247239 23.19643305 9.2814125 25.95518518 9.25 28.71484375 C9.24253523 30.63440359 9.23684341 32.55397107 9.23284912 34.47354126 C9.21761138 39.51415217 9.17834554 44.55429857 9.1340332 49.59472656 C9.09304039 54.74277463 9.07482954 59.8908981 9.0546875 65.0390625 C9.01184954 75.13171397 8.94362069 85.22402141 8.859375 95.31640625 C9.64990265 95.3075238 10.4404303 95.29864136 11.25491333 95.28948975 C18.8121243 95.20836412 26.36911566 95.14795527 33.92665291 95.10915756 C37.80936824 95.08853887 41.69171531 95.06071186 45.57421875 95.01464844 C63.40322581 94.80873205 80.41040088 95.10868395 97.859375 99.31640625 C99.26032027 99.63245406 100.66158993 99.94706857 102.06323242 100.26000977 C112.48044373 102.67139451 122.15812128 106.91062465 131.859375 111.31640625 C132.50825684 111.60918457 133.15713867 111.90196289 133.82568359 112.20361328 C164.00384607 126.00602868 188.7512733 149.86330486 206.859375 177.31640625 C207.51679688 178.31027344 208.17421875 179.30414063 208.8515625 180.328125 C221.28984614 200.41853245 227.77125482 223.26477968 231.859375 246.31640625 C232.11557192 247.5449039 232.11557192 247.5449039 232.37694454 248.79821968 C233.02231583 253.50467335 232.99358639 258.12565827 232.97962952 262.87057495 C232.98091115 264.46472487 232.98091115 264.46472487 232.98221868 266.09107983 C232.98386562 269.65172011 232.97836494 273.21231328 232.97290039 276.77294922 C232.97261832 279.32552591 232.97277663 281.87810268 232.9733429 284.43067932 C232.97357061 289.92596918 232.9707344 295.42124387 232.96510506 300.91653061 C232.95697133 308.86174957 232.95437291 316.8069628 232.95311707 324.75218548 C232.95092949 337.64338733 232.94427739 350.53458284 232.93481445 363.42578125 C232.92563272 375.94693978 232.91855561 388.46809659 232.91430664 400.98925781 C232.91391256 402.14734108 232.91391256 402.14734108 232.91351051 403.32881998 C232.91220545 407.20207061 232.91094175 411.07532126 232.90969861 414.94857192 C232.89933517 447.07118898 232.88090179 479.19379425 232.859375 511.31640625 C201.179375 511.31640625 169.499375 511.31640625 136.859375 511.31640625 C136.83955566 504.13511963 136.81973633 496.95383301 136.79931641 489.55493164 C136.73437778 466.52351558 136.65983672 443.49213806 136.57932339 420.46077198 C136.56680595 416.87757546 136.55437295 413.29437864 136.54199219 409.71118164 C136.5382932 408.64124924 136.5382932 408.64124924 136.53451948 407.54970204 C136.49489905 396.03138256 136.46210455 384.51305339 136.43187518 372.99470586 C136.40065601 361.157715 136.36200274 349.32076487 136.31658494 337.4838199 C136.29131344 330.84283146 136.26961031 324.20186288 136.25603104 317.5608387 C136.24311844 311.29903609 136.22096648 305.0373315 136.19199181 298.77558327 C136.18298746 296.48806575 136.17724269 294.20053249 136.17516136 291.9129982 C136.14392395 262.77309543 133.32795901 236.29686393 111.859375 214.31640625 C93.16356587 196.85050324 70.08209089 192.4211014 45.1875 192 C43.61485382 191.96882835 43.61485382 191.96882835 42.01043701 191.93702698 C38.71013997 191.8724195 35.40977372 191.81306616 32.109375 191.75390625 C29.85155577 191.71063624 27.59374316 191.66701949 25.3359375 191.62304688 C19.84381998 191.51683135 14.35163593 191.414912 8.859375 191.31640625 C8.86825745 192.38049713 8.87713989 193.44458801 8.8862915 194.54092407 C8.96742448 204.5754057 9.02736308 214.60982067 9.06662369 224.64455605 C9.08748666 229.80337839 9.11578097 234.96193567 9.16113281 240.12060547 C9.20463624 245.10026017 9.22852181 250.07966011 9.23888397 255.0594902 C9.24626724 256.95809311 9.26068514 258.85668227 9.28229523 260.75517654 C9.31138908 263.41733028 9.31532852 266.07843518 9.31347656 268.74072266 C9.33504822 269.91461044 9.33504822 269.91461044 9.35705566 271.11221313 C9.31805369 276.30333354 8.23652268 279.1701663 4.859375 283.31640625 C1.1731171 286.81835126 -1.9391944 287.68015886 -6.890625 288.00390625 C-14.05642251 287.70533135 -17.79755242 284.83575514 -23.140625 280.31640625 C-24.36747023 279.32264804 -25.59682385 278.33198179 -26.828125 277.34375 C-29.584818 275.12487448 -32.32792749 272.89060443 -35.0625 270.64453125 C-38.71633199 267.65065763 -42.41551613 264.72083709 -46.140625 261.81640625 C-51.88107524 257.33485544 -57.53756835 252.7568318 -63.1796875 248.15234375 C-67.46514118 244.66110542 -71.78391953 241.21821737 -76.140625 237.81640625 C-81.88073168 233.33440515 -87.53755746 228.75684068 -93.1796875 224.15234375 C-97.46514118 220.66110542 -101.78391953 217.21821737 -106.140625 213.81640625 C-111.88073168 209.33440515 -117.53755746 204.75684068 -123.1796875 200.15234375 C-127.46514118 196.66110542 -131.78391953 193.21821737 -136.140625 189.81640625 C-141.87494851 185.33892077 -147.52723517 180.76734128 -153.16210938 176.16552734 C-157.61401854 172.53672383 -162.11094799 168.97246747 -166.640625 165.44140625 C-181.42351253 153.87084266 -181.42351253 153.87084266 -183.140625 149.31640625 C-183.4765625 146.51171875 -183.4765625 146.51171875 -183.515625 143.44140625 C-183.54398438 142.43335938 -183.57234375 141.4253125 -183.6015625 140.38671875 C-182.49479238 133.01450423 -176.75871631 128.99583733 -171.265625 124.62890625 C-170.50967041 124.01732666 -169.75371582 123.40574707 -168.97485352 122.77563477 C-163.81468295 118.61354197 -158.60943558 114.5073123 -153.38134766 110.4309082 C-148.92060014 106.94964372 -144.52396931 103.39448601 -140.140625 99.81640625 C-134.61728843 95.30873411 -129.04877903 90.86797858 -123.4296875 86.48046875 C-118.95625792 82.97864378 -114.54195298 79.40829461 -110.140625 75.81640625 C-104.61722815 71.30880652 -99.04878064 66.86797983 -93.4296875 62.48046875 C-88.95625792 58.97864378 -84.54195298 55.40829461 -80.140625 51.81640625 C-74.61722815 47.30880652 -69.04878064 42.86797983 -63.4296875 38.48046875 C-58.95625392 34.97864066 -54.54209771 31.40812185 -50.140625 27.81640625 C-42.87662551 21.89264739 -35.54108636 16.06859257 -28.140625 10.31640625 C-27.23159424 9.60895264 -27.23159424 9.60895264 -26.30419922 8.88720703 C-24.50163406 7.48605544 -22.69671116 6.08801539 -20.890625 4.69140625 C-20.06655151 4.05199097 -20.06655151 4.05199097 -19.22583008 3.3996582 C-13.33097935 -1.14052757 -7.32578914 -2.33943996 0 0 Z " fill="#000000" transform="translate(231.140625,0.68359375)"/>
</svg>
